# Blender 5.2.2 LTS
# www.blender.org
o Capsule
v -0.000000 0.500000 -0.000000
v -0.000000 0.495896 -0.078217
v -0.000000 0.436339 -0.293893
v -0.000000 0.362595 -0.404509
v -0.000000 0.317997 -0.445504
v -0.000000 0.218811 -0.493845
v -0.000000 -0.269672 -0.475529
v -0.000000 -0.317997 -0.445504
v -0.000000 -0.362595 -0.404509
v -0.000000 -0.402369 -0.353554
v -0.000000 -0.483685 -0.154509
v -0.000000 -0.495896 -0.078217
v -0.000000 -0.500000 -0.000000
v 0.015259 0.495896 -0.076715
v 0.030143 0.483685 -0.151540
v 0.044284 0.463669 -0.222634
v 0.057335 0.436339 -0.288246
v 0.068975 0.402369 -0.346760
v 0.078916 0.362595 -0.396736
v 0.086913 0.317997 -0.436944
v 0.092771 0.269672 -0.466392
v 0.096344 0.218811 -0.484356
v 0.097545 0.000000 -0.490393
v 0.096344 -0.218811 -0.484356
v 0.092771 -0.269672 -0.466392
v 0.086913 -0.317997 -0.436944
v 0.078916 -0.362595 -0.396736
v 0.068975 -0.402369 -0.346760
v 0.057335 -0.436339 -0.288246
v 0.044284 -0.463669 -0.222634
v 0.030143 -0.483685 -0.151540
v 0.015259 -0.495896 -0.076715
v 0.029932 0.495896 -0.072264
v 0.059128 0.483685 -0.142748
v 0.086867 0.463669 -0.209717
v 0.112468 0.436339 -0.271522
v 0.135299 0.402369 -0.326641
v 0.154799 0.362595 -0.373718
v 0.170487 0.317997 -0.411592
v 0.181977 0.269672 -0.439331
v 0.188986 0.218811 -0.456253
v 0.191342 0.000000 -0.461940
v 0.188986 -0.218811 -0.456253
v 0.181977 -0.269672 -0.439331
v 0.170487 -0.317997 -0.411592
v 0.154799 -0.362595 -0.373718
v 0.135299 -0.402369 -0.326641
v 0.112468 -0.436339 -0.271522
v 0.086867 -0.463669 -0.209717
v 0.059128 -0.483685 -0.142748
v 0.029932 -0.495896 -0.072264
v 0.043455 0.495896 -0.065035
v 0.085840 0.483685 -0.128469
v 0.126112 0.463669 -0.188740
v 0.163278 0.436339 -0.244363
v 0.196424 0.402369 -0.293969
v 0.224733 0.362595 -0.336337
v 0.247508 0.317997 -0.370423
v 0.264189 0.269672 -0.395388
v 0.274365 0.218811 -0.410617
v 0.277785 0.000000 -0.415735
v 0.274365 -0.218811 -0.410617
v 0.264189 -0.269672 -0.395388
v 0.247508 -0.317997 -0.370423
v 0.224733 -0.362595 -0.336337
v 0.196424 -0.402369 -0.293969
v 0.163278 -0.436339 -0.244363
v 0.126112 -0.463669 -0.188740
v 0.085840 -0.483685 -0.128469
v 0.043455 -0.495896 -0.065035
v 0.055308 0.495896 -0.055308
v 0.109254 0.483685 -0.109254
v 0.160510 0.463669 -0.160510
v 0.207813 0.436339 -0.207814
v 0.250000 0.402369 -0.250000
v 0.286031 0.362595 -0.286031
v 0.315018 0.317997 -0.315019
v 0.336249 0.269672 -0.336250
v 0.349201 0.218811 -0.349201
v 0.353553 0.000000 -0.353554
v 0.349201 -0.218811 -0.349201
v 0.336249 -0.269672 -0.336250
v 0.315018 -0.317997 -0.315019
v 0.286031 -0.362595 -0.286031
v 0.250000 -0.402369 -0.250000
v 0.207813 -0.436339 -0.207814
v 0.160510 -0.463669 -0.160510
v 0.109254 -0.483685 -0.109254
v 0.055308 -0.495896 -0.055308
v 0.065035 0.495896 -0.043455
v 0.128469 0.483685 -0.085841
v 0.188740 0.463669 -0.126112
v 0.244363 0.436339 -0.163278
v 0.293969 0.402369 -0.196424
v 0.336337 0.362595 -0.224733
v 0.370422 0.317997 -0.247509
v 0.395387 0.269672 -0.264190
v 0.410616 0.218811 -0.274365
v 0.415735 0.000000 -0.277785
v 0.410616 -0.218811 -0.274365
v 0.395387 -0.269672 -0.264190
v 0.370422 -0.317997 -0.247509
v 0.336337 -0.362595 -0.224733
v 0.293969 -0.402369 -0.196424
v 0.244363 -0.436339 -0.163278
v 0.188740 -0.463669 -0.126112
v 0.128469 -0.483685 -0.085841
v 0.065035 -0.495896 -0.043455
v 0.072263 0.495896 -0.029933
v 0.142747 0.483685 -0.059128
v 0.209716 0.463669 -0.086868
v 0.271521 0.436339 -0.112468
v 0.326641 0.402369 -0.135299
v 0.373717 0.362595 -0.154799
v 0.411591 0.317997 -0.170487
v 0.439331 0.269672 -0.181977
v 0.456253 0.218811 -0.188986
v 0.461940 0.000000 -0.191342
v 0.456253 -0.218811 -0.188986
v 0.439331 -0.269672 -0.181977
v 0.411591 -0.317997 -0.170487
v 0.373717 -0.362595 -0.154799
v 0.326641 -0.402369 -0.135299
v 0.271521 -0.436339 -0.112468
v 0.209716 -0.463669 -0.086868
v 0.142747 -0.483685 -0.059128
v 0.072263 -0.495896 -0.029933
v 0.076714 0.495896 -0.015260
v 0.151540 0.483685 -0.030143
v 0.222634 0.463669 -0.044285
v 0.288246 0.436339 -0.057336
v 0.346760 0.402369 -0.068975
v 0.396736 0.362595 -0.078916
v 0.436943 0.317997 -0.086914
v 0.466391 0.269672 -0.092771
v 0.484355 0.218811 -0.096344
v 0.490393 0.000000 -0.097545
v 0.484355 -0.218811 -0.096344
v 0.466391 -0.269672 -0.092771
v 0.436943 -0.317997 -0.086914
v 0.396736 -0.362595 -0.078916
v 0.346760 -0.402369 -0.068975
v 0.288246 -0.436339 -0.057336
v 0.222634 -0.463669 -0.044285
v 0.151540 -0.483685 -0.030143
v 0.076714 -0.495896 -0.015260
v 0.078217 0.495896 -0.000000
v 0.154508 0.483685 -0.000000
v 0.226995 0.463669 -0.000000
v 0.293893 0.436339 -0.000000
v 0.353553 0.402369 -0.000000
v 0.404508 0.362595 -0.000000
v 0.445503 0.317997 -0.000000
v 0.475528 0.269672 -0.000000
v 0.493844 0.218811 -0.000000
v 0.500000 0.000000 -0.000000
v 0.493844 -0.218811 -0.000000
v 0.475528 -0.269672 -0.000000
v 0.445503 -0.317997 -0.000000
v 0.404508 -0.362595 -0.000000
v 0.353553 -0.402369 -0.000000
v 0.293893 -0.436339 -0.000000
v 0.226995 -0.463669 -0.000000
v 0.154508 -0.483685 -0.000000
v 0.078217 -0.495896 -0.000000
v 0.076714 0.495896 0.015259
v 0.151540 0.483685 0.030143
v 0.222634 0.463669 0.044284
v 0.288246 0.436339 0.057336
v 0.346760 0.402369 0.068975
v 0.396736 0.362595 0.078916
v 0.436943 0.317997 0.086913
v 0.466391 0.269672 0.092771
v 0.484355 0.218811 0.096344
v 0.490393 0.000000 0.097545
v 0.484355 -0.218811 0.096344
v 0.466391 -0.269672 0.092771
v 0.436943 -0.317997 0.086913
v 0.396736 -0.362595 0.078916
v 0.346760 -0.402369 0.068975
v 0.288246 -0.436339 0.057336
v 0.222634 -0.463669 0.044284
v 0.151540 -0.483685 0.030143
v 0.076714 -0.495896 0.015259
v 0.072263 0.495896 0.029932
v 0.142747 0.483685 0.059128
v 0.209716 0.463669 0.086867
v 0.271521 0.436339 0.112468
v 0.326641 0.402369 0.135299
v 0.373717 0.362595 0.154799
v 0.411591 0.317997 0.170487
v 0.439331 0.269672 0.181977
v 0.456253 0.218811 0.188986
v 0.461940 0.000000 0.191342
v 0.456253 -0.218811 0.188986
v 0.439331 -0.269672 0.181977
v 0.411591 -0.317997 0.170487
v 0.373717 -0.362595 0.154799
v 0.326641 -0.402369 0.135299
v 0.271521 -0.436339 0.112468
v 0.209716 -0.463669 0.086867
v 0.142747 -0.483685 0.059128
v 0.072263 -0.495896 0.029932
v 0.065035 0.495896 0.043455
v 0.128469 0.483685 0.085840
v 0.188740 0.463669 0.126112
v 0.244363 0.436339 0.163278
v 0.293969 0.402369 0.196424
v 0.336336 0.362595 0.224733
v 0.370422 0.317997 0.247508
v 0.395387 0.269672 0.264189
v 0.410616 0.218811 0.274365
v 0.415735 0.000000 0.277785
v 0.410616 -0.218811 0.274365
v 0.395387 -0.269672 0.264189
v 0.370422 -0.317997 0.247508
v 0.336336 -0.362595 0.224733
v 0.293969 -0.402369 0.196424
v 0.244363 -0.436339 0.163278
v 0.188740 -0.463669 0.126112
v 0.128469 -0.483685 0.085840
v 0.065035 -0.495896 0.043455
v 0.055308 0.495896 0.055308
v 0.109254 0.483685 0.109254
v 0.160510 0.463669 0.160510
v 0.207813 0.436339 0.207814
v 0.250000 0.402369 0.250000
v 0.286031 0.362595 0.286031
v 0.315018 0.317997 0.315018
v 0.336249 0.269672 0.336249
v 0.349200 0.218811 0.349201
v 0.353553 0.000000 0.353554
v 0.349200 -0.218811 0.349201
v 0.336249 -0.269672 0.336249
v 0.315018 -0.317997 0.315018
v 0.286031 -0.362595 0.286031
v 0.250000 -0.402369 0.250000
v 0.207813 -0.436339 0.207814
v 0.160510 -0.463669 0.160510
v 0.109254 -0.483685 0.109254
v 0.055308 -0.495896 0.055308
v 0.043455 0.495896 0.065035
v 0.085840 0.483685 0.128469
v 0.126112 0.463669 0.188740
v 0.163278 0.436339 0.244363
v 0.196424 0.402369 0.293969
v 0.224733 0.362595 0.336337
v 0.247508 0.317997 0.370423
v 0.264189 0.269672 0.395387
v 0.274365 0.218811 0.410617
v 0.277785 0.000000 0.415735
v 0.274365 -0.218811 0.410617
v 0.264189 -0.269672 0.395387
v 0.247508 -0.317997 0.370423
v 0.224733 -0.362595 0.336337
v 0.196424 -0.402369 0.293969
v 0.163278 -0.436339 0.244363
v 0.126112 -0.463669 0.188740
v 0.085840 -0.483685 0.128469
v 0.043455 -0.495896 0.065035
v 0.029932 0.495896 0.072263
v 0.059128 0.483685 0.142747
v 0.086867 0.463669 0.209716
v 0.112468 0.436339 0.271521
v 0.135299 0.402369 0.326641
v 0.154799 0.362595 0.373717
v 0.170486 0.317997 0.411591
v 0.181977 0.269672 0.439331
v 0.188986 0.218811 0.456253
v 0.191341 0.000000 0.461940
v 0.188986 -0.218811 0.456253
v 0.181977 -0.269672 0.439331
v 0.170486 -0.317997 0.411591
v 0.154799 -0.362595 0.373717
v 0.135299 -0.402369 0.326641
v 0.112468 -0.436339 0.271521
v 0.086867 -0.463669 0.209716
v 0.059128 -0.483685 0.142747
v 0.029932 -0.495896 0.072263
v 0.015259 0.495896 0.076714
v 0.030143 0.483685 0.151540
v 0.044284 0.463669 0.222634
v 0.057335 0.436339 0.288246
v 0.068975 0.402369 0.346760
v 0.078915 0.362595 0.396736
v 0.086913 0.317997 0.436943
v 0.092771 0.269672 0.466391
v 0.096344 0.218811 0.484355
v 0.097545 0.000000 0.490393
v 0.096344 -0.218811 0.484355
v 0.092771 -0.269672 0.466391
v 0.086913 -0.317997 0.436943
v 0.078915 -0.362595 0.396736
v 0.068975 -0.402369 0.346760
v 0.057335 -0.436339 0.288246
v 0.044284 -0.463669 0.222634
v 0.030143 -0.483685 0.151540
v 0.015259 -0.495896 0.076714
v -0.000000 0.495896 0.078217
v -0.000000 0.483685 0.154508
v -0.000000 0.463669 0.226995
v -0.000000 0.436339 0.293893
v -0.000000 0.402369 0.353554
v -0.000000 0.362595 0.404509
v -0.000000 0.317997 0.445503
v -0.000000 0.269672 0.475528
v -0.000000 0.218811 0.493844
v -0.000000 0.000000 0.500000
v -0.000000 -0.218811 0.493844
v -0.000000 -0.269672 0.475528
v -0.000000 -0.317997 0.445503
v -0.000000 -0.362595 0.404509
v -0.000000 -0.402369 0.353554
v -0.000000 -0.436339 0.293893
v -0.000000 -0.463669 0.226995
v -0.000000 -0.483685 0.154508
v -0.000000 -0.495896 0.078217
v -0.015260 0.495896 0.076714
v -0.030143 0.483685 0.151540
v -0.044285 0.463669 0.222634
v -0.057336 0.436339 0.288246
v -0.068975 0.402369 0.346760
v -0.078916 0.362595 0.396736
v -0.086914 0.317997 0.436943
v -0.092771 0.269672 0.466391
v -0.096344 0.218811 0.484355
v -0.097545 0.000000 0.490393
v -0.096344 -0.218811 0.484355
v -0.092771 -0.269672 0.466391
v -0.086914 -0.317997 0.436943
v -0.078916 -0.362595 0.396736
v -0.068975 -0.402369 0.346760
v -0.057336 -0.436339 0.288246
v -0.044285 -0.463669 0.222634
v -0.030143 -0.483685 0.151540
v -0.015260 -0.495896 0.076714
v -0.029933 0.495896 0.072263
v -0.059128 0.483685 0.142747
v -0.086868 0.463669 0.209716
v -0.112468 0.436339 0.271521
v -0.135299 0.402369 0.326641
v -0.154799 0.362595 0.373717
v -0.170487 0.317997 0.411591
v -0.181977 0.269672 0.439331
v -0.188986 0.218811 0.456253
v -0.191342 0.000000 0.461940
v -0.188986 -0.218811 0.456253
v -0.181977 -0.269672 0.439331
v -0.170487 -0.317997 0.411591
v -0.154799 -0.362595 0.373717
v -0.135299 -0.402369 0.326641
v -0.112468 -0.436339 0.271521
v -0.086868 -0.463669 0.209716
v -0.059128 -0.483685 0.142747
v -0.029933 -0.495896 0.072263
v -0.043455 0.495896 0.065035
v -0.085841 0.483685 0.128469
v -0.126112 0.463669 0.188740
v -0.163278 0.436339 0.244363
v -0.196424 0.402369 0.293969
v -0.224733 0.362595 0.336336
v -0.247509 0.317997 0.370422
v -0.264190 0.269672 0.395387
v -0.274365 0.218811 0.410616
v -0.277785 0.000000 0.415735
v -0.274365 -0.218811 0.410616
v -0.264190 -0.269672 0.395387
v -0.247509 -0.317997 0.370422
v -0.224733 -0.362595 0.336336
v -0.196424 -0.402369 0.293969
v -0.163278 -0.436339 0.244363
v -0.126112 -0.463669 0.188740
v -0.085841 -0.483685 0.128469
v -0.043455 -0.495896 0.065035
v -0.055308 0.495896 0.055308
v -0.109254 0.483685 0.109254
v -0.160510 0.463669 0.160510
v -0.207814 0.436339 0.207813
v -0.250000 0.402369 0.250000
v -0.286031 0.362595 0.286031
v -0.315019 0.317997 0.315018
v -0.336250 0.269672 0.336249
v -0.349201 0.218811 0.349201
v -0.353554 0.000000 0.353553
v -0.349201 -0.218811 0.349201
v -0.336250 -0.269672 0.336249
v -0.315019 -0.317997 0.315018
v -0.286031 -0.362595 0.286031
v -0.250000 -0.402369 0.250000
v -0.207814 -0.436339 0.207813
v -0.160510 -0.463669 0.160510
v -0.109254 -0.483685 0.109254
v -0.055308 -0.495896 0.055308
v -0.065035 0.495896 0.043455
v -0.128469 0.483685 0.085840
v -0.188740 0.463669 0.126112
v -0.244363 0.436339 0.163278
v -0.293969 0.402369 0.196424
v -0.336337 0.362595 0.224733
v -0.370423 0.317997 0.247508
v -0.395388 0.269672 0.264189
v -0.410617 0.218811 0.274365
v -0.415735 0.000000 0.277785
v -0.410617 -0.218811 0.274365
v -0.395388 -0.269672 0.264189
v -0.370423 -0.317997 0.247508
v -0.336337 -0.362595 0.224733
v -0.293969 -0.402369 0.196424
v -0.244363 -0.436339 0.163278
v -0.188740 -0.463669 0.126112
v -0.128469 -0.483685 0.085840
v -0.065035 -0.495896 0.043455
v -0.072263 0.495896 0.029932
v -0.142747 0.483685 0.059128
v -0.209716 0.463669 0.086867
v -0.271522 0.436339 0.112468
v -0.326641 0.402369 0.135299
v -0.373717 0.362595 0.154799
v -0.411592 0.317997 0.170486
v -0.439331 0.269672 0.181977
v -0.456253 0.218811 0.188986
v -0.461940 0.000000 0.191341
v -0.456253 -0.218811 0.188986
v -0.439331 -0.269672 0.181977
v -0.411592 -0.317997 0.170486
v -0.373717 -0.362595 0.154799
v -0.326641 -0.402369 0.135299
v -0.271522 -0.436339 0.112468
v -0.209716 -0.463669 0.086867
v -0.142747 -0.483685 0.059128
v -0.072263 -0.495896 0.029932
v -0.076714 0.495896 0.015259
v -0.151540 0.483685 0.030143
v -0.222634 0.463669 0.044284
v -0.288246 0.436339 0.057335
v -0.346760 0.402369 0.068975
v -0.396736 0.362595 0.078915
v -0.436943 0.317997 0.086913
v -0.466391 0.269672 0.092771
v -0.484355 0.218811 0.096344
v -0.490393 0.000000 0.097545
v -0.484355 -0.218811 0.096344
v -0.466391 -0.269672 0.092771
v -0.436943 -0.317997 0.086913
v -0.396736 -0.362595 0.078915
v -0.346760 -0.402369 0.068975
v -0.288246 -0.436339 0.057335
v -0.222634 -0.463669 0.044284
v -0.151540 -0.483685 0.030143
v -0.076714 -0.495896 0.015259
v -0.078217 0.495896 -0.000000
v -0.154509 0.483685 -0.000000
v -0.226995 0.463669 -0.000000
v -0.293893 0.436339 -0.000000
v -0.353554 0.402369 -0.000000
v -0.404509 0.362595 -0.000000
v -0.445503 0.317997 -0.000000
v -0.475528 0.269672 -0.000000
v -0.493844 0.218811 -0.000000
v -0.500000 0.000000 -0.000000
v -0.493844 -0.218811 -0.000000
v -0.475528 -0.269672 -0.000000
v -0.445503 -0.317997 -0.000000
v -0.404509 -0.362595 -0.000000
v -0.353554 -0.402369 -0.000000
v -0.293893 -0.436339 -0.000000
v -0.226995 -0.463669 -0.000000
v -0.154509 -0.483685 -0.000000
v -0.078217 -0.495896 -0.000000
v -0.076714 0.495896 -0.015260
v -0.151540 0.483685 -0.030143
v -0.222634 0.463669 -0.044285
v -0.288246 0.436339 -0.057336
v -0.346760 0.402369 -0.068975
v -0.396736 0.362595 -0.078916
v -0.436943 0.317997 -0.086914
v -0.466391 0.269672 -0.092771
v -0.484355 0.218811 -0.096344
v -0.490393 0.000000 -0.097546
v -0.484355 -0.218811 -0.096344
v -0.466391 -0.269672 -0.092771
v -0.436943 -0.317997 -0.086914
v -0.396736 -0.362595 -0.078916
v -0.346760 -0.402369 -0.068975
v -0.288246 -0.436339 -0.057336
v -0.222634 -0.463669 -0.044285
v -0.151540 -0.483685 -0.030143
v -0.076714 -0.495896 -0.015260
v -0.072263 0.495896 -0.029933
v -0.142747 0.483685 -0.059128
v -0.209716 0.463669 -0.086868
v -0.271522 0.436339 -0.112468
v -0.326641 0.402369 -0.135299
v -0.373717 0.362595 -0.154799
v -0.411591 0.317997 -0.170487
v -0.439331 0.269672 -0.181977
v -0.456253 0.218811 -0.188986
v -0.461940 0.000000 -0.191342
v -0.456253 -0.218811 -0.188986
v -0.439331 -0.269672 -0.181977
v -0.411591 -0.317997 -0.170487
v -0.373717 -0.362595 -0.154799
v -0.326641 -0.402369 -0.135299
v -0.271522 -0.436339 -0.112468
v -0.209716 -0.463669 -0.086868
v -0.142747 -0.483685 -0.059128
v -0.072263 -0.495896 -0.029933
v -0.065035 0.495896 -0.043455
v -0.128469 0.483685 -0.085840
v -0.188740 0.463669 -0.126112
v -0.244363 0.436339 -0.163278
v -0.293969 0.402369 -0.196424
v -0.336337 0.362595 -0.224733
v -0.370422 0.317997 -0.247509
v -0.395387 0.269672 -0.264190
v -0.410617 0.218811 -0.274365
v -0.415735 0.000000 -0.277785
v -0.410617 -0.218811 -0.274365
v -0.395387 -0.269672 -0.264190
v -0.370422 -0.317997 -0.247509
v -0.336337 -0.362595 -0.224733
v -0.293969 -0.402369 -0.196424
v -0.244363 -0.436339 -0.163278
v -0.188740 -0.463669 -0.126112
v -0.128469 -0.483685 -0.085840
v -0.065035 -0.495896 -0.043455
v -0.055308 0.495896 -0.055308
v -0.109254 0.483685 -0.109254
v -0.160510 0.463669 -0.160510
v -0.207814 0.436339 -0.207814
v -0.250000 0.402369 -0.250000
v -0.286031 0.362595 -0.286031
v -0.315018 0.317997 -0.315019
v -0.336249 0.269672 -0.336249
v -0.349201 0.218811 -0.349201
v -0.353553 0.000000 -0.353554
v -0.349201 -0.218811 -0.349201
v -0.336249 -0.269672 -0.336249
v -0.315018 -0.317997 -0.315019
v -0.286031 -0.362595 -0.286031
v -0.250000 -0.402369 -0.250000
v -0.207814 -0.436339 -0.207814
v -0.160510 -0.463669 -0.160510
v -0.109254 -0.483685 -0.109254
v -0.055308 -0.495896 -0.055308
v -0.043455 0.495896 -0.065035
v -0.085840 0.483685 -0.128469
v -0.126112 0.463669 -0.188740
v -0.163278 0.436339 -0.244363
v -0.196424 0.402369 -0.293969
v -0.224733 0.362595 -0.336337
v -0.247508 0.317997 -0.370423
v -0.264189 0.269672 -0.395388
v -0.274365 0.218811 -0.410617
v -0.277785 0.000000 -0.415735
v -0.274365 -0.218811 -0.410617
v -0.264189 -0.269672 -0.395388
v -0.247508 -0.317997 -0.370423
v -0.224733 -0.362595 -0.336337
v -0.196424 -0.402369 -0.293969
v -0.163278 -0.436339 -0.244363
v -0.126112 -0.463669 -0.188740
v -0.085840 -0.483685 -0.128469
v -0.043455 -0.495896 -0.065035
v -0.029933 0.495896 -0.072263
v -0.059128 0.483685 -0.142747
v -0.086867 0.463669 -0.209716
v -0.112468 0.436339 -0.271522
v -0.135299 0.402369 -0.326641
v -0.154799 0.362595 -0.373717
v -0.170487 0.317997 -0.411592
v -0.181977 0.269672 -0.439331
v -0.188986 0.218811 -0.456253
v -0.191342 0.000000 -0.461940
v -0.188986 -0.218811 -0.456253
v -0.181977 -0.269672 -0.439331
v -0.170487 -0.317997 -0.411592
v -0.154799 -0.362595 -0.373717
v -0.135299 -0.402369 -0.326641
v -0.112468 -0.436339 -0.271522
v -0.086867 -0.463669 -0.209716
v -0.059128 -0.483685 -0.142747
v -0.029933 -0.495896 -0.072263
v -0.015260 0.495896 -0.076714
v -0.030143 0.483685 -0.151540
v -0.044285 0.463669 -0.222634
v -0.057336 0.436339 -0.288246
v -0.068975 0.402369 -0.346760
v -0.078916 0.362595 -0.396736
v -0.086913 0.317997 -0.436943
v -0.092771 0.269672 -0.466391
v -0.096344 0.218811 -0.484355
v -0.097545 0.000000 -0.490393
v -0.096344 -0.218811 -0.484355
v -0.092771 -0.269672 -0.466391
v -0.086913 -0.317997 -0.436943
v -0.078916 -0.362595 -0.396736
v -0.068975 -0.402369 -0.346760
v -0.057336 -0.436339 -0.288246
v -0.044285 -0.463669 -0.222634
v -0.030143 -0.483685 -0.151540
v -0.015260 -0.495896 -0.076714
v -0.000000 0.483685 -0.154509
v -0.000000 0.463669 -0.226995
v -0.000000 0.402369 -0.353554
v -0.000000 0.269672 -0.475528
v 0.000000 0.000000 -0.500000
v -0.000000 -0.218811 -0.493844
v -0.000000 -0.436339 -0.293893
v -0.000000 -0.463669 -0.226995
vn -0.0000 1.0000 -0.0000
vn -0.0000 0.9941 -0.1086
vn -0.0000 0.8977 -0.4407
vn -0.0000 0.7325 -0.6808
vn -0.0000 0.6021 -0.7984
vn -0.0000 0.1840 -0.9829
vn -0.0000 -0.4331 -0.9013
vn -0.0000 -0.6021 -0.7984
vn -0.0000 -0.7325 -0.6808
vn -0.0000 -0.8287 -0.5596
vn -0.0000 -0.9765 -0.2157
vn -0.0000 -0.9941 -0.1086
vn -0.0000 -1.0000 -0.0000
vn 0.0212 0.9941 -0.1066
vn 0.0421 0.9765 -0.2116
vn 0.0636 0.9454 -0.3198
vn 0.0860 0.8977 -0.4322
vn 0.1092 0.8287 -0.5489
vn 0.1328 0.7325 -0.6677
vn 0.1558 0.6021 -0.7831
vn 0.1758 0.4331 -0.8840
vn 0.1918 0.1840 -0.9640
vn 0.1951 -0.0000 -0.9808
vn 0.1918 -0.1840 -0.9640
vn 0.1758 -0.4331 -0.8840
vn 0.1558 -0.6021 -0.7831
vn 0.1328 -0.7325 -0.6677
vn 0.1092 -0.8287 -0.5489
vn 0.0860 -0.8977 -0.4322
vn 0.0636 -0.9454 -0.3198
vn 0.0421 -0.9765 -0.2116
vn 0.0212 -0.9941 -0.1066
vn 0.0416 0.9941 -0.1004
vn 0.0826 0.9765 -0.1993
vn 0.1248 0.9454 -0.3012
vn 0.1686 0.8977 -0.4071
vn 0.2142 0.8287 -0.5170
vn 0.2605 0.7325 -0.6290
vn 0.3055 0.6021 -0.7376
vn 0.3449 0.4331 -0.8327
vn 0.3761 0.1840 -0.9081
vn 0.3827 -0.0000 -0.9239
vn 0.3761 -0.1840 -0.9081
vn 0.3449 -0.4331 -0.8327
vn 0.3055 -0.6021 -0.7376
vn 0.2605 -0.7325 -0.6290
vn 0.2142 -0.8287 -0.5170
vn 0.1686 -0.8977 -0.4071
vn 0.1248 -0.9454 -0.3012
vn 0.0826 -0.9765 -0.1993
vn 0.0416 -0.9941 -0.1004
vn 0.0604 0.9941 -0.0903
vn 0.1199 0.9765 -0.1794
vn 0.1811 0.9454 -0.2711
vn 0.2448 0.8977 -0.3664
vn 0.3109 0.8287 -0.4653
vn 0.3782 0.7325 -0.5661
vn 0.4436 0.6021 -0.6639
vn 0.5007 0.4331 -0.7494
vn 0.5461 0.1840 -0.8173
vn 0.5556 -0.0000 -0.8315
vn 0.5461 -0.1840 -0.8173
vn 0.5007 -0.4331 -0.7494
vn 0.4436 -0.6021 -0.6639
vn 0.3782 -0.7325 -0.5661
vn 0.3109 -0.8287 -0.4653
vn 0.2448 -0.8977 -0.3664
vn 0.1811 -0.9454 -0.2711
vn 0.1199 -0.9765 -0.1794
vn 0.0604 -0.9941 -0.0903
vn 0.0768 0.9941 -0.0768
vn 0.1525 0.9765 -0.1525
vn 0.2306 0.9454 -0.2306
vn 0.3116 0.8977 -0.3116
vn 0.3957 0.8287 -0.3957
vn 0.4814 0.7325 -0.4814
vn 0.5646 0.6021 -0.5646
vn 0.6373 0.4331 -0.6373
vn 0.6950 0.1840 -0.6950
vn 0.7071 -0.0000 -0.7071
vn 0.6950 -0.1840 -0.6950
vn 0.6373 -0.4331 -0.6373
vn 0.5646 -0.6021 -0.5646
vn 0.4814 -0.7325 -0.4814
vn 0.3957 -0.8287 -0.3957
vn 0.3116 -0.8977 -0.3116
vn 0.2306 -0.9454 -0.2306
vn 0.1525 -0.9765 -0.1525
vn 0.0768 -0.9941 -0.0768
vn 0.0903 0.9941 -0.0604
vn 0.1794 0.9765 -0.1199
vn 0.2711 0.9454 -0.1811
vn 0.3664 0.8977 -0.2448
vn 0.4653 0.8287 -0.3109
vn 0.5661 0.7325 -0.3782
vn 0.6639 0.6021 -0.4436
vn 0.7494 0.4331 -0.5007
vn 0.8173 0.1840 -0.5461
vn 0.8315 -0.0000 -0.5556
vn 0.8173 -0.1840 -0.5461
vn 0.7494 -0.4331 -0.5007
vn 0.6639 -0.6021 -0.4436
vn 0.5661 -0.7325 -0.3782
vn 0.4653 -0.8287 -0.3109
vn 0.3664 -0.8977 -0.2448
vn 0.2711 -0.9454 -0.1811
vn 0.1794 -0.9765 -0.1199
vn 0.0903 -0.9941 -0.0604
vn 0.1004 0.9941 -0.0416
vn 0.1993 0.9765 -0.0826
vn 0.3012 0.9454 -0.1248
vn 0.4071 0.8977 -0.1686
vn 0.5170 0.8287 -0.2142
vn 0.6290 0.7325 -0.2605
vn 0.7376 0.6021 -0.3055
vn 0.8327 0.4331 -0.3449
vn 0.9081 0.1840 -0.3761
vn 0.9239 -0.0000 -0.3827
vn 0.9081 -0.1840 -0.3761
vn 0.8327 -0.4331 -0.3449
vn 0.7376 -0.6021 -0.3055
vn 0.6290 -0.7325 -0.2605
vn 0.5170 -0.8287 -0.2142
vn 0.4071 -0.8977 -0.1686
vn 0.3012 -0.9454 -0.1248
vn 0.1993 -0.9765 -0.0826
vn 0.1004 -0.9941 -0.0416
vn 0.1066 0.9941 -0.0212
vn 0.2116 0.9765 -0.0421
vn 0.3198 0.9454 -0.0636
vn 0.4322 0.8977 -0.0860
vn 0.5489 0.8287 -0.1092
vn 0.6677 0.7325 -0.1328
vn 0.7831 0.6021 -0.1558
vn 0.8840 0.4331 -0.1758
vn 0.9640 0.1840 -0.1918
vn 0.9808 -0.0000 -0.1951
vn 0.9640 -0.1840 -0.1918
vn 0.8840 -0.4331 -0.1758
vn 0.7831 -0.6021 -0.1558
vn 0.6677 -0.7325 -0.1328
vn 0.5489 -0.8287 -0.1092
vn 0.4322 -0.8977 -0.0860
vn 0.3198 -0.9454 -0.0636
vn 0.2116 -0.9765 -0.0421
vn 0.1066 -0.9941 -0.0212
vn 0.1086 0.9941 -0.0000
vn 0.2157 0.9765 -0.0000
vn 0.3261 0.9454 -0.0000
vn 0.4407 0.8977 -0.0000
vn 0.5596 0.8287 -0.0000
vn 0.6808 0.7325 -0.0000
vn 0.7984 0.6021 -0.0000
vn 0.9013 0.4331 -0.0000
vn 0.9829 0.1840 -0.0000
vn 1.0000 -0.0000 -0.0000
vn 0.9829 -0.1840 -0.0000
vn 0.9013 -0.4331 -0.0000
vn 0.7984 -0.6021 -0.0000
vn 0.6808 -0.7325 -0.0000
vn 0.5596 -0.8287 -0.0000
vn 0.4407 -0.8977 -0.0000
vn 0.3261 -0.9454 -0.0000
vn 0.2157 -0.9765 -0.0000
vn 0.1086 -0.9941 -0.0000
vn 0.1066 0.9941 0.0212
vn 0.2116 0.9765 0.0421
vn 0.3198 0.9454 0.0636
vn 0.4322 0.8977 0.0860
vn 0.5489 0.8287 0.1092
vn 0.6677 0.7325 0.1328
vn 0.7831 0.6021 0.1558
vn 0.8840 0.4331 0.1758
vn 0.9640 0.1840 0.1918
vn 0.9808 -0.0000 0.1951
vn 0.9640 -0.1840 0.1918
vn 0.8840 -0.4331 0.1758
vn 0.7831 -0.6021 0.1558
vn 0.6677 -0.7325 0.1328
vn 0.5489 -0.8287 0.1092
vn 0.4322 -0.8977 0.0860
vn 0.3198 -0.9454 0.0636
vn 0.2116 -0.9765 0.0421
vn 0.1066 -0.9941 0.0212
vn 0.1004 0.9941 0.0416
vn 0.1993 0.9765 0.0826
vn 0.3012 0.9454 0.1248
vn 0.4071 0.8977 0.1686
vn 0.5170 0.8287 0.2142
vn 0.6290 0.7325 0.2605
vn 0.7376 0.6021 0.3055
vn 0.8327 0.4331 0.3449
vn 0.9081 0.1840 0.3761
vn 0.9239 -0.0000 0.3827
vn 0.9081 -0.1840 0.3761
vn 0.8327 -0.4331 0.3449
vn 0.7376 -0.6021 0.3055
vn 0.6290 -0.7325 0.2605
vn 0.5170 -0.8287 0.2142
vn 0.4071 -0.8977 0.1686
vn 0.3012 -0.9454 0.1248
vn 0.1993 -0.9765 0.0826
vn 0.1004 -0.9941 0.0416
vn 0.0903 0.9941 0.0604
vn 0.1794 0.9765 0.1199
vn 0.2711 0.9454 0.1811
vn 0.3664 0.8977 0.2448
vn 0.4653 0.8287 0.3109
vn 0.5661 0.7325 0.3782
vn 0.6639 0.6021 0.4436
vn 0.7494 0.4331 0.5007
vn 0.8173 0.1840 0.5461
vn 0.8315 -0.0000 0.5556
vn 0.8173 -0.1840 0.5461
vn 0.7494 -0.4331 0.5007
vn 0.6639 -0.6021 0.4436
vn 0.5661 -0.7325 0.3782
vn 0.4653 -0.8287 0.3109
vn 0.3664 -0.8977 0.2448
vn 0.2711 -0.9454 0.1811
vn 0.1794 -0.9765 0.1199
vn 0.0903 -0.9941 0.0604
vn 0.0768 0.9941 0.0768
vn 0.1525 0.9765 0.1525
vn 0.2306 0.9454 0.2306
vn 0.3116 0.8977 0.3116
vn 0.3957 0.8287 0.3957
vn 0.4814 0.7325 0.4814
vn 0.5646 0.6021 0.5646
vn 0.6373 0.4331 0.6373
vn 0.6950 0.1840 0.6950
vn 0.7071 -0.0000 0.7071
vn 0.6950 -0.1840 0.6950
vn 0.6373 -0.4331 0.6373
vn 0.5646 -0.6021 0.5646
vn 0.4814 -0.7325 0.4814
vn 0.3957 -0.8287 0.3957
vn 0.3116 -0.8977 0.3116
vn 0.2306 -0.9454 0.2306
vn 0.1525 -0.9765 0.1525
vn 0.0768 -0.9941 0.0768
vn 0.0604 0.9941 0.0903
vn 0.1199 0.9765 0.1794
vn 0.1811 0.9454 0.2711
vn 0.2448 0.8977 0.3664
vn 0.3109 0.8287 0.4653
vn 0.3782 0.7325 0.5661
vn 0.4436 0.6021 0.6639
vn 0.5007 0.4331 0.7494
vn 0.5461 0.1840 0.8173
vn 0.5556 -0.0000 0.8315
vn 0.5461 -0.1840 0.8173
vn 0.5007 -0.4331 0.7494
vn 0.4436 -0.6021 0.6639
vn 0.3782 -0.7325 0.5661
vn 0.3109 -0.8287 0.4653
vn 0.2448 -0.8977 0.3664
vn 0.1811 -0.9454 0.2711
vn 0.1199 -0.9765 0.1794
vn 0.0604 -0.9941 0.0903
vn 0.0416 0.9941 0.1004
vn 0.0826 0.9765 0.1993
vn 0.1248 0.9454 0.3012
vn 0.1686 0.8977 0.4071
vn 0.2142 0.8287 0.5170
vn 0.2605 0.7325 0.6290
vn 0.3055 0.6021 0.7376
vn 0.3449 0.4331 0.8327
vn 0.3761 0.1840 0.9081
vn 0.3827 -0.0000 0.9239
vn 0.3761 -0.1840 0.9081
vn 0.3449 -0.4331 0.8327
vn 0.3055 -0.6021 0.7376
vn 0.2605 -0.7325 0.6290
vn 0.2142 -0.8287 0.5170
vn 0.1686 -0.8977 0.4071
vn 0.1248 -0.9453 0.3012
vn 0.0826 -0.9765 0.1993
vn 0.0416 -0.9941 0.1004
vn 0.0212 0.9941 0.1066
vn 0.0421 0.9765 0.2116
vn 0.0636 0.9454 0.3198
vn 0.0860 0.8977 0.4322
vn 0.1092 0.8287 0.5489
vn 0.1328 0.7325 0.6677
vn 0.1558 0.6021 0.7831
vn 0.1758 0.4331 0.8840
vn 0.1918 0.1840 0.9640
vn 0.1951 -0.0000 0.9808
vn 0.1918 -0.1840 0.9640
vn 0.1758 -0.4331 0.8840
vn 0.1558 -0.6021 0.7831
vn 0.1328 -0.7325 0.6677
vn 0.1092 -0.8287 0.5489
vn 0.0860 -0.8977 0.4322
vn 0.0636 -0.9454 0.3198
vn 0.0421 -0.9765 0.2116
vn 0.0212 -0.9941 0.1066
vn -0.0000 0.9941 0.1086
vn -0.0000 0.9765 0.2157
vn -0.0000 0.9454 0.3261
vn -0.0000 0.8977 0.4407
vn -0.0000 0.8287 0.5596
vn -0.0000 0.7325 0.6808
vn -0.0000 0.6021 0.7984
vn -0.0000 0.4331 0.9013
vn -0.0000 0.1840 0.9829
vn -0.0000 -0.0000 1.0000
vn -0.0000 -0.1840 0.9829
vn -0.0000 -0.4331 0.9013
vn -0.0000 -0.6021 0.7984
vn -0.0000 -0.7325 0.6808
vn -0.0000 -0.8287 0.5596
vn -0.0000 -0.8977 0.4407
vn -0.0000 -0.9454 0.3261
vn -0.0000 -0.9765 0.2157
vn -0.0000 -0.9941 0.1086
vn -0.0212 0.9941 0.1066
vn -0.0421 0.9765 0.2116
vn -0.0636 0.9454 0.3198
vn -0.0860 0.8977 0.4322
vn -0.1092 0.8287 0.5489
vn -0.1328 0.7325 0.6677
vn -0.1558 0.6021 0.7831
vn -0.1758 0.4331 0.8840
vn -0.1918 0.1840 0.9640
vn -0.1951 -0.0000 0.9808
vn -0.1918 -0.1840 0.9640
vn -0.1758 -0.4331 0.8840
vn -0.1558 -0.6021 0.7831
vn -0.1328 -0.7325 0.6677
vn -0.1092 -0.8287 0.5489
vn -0.0860 -0.8977 0.4322
vn -0.0636 -0.9454 0.3198
vn -0.0421 -0.9765 0.2116
vn -0.0212 -0.9941 0.1066
vn -0.0416 0.9941 0.1004
vn -0.0826 0.9765 0.1993
vn -0.1248 0.9454 0.3012
vn -0.1686 0.8977 0.4071
vn -0.2142 0.8287 0.5170
vn -0.2605 0.7325 0.6290
vn -0.3055 0.6021 0.7376
vn -0.3449 0.4331 0.8327
vn -0.3761 0.1840 0.9081
vn -0.3827 -0.0000 0.9239
vn -0.3761 -0.1840 0.9081
vn -0.3449 -0.4331 0.8327
vn -0.3055 -0.6021 0.7376
vn -0.2605 -0.7325 0.6290
vn -0.2142 -0.8287 0.5170
vn -0.1686 -0.8977 0.4071
vn -0.1248 -0.9454 0.3012
vn -0.0826 -0.9765 0.1993
vn -0.0416 -0.9941 0.1004
vn -0.0604 0.9941 0.0903
vn -0.1199 0.9765 0.1794
vn -0.1811 0.9454 0.2711
vn -0.2448 0.8977 0.3664
vn -0.3109 0.8287 0.4653
vn -0.3782 0.7325 0.5661
vn -0.4436 0.6021 0.6639
vn -0.5007 0.4331 0.7494
vn -0.5461 0.1840 0.8173
vn -0.5556 -0.0000 0.8315
vn -0.5461 -0.1840 0.8173
vn -0.5007 -0.4331 0.7494
vn -0.4436 -0.6021 0.6639
vn -0.3782 -0.7325 0.5661
vn -0.3109 -0.8287 0.4653
vn -0.2448 -0.8977 0.3664
vn -0.1811 -0.9454 0.2711
vn -0.1199 -0.9765 0.1794
vn -0.0604 -0.9941 0.0903
vn -0.0768 0.9941 0.0768
vn -0.1525 0.9765 0.1525
vn -0.2306 0.9454 0.2306
vn -0.3116 0.8977 0.3116
vn -0.3957 0.8287 0.3957
vn -0.4814 0.7325 0.4814
vn -0.5646 0.6021 0.5646
vn -0.6373 0.4331 0.6373
vn -0.6950 0.1840 0.6950
vn -0.7071 -0.0000 0.7071
vn -0.6950 -0.1840 0.6950
vn -0.6373 -0.4331 0.6373
vn -0.5646 -0.6021 0.5646
vn -0.4814 -0.7325 0.4814
vn -0.3957 -0.8287 0.3957
vn -0.3116 -0.8977 0.3116
vn -0.2306 -0.9454 0.2306
vn -0.1525 -0.9765 0.1525
vn -0.0768 -0.9941 0.0768
vn -0.0903 0.9941 0.0604
vn -0.1794 0.9765 0.1199
vn -0.2711 0.9454 0.1811
vn -0.3664 0.8977 0.2448
vn -0.4653 0.8287 0.3109
vn -0.5661 0.7325 0.3782
vn -0.6639 0.6021 0.4436
vn -0.7494 0.4331 0.5007
vn -0.8173 0.1840 0.5461
vn -0.8315 -0.0000 0.5556
vn -0.8173 -0.1840 0.5461
vn -0.7494 -0.4331 0.5007
vn -0.6639 -0.6021 0.4436
vn -0.5661 -0.7325 0.3782
vn -0.4653 -0.8287 0.3109
vn -0.3664 -0.8977 0.2448
vn -0.2711 -0.9454 0.1811
vn -0.1794 -0.9765 0.1199
vn -0.0903 -0.9941 0.0604
vn -0.1004 0.9941 0.0416
vn -0.1993 0.9765 0.0826
vn -0.3012 0.9454 0.1248
vn -0.4071 0.8977 0.1686
vn -0.5170 0.8287 0.2142
vn -0.6290 0.7325 0.2605
vn -0.7376 0.6021 0.3055
vn -0.8327 0.4331 0.3449
vn -0.9081 0.1840 0.3761
vn -0.9239 -0.0000 0.3827
vn -0.9081 -0.1840 0.3761
vn -0.8327 -0.4331 0.3449
vn -0.7376 -0.6021 0.3055
vn -0.6290 -0.7325 0.2605
vn -0.5170 -0.8287 0.2142
vn -0.4071 -0.8977 0.1686
vn -0.3012 -0.9454 0.1248
vn -0.1993 -0.9765 0.0826
vn -0.1004 -0.9941 0.0416
vn -0.1066 0.9941 0.0212
vn -0.2116 0.9765 0.0421
vn -0.3198 0.9454 0.0636
vn -0.4322 0.8977 0.0860
vn -0.5489 0.8287 0.1092
vn -0.6677 0.7325 0.1328
vn -0.7831 0.6021 0.1558
vn -0.8840 0.4331 0.1758
vn -0.9640 0.1840 0.1918
vn -0.9808 -0.0000 0.1951
vn -0.9640 -0.1840 0.1918
vn -0.8840 -0.4331 0.1758
vn -0.7831 -0.6021 0.1558
vn -0.6677 -0.7325 0.1328
vn -0.5489 -0.8287 0.1092
vn -0.4322 -0.8977 0.0860
vn -0.3198 -0.9454 0.0636
vn -0.2116 -0.9765 0.0421
vn -0.1066 -0.9941 0.0212
vn -0.1086 0.9941 -0.0000
vn -0.2157 0.9765 -0.0000
vn -0.3261 0.9454 -0.0000
vn -0.4407 0.8977 -0.0000
vn -0.5596 0.8287 -0.0000
vn -0.6808 0.7325 -0.0000
vn -0.7984 0.6021 -0.0000
vn -0.9013 0.4331 -0.0000
vn -0.9829 0.1840 -0.0000
vn -1.0000 -0.0000 -0.0000
vn -0.9829 -0.1840 -0.0000
vn -0.9013 -0.4331 -0.0000
vn -0.7984 -0.6021 -0.0000
vn -0.6808 -0.7325 -0.0000
vn -0.5596 -0.8287 -0.0000
vn -0.4407 -0.8977 -0.0000
vn -0.3261 -0.9454 -0.0000
vn -0.2157 -0.9765 -0.0000
vn -0.1086 -0.9941 -0.0000
vn -0.1066 0.9941 -0.0212
vn -0.2116 0.9765 -0.0421
vn -0.3198 0.9454 -0.0636
vn -0.4322 0.8977 -0.0860
vn -0.5489 0.8287 -0.1092
vn -0.6677 0.7325 -0.1328
vn -0.7831 0.6021 -0.1558
vn -0.8840 0.4331 -0.1758
vn -0.9640 0.1840 -0.1918
vn -0.9808 -0.0000 -0.1951
vn -0.9640 -0.1840 -0.1918
vn -0.8840 -0.4331 -0.1758
vn -0.7831 -0.6021 -0.1558
vn -0.6677 -0.7325 -0.1328
vn -0.5489 -0.8287 -0.1092
vn -0.4322 -0.8977 -0.0860
vn -0.3198 -0.9454 -0.0636
vn -0.2116 -0.9765 -0.0421
vn -0.1066 -0.9941 -0.0212
vn -0.1004 0.9941 -0.0416
vn -0.1993 0.9765 -0.0826
vn -0.3012 0.9454 -0.1248
vn -0.4071 0.8977 -0.1686
vn -0.5170 0.8287 -0.2142
vn -0.6290 0.7325 -0.2605
vn -0.7376 0.6021 -0.3055
vn -0.8327 0.4331 -0.3449
vn -0.9081 0.1840 -0.3761
vn -0.9239 -0.0000 -0.3827
vn -0.9081 -0.1840 -0.3761
vn -0.8327 -0.4331 -0.3449
vn -0.7376 -0.6021 -0.3055
vn -0.6290 -0.7325 -0.2605
vn -0.5170 -0.8287 -0.2142
vn -0.4071 -0.8977 -0.1686
vn -0.3012 -0.9454 -0.1248
vn -0.1993 -0.9765 -0.0826
vn -0.1004 -0.9941 -0.0416
vn -0.0903 0.9941 -0.0604
vn -0.1794 0.9765 -0.1199
vn -0.2711 0.9454 -0.1811
vn -0.3664 0.8977 -0.2448
vn -0.4653 0.8287 -0.3109
vn -0.5661 0.7325 -0.3782
vn -0.6639 0.6021 -0.4436
vn -0.7494 0.4331 -0.5007
vn -0.8173 0.1840 -0.5461
vn -0.8315 -0.0000 -0.5556
vn -0.8173 -0.1840 -0.5461
vn -0.7494 -0.4331 -0.5007
vn -0.6639 -0.6021 -0.4436
vn -0.5661 -0.7325 -0.3782
vn -0.4653 -0.8287 -0.3109
vn -0.3664 -0.8977 -0.2448
vn -0.2711 -0.9454 -0.1811
vn -0.1794 -0.9765 -0.1199
vn -0.0903 -0.9941 -0.0604
vn -0.0768 0.9941 -0.0768
vn -0.1525 0.9765 -0.1525
vn -0.2306 0.9454 -0.2306
vn -0.3116 0.8977 -0.3116
vn -0.3957 0.8287 -0.3957
vn -0.4814 0.7325 -0.4814
vn -0.5646 0.6021 -0.5646
vn -0.6373 0.4331 -0.6373
vn -0.6950 0.1840 -0.6950
vn -0.7071 -0.0000 -0.7071
vn -0.6950 -0.1840 -0.6950
vn -0.6373 -0.4331 -0.6373
vn -0.5646 -0.6021 -0.5646
vn -0.4814 -0.7325 -0.4814
vn -0.3957 -0.8287 -0.3957
vn -0.3116 -0.8977 -0.3116
vn -0.2306 -0.9454 -0.2306
vn -0.1525 -0.9765 -0.1525
vn -0.0768 -0.9941 -0.0768
vn -0.0604 0.9941 -0.0903
vn -0.1199 0.9765 -0.1794
vn -0.1811 0.9454 -0.2711
vn -0.2448 0.8977 -0.3664
vn -0.3109 0.8287 -0.4653
vn -0.3782 0.7325 -0.5661
vn -0.4436 0.6021 -0.6639
vn -0.5007 0.4331 -0.7494
vn -0.5461 0.1840 -0.8173
vn -0.5556 -0.0000 -0.8315
vn -0.5461 -0.1840 -0.8173
vn -0.5007 -0.4331 -0.7494
vn -0.4436 -0.6021 -0.6639
vn -0.3782 -0.7325 -0.5661
vn -0.3109 -0.8287 -0.4653
vn -0.2448 -0.8977 -0.3664
vn -0.1811 -0.9454 -0.2711
vn -0.1199 -0.9765 -0.1794
vn -0.0604 -0.9941 -0.0903
vn -0.0416 0.9941 -0.1004
vn -0.0826 0.9765 -0.1993
vn -0.1248 0.9454 -0.3012
vn -0.1686 0.8977 -0.4071
vn -0.2142 0.8287 -0.5170
vn -0.2605 0.7325 -0.6290
vn -0.3055 0.6021 -0.7376
vn -0.3449 0.4331 -0.8327
vn -0.3761 0.1840 -0.9081
vn -0.3827 -0.0000 -0.9239
vn -0.3761 -0.1840 -0.9081
vn -0.3449 -0.4331 -0.8327
vn -0.3055 -0.6021 -0.7376
vn -0.2605 -0.7325 -0.6290
vn -0.2142 -0.8287 -0.5170
vn -0.1686 -0.8977 -0.4071
vn -0.1248 -0.9454 -0.3012
vn -0.0826 -0.9765 -0.1993
vn -0.0416 -0.9941 -0.1004
vn -0.0212 0.9941 -0.1066
vn -0.0421 0.9765 -0.2116
vn -0.0636 0.9454 -0.3198
vn -0.0860 0.8977 -0.4322
vn -0.1092 0.8287 -0.5489
vn -0.1328 0.7325 -0.6677
vn -0.1558 0.6021 -0.7831
vn -0.1758 0.4331 -0.8840
vn -0.1918 0.1840 -0.9640
vn -0.1951 -0.0000 -0.9808
vn -0.1918 -0.1840 -0.9640
vn -0.1758 -0.4331 -0.8840
vn -0.1558 -0.6021 -0.7831
vn -0.1328 -0.7325 -0.6677
vn -0.1092 -0.8287 -0.5489
vn -0.0860 -0.8977 -0.4322
vn -0.0636 -0.9454 -0.3198
vn -0.0421 -0.9765 -0.2116
vn -0.0212 -0.9941 -0.1066
vn -0.0000 0.9765 -0.2157
vn -0.0000 0.9454 -0.3261
vn -0.0000 0.8287 -0.5596
vn -0.0000 0.4331 -0.9013
vn -0.0000 -0.0000 -1.0000
vn -0.0000 -0.1840 -0.9829
vn -0.0000 -0.8977 -0.4407
vn -0.0000 -0.9454 -0.3261
vt 0.750000 0.500000
vt 0.718750 0.450000
vt 0.750000 0.450000
vt 0.750000 0.800000
vt 0.718750 0.850000
vt 0.718750 0.800000
vt 0.750000 0.050000
vt 0.718750 0.100000
vt 0.718750 0.050000
vt 0.718750 0.400000
vt 0.750000 0.400000
vt 0.750000 0.750000
vt 0.718750 0.750000
vt 0.734375 0.000000
vt 0.718750 0.350000
vt 0.750000 0.350000
vt 0.718750 0.700000
vt 0.750000 0.700000
vt 0.750000 0.300000
vt 0.718750 0.300000
vt 0.718750 0.650000
vt 0.750000 0.650000
vt 0.750000 0.250000
vt 0.718750 0.250000
vt 0.750000 0.600000
vt 0.718750 0.600000
vt 0.750000 0.950000
vt 0.734375 1.000000
vt 0.718750 0.950000
vt 0.718750 0.200000
vt 0.750000 0.200000
vt 0.718750 0.550000
vt 0.750000 0.550000
vt 0.750000 0.900000
vt 0.718750 0.900000
vt 0.718750 0.150000
vt 0.750000 0.150000
vt 0.718750 0.500000
vt 0.750000 0.850000
vt 0.750000 0.100000
vt 0.687500 0.700000
vt 0.687500 0.350000
vt 0.687500 0.300000
vt 0.687500 0.650000
vt 0.687500 0.250000
vt 0.687500 0.600000
vt 0.703125 1.000000
vt 0.687500 0.950000
vt 0.687500 0.200000
vt 0.687500 0.550000
vt 0.687500 0.900000
vt 0.687500 0.150000
vt 0.687500 0.500000
vt 0.687500 0.850000
vt 0.687500 0.100000
vt 0.687500 0.450000
vt 0.687500 0.800000
vt 0.687500 0.050000
vt 0.687500 0.400000
vt 0.687500 0.750000
vt 0.703125 0.000000
vt 0.656250 0.900000
vt 0.656250 0.150000
vt 0.656250 0.500000
vt 0.656250 0.850000
vt 0.656250 0.100000
vt 0.656250 0.450000
vt 0.656250 0.800000
vt 0.656250 0.050000
vt 0.656250 0.400000
vt 0.656250 0.750000
vt 0.671875 0.000000
vt 0.656250 0.350000
vt 0.656250 0.700000
vt 0.656250 0.300000
vt 0.656250 0.650000
vt 0.656250 0.250000
vt 0.656250 0.600000
vt 0.671875 1.000000
vt 0.656250 0.950000
vt 0.656250 0.200000
vt 0.656250 0.550000
vt 0.640625 0.000000
vt 0.625000 0.050000
vt 0.625000 0.400000
vt 0.625000 0.350000
vt 0.625000 0.750000
vt 0.625000 0.700000
vt 0.625000 0.300000
vt 0.625000 0.650000
vt 0.625000 0.250000
vt 0.625000 0.600000
vt 0.640625 1.000000
vt 0.625000 0.950000
vt 0.625000 0.200000
vt 0.625000 0.550000
vt 0.625000 0.900000
vt 0.625000 0.150000
vt 0.625000 0.500000
vt 0.625000 0.850000
vt 0.625000 0.100000
vt 0.625000 0.450000
vt 0.625000 0.800000
vt 0.593750 0.250000
vt 0.593750 0.200000
vt 0.593750 0.550000
vt 0.593750 0.900000
vt 0.593750 0.150000
vt 0.593750 0.500000
vt 0.593750 0.850000
vt 0.593750 0.100000
vt 0.593750 0.450000
vt 0.593750 0.800000
vt 0.593750 0.050000
vt 0.593750 0.400000
vt 0.593750 0.750000
vt 0.609375 0.000000
vt 0.593750 0.350000
vt 0.593750 0.700000
vt 0.593750 0.300000
vt 0.593750 0.650000
vt 0.593750 0.600000
vt 0.609375 1.000000
vt 0.593750 0.950000
vt 0.562500 0.400000
vt 0.562500 0.750000
vt 0.578125 0.000000
vt 0.562500 0.050000
vt 0.562500 0.350000
vt 0.562500 0.700000
vt 0.562500 0.300000
vt 0.562500 0.650000
vt 0.562500 0.250000
vt 0.562500 0.600000
vt 0.578125 1.000000
vt 0.562500 0.950000
vt 0.562500 0.200000
vt 0.562500 0.550000
vt 0.562500 0.900000
vt 0.562500 0.150000
vt 0.562500 0.500000
vt 0.562500 0.850000
vt 0.562500 0.100000
vt 0.562500 0.450000
vt 0.562500 0.800000
vt 0.531250 0.600000
vt 0.546875 1.000000
vt 0.531250 0.950000
vt 0.531250 0.250000
vt 0.531250 0.200000
vt 0.531250 0.550000
vt 0.531250 0.900000
vt 0.531250 0.150000
vt 0.531250 0.500000
vt 0.531250 0.850000
vt 0.531250 0.100000
vt 0.531250 0.450000
vt 0.531250 0.800000
vt 0.531250 0.050000
vt 0.531250 0.400000
vt 0.531250 0.750000
vt 0.546875 0.000000
vt 0.531250 0.350000
vt 0.531250 0.700000
vt 0.531250 0.300000
vt 0.531250 0.650000
vt 0.500000 0.800000
vt 0.500000 0.050000
vt 0.500000 0.400000
vt 0.500000 0.750000
vt 0.515625 0.000000
vt 0.500000 0.350000
vt 0.500000 0.700000
vt 0.500000 0.300000
vt 0.500000 0.650000
vt 0.500000 0.250000
vt 0.500000 0.600000
vt 0.515625 1.000000
vt 0.500000 0.950000
vt 0.500000 0.200000
vt 0.500000 0.550000
vt 0.500000 0.900000
vt 0.500000 0.150000
vt 0.500000 0.500000
vt 0.500000 0.850000
vt 0.500000 0.100000
vt 0.500000 0.450000
vt 0.468750 0.250000
vt 0.468750 0.600000
vt 0.484375 1.000000
vt 0.468750 0.950000
vt 0.468750 0.200000
vt 0.468750 0.550000
vt 0.468750 0.900000
vt 0.468750 0.150000
vt 0.468750 0.500000
vt 0.468750 0.850000
vt 0.468750 0.100000
vt 0.468750 0.450000
vt 0.468750 0.800000
vt 0.468750 0.050000
vt 0.468750 0.400000
vt 0.468750 0.750000
vt 0.484375 0.000000
vt 0.468750 0.350000
vt 0.468750 0.700000
vt 0.468750 0.300000
vt 0.468750 0.650000
vt 0.437500 0.450000
vt 0.437500 0.850000
vt 0.437500 0.800000
vt 0.437500 0.050000
vt 0.437500 0.400000
vt 0.437500 0.750000
vt 0.453125 0.000000
vt 0.437500 0.350000
vt 0.437500 0.700000
vt 0.437500 0.300000
vt 0.437500 0.650000
vt 0.437500 0.250000
vt 0.437500 0.600000
vt 0.453125 1.000000
vt 0.437500 0.950000
vt 0.437500 0.200000
vt 0.437500 0.550000
vt 0.437500 0.900000
vt 0.437500 0.150000
vt 0.437500 0.500000
vt 0.437500 0.100000
vt 0.406250 0.700000
vt 0.406250 0.650000
vt 0.406250 0.250000
vt 0.406250 0.600000
vt 0.421875 1.000000
vt 0.406250 0.950000
vt 0.406250 0.200000
vt 0.406250 0.550000
vt 0.406250 0.900000
vt 0.406250 0.150000
vt 0.406250 0.500000
vt 0.406250 0.850000
vt 0.406250 0.100000
vt 0.406250 0.450000
vt 0.406250 0.800000
vt 0.406250 0.050000
vt 0.406250 0.400000
vt 0.406250 0.750000
vt 0.421875 0.000000
vt 0.406250 0.350000
vt 0.406250 0.300000
vt 0.375000 0.900000
vt 0.375000 0.850000
vt 0.375000 0.100000
vt 0.375000 0.450000
vt 0.375000 0.800000
vt 0.375000 0.050000
vt 0.375000 0.400000
vt 0.375000 0.750000
vt 0.390625 0.000000
vt 0.375000 0.350000
vt 0.375000 0.700000
vt 0.375000 0.300000
vt 0.375000 0.650000
vt 0.375000 0.250000
vt 0.375000 0.600000
vt 0.390625 1.000000
vt 0.375000 0.950000
vt 0.375000 0.200000
vt 0.375000 0.550000
vt 0.375000 0.150000
vt 0.375000 0.500000
vt 0.343750 0.300000
vt 0.343750 0.700000
vt 0.343750 0.650000
vt 0.343750 0.250000
vt 0.343750 0.600000
vt 0.359375 1.000000
vt 0.343750 0.950000
vt 0.343750 0.200000
vt 0.343750 0.550000
vt 0.343750 0.900000
vt 0.343750 0.150000
vt 0.343750 0.500000
vt 0.343750 0.850000
vt 0.343750 0.100000
vt 0.343750 0.450000
vt 0.343750 0.800000
vt 0.343750 0.050000
vt 0.343750 0.400000
vt 0.343750 0.750000
vt 0.359375 0.000000
vt 0.343750 0.350000
vt 0.312500 0.150000
vt 0.312500 0.550000
vt 0.312500 0.500000
vt 0.312500 0.850000
vt 0.312500 0.100000
vt 0.312500 0.450000
vt 0.312500 0.800000
vt 0.312500 0.050000
vt 0.312500 0.400000
vt 0.312500 0.750000
vt 0.328125 0.000000
vt 0.312500 0.350000
vt 0.312500 0.700000
vt 0.312500 0.300000
vt 0.312500 0.650000
vt 0.312500 0.250000
vt 0.312500 0.600000
vt 0.328125 1.000000
vt 0.312500 0.950000
vt 0.312500 0.200000
vt 0.312500 0.900000
vt 0.281250 0.400000
vt 0.281250 0.350000
vt 0.281250 0.750000
vt 0.281250 0.700000
vt 0.281250 0.300000
vt 0.281250 0.650000
vt 0.281250 0.250000
vt 0.281250 0.600000
vt 0.296875 1.000000
vt 0.281250 0.950000
vt 0.281250 0.200000
vt 0.281250 0.550000
vt 0.281250 0.900000
vt 0.281250 0.150000
vt 0.281250 0.500000
vt 0.281250 0.850000
vt 0.281250 0.100000
vt 0.281250 0.450000
vt 0.281250 0.800000
vt 0.281250 0.050000
vt 0.296875 0.000000
vt 0.250000 0.600000
vt 0.250000 0.550000
vt 0.250000 0.950000
vt 0.250000 0.900000
vt 0.250000 0.150000
vt 0.250000 0.500000
vt 0.250000 0.850000
vt 0.250000 0.100000
vt 0.250000 0.450000
vt 0.250000 0.800000
vt 0.250000 0.050000
vt 0.250000 0.400000
vt 0.250000 0.750000
vt 0.265625 0.000000
vt 0.250000 0.350000
vt 0.250000 0.700000
vt 0.250000 0.300000
vt 0.250000 0.650000
vt 0.250000 0.250000
vt 0.265625 1.000000
vt 0.250000 0.200000
vt 0.218750 0.750000
vt 0.234375 0.000000
vt 0.218750 0.050000
vt 0.218750 0.400000
vt 0.218750 0.350000
vt 0.218750 0.700000
vt 0.218750 0.300000
vt 0.218750 0.650000
vt 0.218750 0.250000
vt 0.218750 0.600000
vt 0.234375 1.000000
vt 0.218750 0.950000
vt 0.218750 0.200000
vt 0.218750 0.550000
vt 0.218750 0.900000
vt 0.218750 0.150000
vt 0.218750 0.500000
vt 0.218750 0.850000
vt 0.218750 0.100000
vt 0.218750 0.450000
vt 0.218750 0.800000
vt 0.203125 1.000000
vt 0.187500 0.950000
vt 0.187500 0.250000
vt 0.187500 0.200000
vt 0.187500 0.600000
vt 0.187500 0.550000
vt 0.187500 0.900000
vt 0.187500 0.150000
vt 0.187500 0.500000
vt 0.187500 0.850000
vt 0.187500 0.100000
vt 0.187500 0.450000
vt 0.187500 0.800000
vt 0.187500 0.050000
vt 0.187500 0.400000
vt 0.187500 0.750000
vt 0.203125 0.000000
vt 0.187500 0.350000
vt 0.187500 0.700000
vt 0.187500 0.300000
vt 0.187500 0.650000
vt 0.156250 0.400000
vt 0.156250 0.750000
vt 0.171875 0.000000
vt 0.156250 0.050000
vt 0.156250 0.350000
vt 0.156250 0.700000
vt 0.156250 0.300000
vt 0.156250 0.650000
vt 0.156250 0.250000
vt 0.156250 0.600000
vt 0.171875 1.000000
vt 0.156250 0.950000
vt 0.156250 0.200000
vt 0.156250 0.550000
vt 0.156250 0.900000
vt 0.156250 0.150000
vt 0.156250 0.500000
vt 0.156250 0.850000
vt 0.156250 0.100000
vt 0.156250 0.450000
vt 0.156250 0.800000
vt 0.125000 0.600000
vt 0.140625 1.000000
vt 0.125000 0.950000
vt 0.125000 0.250000
vt 0.125000 0.200000
vt 0.125000 0.550000
vt 0.125000 0.900000
vt 0.125000 0.150000
vt 0.125000 0.500000
vt 0.125000 0.850000
vt 0.125000 0.100000
vt 0.125000 0.450000
vt 0.125000 0.800000
vt 0.125000 0.050000
vt 0.125000 0.400000
vt 0.125000 0.750000
vt 0.140625 0.000000
vt 0.125000 0.350000
vt 0.125000 0.700000
vt 0.125000 0.300000
vt 0.125000 0.650000
vt 0.093750 0.800000
vt 0.093750 0.100000
vt 0.093750 0.050000
vt 0.093750 0.450000
vt 0.093750 0.400000
vt 0.093750 0.750000
vt 0.109375 0.000000
vt 0.093750 0.350000
vt 0.093750 0.700000
vt 0.093750 0.300000
vt 0.093750 0.650000
vt 0.093750 0.250000
vt 0.093750 0.600000
vt 0.109375 1.000000
vt 0.093750 0.950000
vt 0.093750 0.200000
vt 0.093750 0.550000
vt 0.093750 0.900000
vt 0.093750 0.150000
vt 0.093750 0.500000
vt 0.093750 0.850000
vt 0.062500 0.250000
vt 0.062500 0.600000
vt 0.078125 1.000000
vt 0.062500 0.950000
vt 0.062500 0.200000
vt 0.062500 0.550000
vt 0.062500 0.900000
vt 0.062500 0.150000
vt 0.062500 0.500000
vt 0.062500 0.850000
vt 0.062500 0.100000
vt 0.062500 0.450000
vt 0.062500 0.800000
vt 0.062500 0.050000
vt 0.062500 0.400000
vt 0.062500 0.750000
vt 0.078125 0.000000
vt 0.062500 0.350000
vt 0.062500 0.700000
vt 0.062500 0.300000
vt 0.062500 0.650000
vt 0.031250 0.150000
vt 0.031250 0.100000
vt 0.031250 0.450000
vt 0.031250 0.800000
vt 0.031250 0.050000
vt 0.031250 0.400000
vt 0.031250 0.750000
vt 0.046875 0.000000
vt 0.031250 0.350000
vt 0.031250 0.700000
vt 0.031250 0.300000
vt 0.031250 0.650000
vt 0.031250 0.250000
vt 0.031250 0.600000
vt 0.046875 1.000000
vt 0.031250 0.950000
vt 0.031250 0.200000
vt 0.031250 0.550000
vt 0.031250 0.900000
vt 0.031250 0.500000
vt 0.031250 0.850000
vt 0.000000 0.300000
vt 0.000000 0.700000
vt 0.000000 0.650000
vt 0.000000 0.250000
vt 0.000000 0.600000
vt 0.015625 1.000000
vt 0.000000 0.950000
vt 0.000000 0.200000
vt 0.000000 0.550000
vt 0.000000 0.900000
vt 0.000000 0.150000
vt 0.000000 0.500000
vt 0.000000 0.850000
vt 0.000000 0.100000
vt 0.000000 0.450000
vt 0.000000 0.800000
vt 0.000000 0.050000
vt 0.000000 0.400000
vt 0.000000 0.750000
vt 0.015625 0.000000
vt 0.000000 0.350000
vt 1.000000 0.500000
vt 0.968750 0.550000
vt 0.968750 0.500000
vt 1.000000 0.900000
vt 0.968750 0.850000
vt 1.000000 0.850000
vt 1.000000 0.100000
vt 0.968750 0.150000
vt 0.968750 0.100000
vt 0.968750 0.450000
vt 1.000000 0.450000
vt 0.968750 0.800000
vt 1.000000 0.800000
vt 0.968750 0.050000
vt 1.000000 0.050000
vt 0.968750 0.400000
vt 1.000000 0.400000
vt 1.000000 0.750000
vt 0.968750 0.750000
vt 0.984375 0.000000
vt 1.000000 0.350000
vt 0.968750 0.350000
vt 1.000000 0.700000
vt 0.968750 0.700000
vt 0.968750 0.300000
vt 1.000000 0.300000
vt 1.000000 0.650000
vt 0.968750 0.650000
vt 0.968750 0.250000
vt 1.000000 0.250000
vt 0.968750 0.600000
vt 1.000000 0.600000
vt 1.000000 0.950000
vt 0.984375 1.000000
vt 0.968750 0.950000
vt 0.968750 0.200000
vt 1.000000 0.200000
vt 1.000000 0.550000
vt 0.968750 0.900000
vt 1.000000 0.150000
vt 0.937500 0.750000
vt 0.937500 0.700000
vt 0.937500 0.300000
vt 0.937500 0.650000
vt 0.937500 0.250000
vt 0.937500 0.600000
vt 0.953125 1.000000
vt 0.937500 0.950000
vt 0.937500 0.200000
vt 0.937500 0.550000
vt 0.937500 0.900000
vt 0.937500 0.150000
vt 0.937500 0.500000
vt 0.937500 0.850000
vt 0.937500 0.100000
vt 0.937500 0.450000
vt 0.937500 0.800000
vt 0.937500 0.050000
vt 0.937500 0.400000
vt 0.953125 0.000000
vt 0.937500 0.350000
vt 0.906250 0.950000
vt 0.906250 0.900000
vt 0.906250 0.200000
vt 0.906250 0.150000
vt 0.906250 0.550000
vt 0.906250 0.500000
vt 0.906250 0.850000
vt 0.906250 0.100000
vt 0.906250 0.450000
vt 0.906250 0.800000
vt 0.906250 0.050000
vt 0.906250 0.400000
vt 0.906250 0.750000
vt 0.921875 0.000000
vt 0.906250 0.350000
vt 0.906250 0.700000
vt 0.906250 0.300000
vt 0.906250 0.650000
vt 0.906250 0.250000
vt 0.906250 0.600000
vt 0.921875 1.000000
vt 0.875000 0.400000
vt 0.875000 0.350000
vt 0.875000 0.750000
vt 0.875000 0.700000
vt 0.875000 0.300000
vt 0.875000 0.650000
vt 0.875000 0.250000
vt 0.875000 0.600000
vt 0.890625 1.000000
vt 0.875000 0.950000
vt 0.875000 0.200000
vt 0.875000 0.550000
vt 0.875000 0.900000
vt 0.875000 0.150000
vt 0.875000 0.500000
vt 0.875000 0.850000
vt 0.875000 0.100000
vt 0.875000 0.450000
vt 0.875000 0.800000
vt 0.875000 0.050000
vt 0.890625 0.000000
vt 0.843750 0.600000
vt 0.843750 0.550000
vt 0.843750 0.950000
vt 0.843750 0.900000
vt 0.843750 0.200000
vt 0.843750 0.150000
vt 0.843750 0.500000
vt 0.843750 0.850000
vt 0.843750 0.100000
vt 0.843750 0.450000
vt 0.843750 0.800000
vt 0.843750 0.050000
vt 0.843750 0.400000
vt 0.843750 0.750000
vt 0.859375 0.000000
vt 0.843750 0.350000
vt 0.843750 0.700000
vt 0.843750 0.300000
vt 0.843750 0.650000
vt 0.843750 0.250000
vt 0.859375 1.000000
vt 0.812500 0.750000
vt 0.828125 0.000000
vt 0.812500 0.050000
vt 0.812500 0.400000
vt 0.812500 0.350000
vt 0.812500 0.700000
vt 0.812500 0.300000
vt 0.812500 0.650000
vt 0.812500 0.250000
vt 0.812500 0.600000
vt 0.828125 1.000000
vt 0.812500 0.950000
vt 0.812500 0.200000
vt 0.812500 0.550000
vt 0.812500 0.900000
vt 0.812500 0.150000
vt 0.812500 0.500000
vt 0.812500 0.850000
vt 0.812500 0.100000
vt 0.812500 0.450000
vt 0.812500 0.800000
vt 0.796875 1.000000
vt 0.781250 0.950000
vt 0.781250 0.200000
vt 0.781250 0.600000
vt 0.781250 0.550000
vt 0.781250 0.900000
vt 0.781250 0.150000
vt 0.781250 0.500000
vt 0.781250 0.850000
vt 0.781250 0.100000
vt 0.781250 0.450000
vt 0.781250 0.800000
vt 0.781250 0.050000
vt 0.781250 0.400000
vt 0.781250 0.750000
vt 0.796875 0.000000
vt 0.781250 0.350000
vt 0.781250 0.700000
vt 0.781250 0.300000
vt 0.781250 0.650000
vt 0.781250 0.250000
vt 0.765625 0.000000
vt 0.765625 1.000000
s 1
f 607/1/607 24/2/24 608/3/608
f 3/4/3 16/5/16 17/6/17
f 12/7/12 31/8/31 32/9/32
f 608/3/608 25/10/25 7/11/7
f 605/12/605 17/6/17 18/13/18
f 13/14/13 12/7/12 32/9/32
f 7/11/7 26/15/26 8/16/8
f 605/12/605 19/17/19 4/18/4
f 9/19/9 26/15/26 27/20/27
f 4/18/4 20/21/20 5/22/5
f 10/23/10 27/20/27 28/24/28
f 606/25/606 20/21/20 21/26/21
f 2/27/2 1/28/1 14/29/14
f 10/23/10 29/30/29 609/31/609
f 606/25/606 22/32/22 6/33/6
f 603/34/603 14/29/14 15/35/15
f 609/31/609 30/36/30 610/37/610
f 607/1/607 22/32/22 23/38/23
f 604/39/604 15/35/15 16/5/16
f 610/37/610 31/8/31 11/40/11
f 18/13/18 38/41/38 19/17/19
f 27/20/27 45/42/45 46/43/46
f 19/17/19 39/44/39 20/21/20
f 27/20/27 47/45/47 28/24/28
f 20/21/20 40/46/40 21/26/21
f 14/29/14 1/47/1 33/48/33
f 28/24/28 48/49/48 29/30/29
f 22/32/22 40/46/40 41/50/41
f 14/29/14 34/51/34 15/35/15
f 30/36/30 48/49/48 49/52/49
f 22/32/22 42/53/42 23/38/23
f 15/35/15 35/54/35 16/5/16
f 31/8/31 49/52/49 50/55/50
f 23/38/23 43/56/43 24/2/24
f 16/5/16 36/57/36 17/6/17
f 31/8/31 51/58/51 32/9/32
f 24/2/24 44/59/44 25/10/25
f 17/6/17 37/60/37 18/13/18
f 13/61/13 32/9/32 51/58/51
f 26/15/26 44/59/44 45/42/45
f 33/48/33 53/62/53 34/51/34
f 48/49/48 68/63/68 49/52/49
f 41/50/41 61/64/61 42/53/42
f 34/51/34 54/65/54 35/54/35
f 49/52/49 69/66/69 50/55/50
f 42/53/42 62/67/62 43/56/43
f 35/54/35 55/68/55 36/57/36
f 51/58/51 69/66/69 70/69/70
f 43/56/43 63/70/63 44/59/44
f 37/60/37 55/68/55 56/71/56
f 13/72/13 51/58/51 70/69/70
f 45/42/45 63/70/63 64/73/64
f 37/60/37 57/74/57 38/41/38
f 46/43/46 64/73/64 65/75/65
f 38/41/38 58/76/58 39/44/39
f 46/43/46 66/77/66 47/45/47
f 39/44/39 59/78/59 40/46/40
f 33/48/33 1/79/1 52/80/52
f 47/45/47 67/81/67 48/49/48
f 40/46/40 60/82/60 41/50/41
f 13/83/13 70/69/70 89/84/89
f 64/73/64 82/85/82 83/86/83
f 57/74/57 75/87/75 76/88/76
f 64/73/64 84/89/84 65/75/65
f 57/74/57 77/90/77 58/76/58
f 65/75/65 85/91/85 66/77/66
f 58/76/58 78/92/78 59/78/59
f 52/80/52 1/93/1 71/94/71
f 67/81/67 85/91/85 86/95/86
f 59/78/59 79/96/79 60/82/60
f 52/80/52 72/97/72 53/62/53
f 68/63/68 86/95/86 87/98/87
f 61/64/61 79/96/79 80/99/80
f 53/62/53 73/100/73 54/65/54
f 68/63/68 88/101/88 69/66/69
f 61/64/61 81/102/81 62/67/62
f 54/65/54 74/103/74 55/68/55
f 70/69/70 88/101/88 89/84/89
f 62/67/62 82/85/82 63/70/63
f 55/68/55 75/87/75 56/71/56
f 86/95/86 104/104/104 105/105/105
f 78/92/78 98/106/98 79/96/79
f 71/94/71 91/107/91 72/97/72
f 87/98/87 105/105/105 106/108/106
f 80/99/80 98/106/98 99/109/99
f 72/97/72 92/110/92 73/100/73
f 87/98/87 107/111/107 88/101/88
f 80/99/80 100/112/100 81/102/81
f 73/100/73 93/113/93 74/103/74
f 89/84/89 107/111/107 108/114/108
f 81/102/81 101/115/101 82/85/82
f 74/103/74 94/116/94 75/87/75
f 13/117/13 89/84/89 108/114/108
f 83/86/83 101/115/101 102/118/102
f 76/88/76 94/116/94 95/119/95
f 84/89/84 102/118/102 103/120/103
f 76/88/76 96/121/96 77/90/77
f 84/89/84 104/104/104 85/91/85
f 77/90/77 97/122/97 78/92/78
f 71/94/71 1/123/1 90/124/90
f 100/112/100 120/125/120 101/115/101
f 93/113/93 113/126/113 94/116/94
f 13/127/13 108/114/108 127/128/127
f 102/118/102 120/125/120 121/129/121
f 95/119/95 113/126/113 114/130/114
f 102/118/102 122/131/122 103/120/103
f 96/121/96 114/130/114 115/132/115
f 103/120/103 123/133/123 104/104/104
f 96/121/96 116/134/116 97/122/97
f 90/124/90 1/135/1 109/136/109
f 105/105/105 123/133/123 124/137/124
f 98/106/98 116/134/116 117/138/117
f 90/124/90 110/139/110 91/107/91
f 106/108/106 124/137/124 125/140/125
f 99/109/99 117/138/117 118/141/118
f 92/110/92 110/139/110 111/142/111
f 107/111/107 125/140/125 126/143/126
f 99/109/99 119/144/119 100/112/100
f 92/110/92 112/145/112 93/113/93
f 107/111/107 127/128/127 108/114/108
f 115/132/115 135/146/135 116/134/116
f 109/136/109 1/147/1 128/148/128
f 124/137/124 142/149/142 143/150/143
f 117/138/117 135/146/135 136/151/136
f 110/139/110 128/148/128 129/152/129
f 125/140/125 143/150/143 144/153/144
f 117/138/117 137/154/137 118/141/118
f 110/139/110 130/155/130 111/142/111
f 126/143/126 144/153/144 145/156/145
f 118/141/118 138/157/138 119/144/119
f 111/142/111 131/158/131 112/145/112
f 127/128/127 145/156/145 146/159/146
f 119/144/119 139/160/139 120/125/120
f 112/145/112 132/161/132 113/126/113
f 13/162/13 127/128/127 146/159/146
f 121/129/121 139/160/139 140/163/140
f 114/130/114 132/161/132 133/164/133
f 122/131/122 140/163/140 141/165/141
f 114/130/114 134/166/134 115/132/115
f 122/131/122 142/149/142 123/133/123
f 130/155/130 150/167/150 131/158/131
f 145/156/145 165/168/165 146/159/146
f 138/157/138 158/169/158 139/160/139
f 131/158/131 151/170/151 132/161/132
f 13/171/13 146/159/146 165/168/165
f 140/163/140 158/169/158 159/172/159
f 133/164/133 151/170/151 152/173/152
f 141/165/141 159/172/159 160/174/160
f 133/164/133 153/175/153 134/166/134
f 141/165/141 161/176/161 142/149/142
f 134/166/134 154/177/154 135/146/135
f 128/148/128 1/178/1 147/179/147
f 143/150/143 161/176/161 162/180/162
f 136/151/136 154/177/154 155/181/155
f 128/148/128 148/182/148 129/152/129
f 143/150/143 163/183/163 144/153/144
f 136/151/136 156/184/156 137/154/137
f 129/152/129 149/185/149 130/155/130
f 145/156/145 163/183/163 164/186/164
f 137/154/137 157/187/157 138/157/138
f 160/174/160 180/188/180 161/176/161
f 153/175/153 173/189/173 154/177/154
f 147/179/147 1/190/1 166/191/166
f 162/180/162 180/188/180 181/192/181
f 155/181/155 173/189/173 174/193/174
f 147/179/147 167/194/167 148/182/148
f 162/180/162 182/195/182 163/183/163
f 155/181/155 175/196/175 156/184/156
f 148/182/148 168/197/168 149/185/149
f 164/186/164 182/195/182 183/198/183
f 156/184/156 176/199/176 157/187/157
f 150/167/150 168/197/168 169/200/169
f 164/186/164 184/201/184 165/168/165
f 157/187/157 177/202/177 158/169/158
f 150/167/150 170/203/170 151/170/151
f 13/204/13 165/168/165 184/201/184
f 159/172/159 177/202/177 178/205/178
f 152/173/152 170/203/170 171/206/171
f 160/174/160 178/205/178 179/207/179
f 152/173/152 172/208/172 153/175/153
f 175/196/175 195/209/195 176/199/176
f 169/200/169 187/210/187 188/211/188
f 183/198/183 203/212/203 184/201/184
f 176/199/176 196/213/196 177/202/177
f 170/203/170 188/211/188 189/214/189
f 13/215/13 184/201/184 203/212/203
f 178/205/178 196/213/196 197/216/197
f 171/206/171 189/214/189 190/217/190
f 178/205/178 198/218/198 179/207/179
f 172/208/172 190/217/190 191/219/191
f 179/207/179 199/220/199 180/188/180
f 172/208/172 192/221/192 173/189/173
f 166/191/166 1/222/1 185/223/185
f 180/188/180 200/224/200 181/192/181
f 174/193/174 192/221/192 193/225/193
f 167/194/167 185/223/185 186/226/186
f 181/192/181 201/227/201 182/195/182
f 175/196/175 193/225/193 194/228/194
f 168/197/168 186/226/186 187/210/187
f 182/195/182 202/229/202 183/198/183
f 191/219/191 209/230/209 210/231/210
f 198/218/198 218/232/218 199/220/199
f 191/219/191 211/233/211 192/221/192
f 185/223/185 1/234/1 204/235/204
f 200/224/200 218/232/218 219/236/219
f 193/225/193 211/233/211 212/237/212
f 185/223/185 205/238/205 186/226/186
f 201/227/201 219/236/219 220/239/220
f 194/228/194 212/237/212 213/240/213
f 186/226/186 206/241/206 187/210/187
f 201/227/201 221/242/221 202/229/202
f 194/228/194 214/243/214 195/209/195
f 187/210/187 207/244/207 188/211/188
f 202/229/202 222/245/222 203/212/203
f 195/209/195 215/246/215 196/213/196
f 188/211/188 208/247/208 189/214/189
f 13/248/13 203/212/203 222/245/222
f 197/216/197 215/246/215 216/249/216
f 190/217/190 208/247/208 209/230/209
f 197/216/197 217/250/217 198/218/198
f 206/241/206 224/251/224 225/252/225
f 220/239/220 240/253/240 221/242/221
f 213/240/213 233/254/233 214/243/214
f 206/241/206 226/255/226 207/244/207
f 221/242/221 241/256/241 222/245/222
f 214/243/214 234/257/234 215/246/215
f 208/247/208 226/255/226 227/258/227
f 13/259/13 222/245/222 241/256/241
f 216/249/216 234/257/234 235/260/235
f 209/230/209 227/258/227 228/261/228
f 216/249/216 236/262/236 217/250/217
f 210/231/210 228/261/228 229/263/229
f 217/250/217 237/264/237 218/232/218
f 210/231/210 230/265/230 211/233/211
f 204/235/204 1/266/1 223/267/223
f 218/232/218 238/268/238 219/236/219
f 212/237/212 230/265/230 231/269/231
f 205/238/205 223/267/223 224/251/224
f 219/236/219 239/270/239 220/239/220
f 212/237/212 232/271/232 213/240/213
f 235/260/235 255/272/255 236/262/236
f 229/263/229 247/273/247 248/274/248
f 236/262/236 256/275/256 237/264/237
f 229/263/229 249/276/249 230/265/230
f 223/267/223 1/277/1 242/278/242
f 237/264/237 257/279/257 238/268/238
f 231/269/231 249/276/249 250/280/250
f 223/267/223 243/281/243 224/251/224
f 239/270/239 257/279/257 258/282/258
f 232/271/232 250/280/250 251/283/251
f 225/252/225 243/281/243 244/284/244
f 239/270/239 259/285/259 240/253/240
f 232/271/232 252/286/252 233/254/233
f 225/252/225 245/287/245 226/255/226
f 240/253/240 260/288/260 241/256/241
f 233/254/233 253/289/253 234/257/234
f 226/255/226 246/290/246 227/258/227
f 13/291/13 241/256/241 260/288/260
f 235/260/235 253/289/253 254/292/254
f 228/261/228 246/290/246 247/273/247
f 257/279/257 277/293/277 258/282/258
f 251/283/251 269/294/269 270/295/270
f 243/281/243 263/296/263 244/284/244
f 259/285/259 277/293/277 278/297/278
f 251/283/251 271/298/271 252/286/252
f 245/287/245 263/296/263 264/299/264
f 259/285/259 279/300/279 260/288/260
f 252/286/252 272/301/272 253/289/253
f 245/287/245 265/302/265 246/290/246
f 13/303/13 260/288/260 279/300/279
f 254/292/254 272/301/272 273/304/273
f 247/273/247 265/302/265 266/305/266
f 254/292/254 274/306/274 255/272/255
f 248/274/248 266/305/266 267/307/267
f 255/272/255 275/308/275 256/275/256
f 248/274/248 268/309/268 249/276/249
f 242/278/242 1/310/1 261/311/261
f 257/279/257 275/308/275 276/312/276
f 250/280/250 268/309/268 269/294/269
f 243/281/243 261/311/261 262/313/262
f 273/304/273 291/314/291 292/315/292
f 266/305/266 284/316/284 285/317/285
f 273/304/273 293/318/293 274/306/274
f 267/307/267 285/317/285 286/319/286
f 274/306/274 294/320/294 275/308/275
f 267/307/267 287/321/287 268/309/268
f 261/311/261 1/322/1 280/323/280
f 276/312/276 294/320/294 295/324/295
f 269/294/269 287/321/287 288/325/288
f 261/311/261 281/326/281 262/313/262
f 277/293/277 295/324/295 296/327/296
f 270/295/270 288/325/288 289/328/289
f 262/313/262 282/329/282 263/296/263
f 277/293/277 297/330/297 278/297/278
f 270/295/270 290/331/290 271/298/271
f 263/296/263 283/332/283 264/299/264
f 278/297/278 298/333/298 279/300/279
f 271/298/271 291/314/291 272/301/272
f 264/299/264 284/316/284 265/302/265
f 13/334/13 279/300/279 298/333/298
f 288/325/288 306/335/306 307/336/307
f 281/326/281 299/337/299 300/338/300
f 295/324/295 315/339/315 296/327/296
f 289/328/289 307/336/307 308/340/308
f 282/329/282 300/338/300 301/341/301
f 296/327/296 316/342/316 297/330/297
f 289/328/289 309/343/309 290/331/290
f 282/329/282 302/344/302 283/332/283
f 297/330/297 317/345/317 298/333/298
f 290/331/290 310/346/310 291/314/291
f 283/332/283 303/347/303 284/316/284
f 13/348/13 298/333/298 317/345/317
f 292/315/292 310/346/310 311/349/311
f 285/317/285 303/347/303 304/350/304
f 292/315/292 312/351/312 293/318/293
f 286/319/286 304/350/304 305/352/305
f 293/318/293 313/353/313 294/320/294
f 286/319/286 306/335/306 287/321/287
f 280/323/280 1/354/1 299/337/299
f 295/324/295 313/353/313 314/355/314
f 302/344/302 322/356/322 303/347/303
f 13/357/13 317/345/317 336/358/336
f 311/349/311 329/359/329 330/360/330
f 304/350/304 322/356/322 323/361/323
f 311/349/311 331/362/331 312/351/312
f 305/352/305 323/361/323 324/363/324
f 312/351/312 332/364/332 313/353/313
f 305/352/305 325/365/325 306/335/306
f 299/337/299 1/366/1 318/367/318
f 314/355/314 332/364/332 333/368/333
f 307/336/307 325/365/325 326/369/326
f 299/337/299 319/370/319 300/338/300
f 314/355/314 334/371/334 315/339/315
f 308/340/308 326/369/326 327/372/327
f 300/338/300 320/373/320 301/341/301
f 316/342/316 334/371/334 335/374/335
f 308/340/308 328/375/328 309/343/309
f 301/341/301 321/376/321 302/344/302
f 317/345/317 335/374/335 336/358/336
f 309/343/309 329/359/329 310/346/310
f 318/367/318 1/377/1 337/378/337
f 333/368/333 351/379/351 352/380/352
f 326/369/326 344/381/344 345/382/345
f 318/367/318 338/383/338 319/370/319
f 334/371/334 352/380/352 353/384/353
f 327/372/327 345/382/345 346/385/346
f 319/370/319 339/386/339 320/373/320
f 335/374/335 353/384/353 354/387/354
f 327/372/327 347/388/347 328/375/328
f 320/373/320 340/389/340 321/376/321
f 335/374/335 355/390/355 336/358/336
f 328/375/328 348/391/348 329/359/329
f 321/376/321 341/392/341 322/356/322
f 13/393/13 336/358/336 355/390/355
f 330/360/330 348/391/348 349/394/349
f 323/361/323 341/392/341 342/395/342
f 330/360/330 350/396/350 331/362/331
f 324/363/324 342/395/342 343/397/343
f 331/362/331 351/379/351 332/364/332
f 324/363/324 344/381/344 325/365/325
f 347/388/347 367/398/367 348/391/348
f 340/389/340 360/399/360 341/392/341
f 13/400/13 355/390/355 374/401/374
f 349/394/349 367/398/367 368/402/368
f 341/392/341 361/403/361 342/395/342
f 349/394/349 369/404/369 350/396/350
f 342/395/342 362/405/362 343/397/343
f 350/396/350 370/406/370 351/379/351
f 343/397/343 363/407/363 344/381/344
f 337/378/337 1/408/1 356/409/356
f 352/380/352 370/406/370 371/410/371
f 345/382/345 363/407/363 364/411/364
f 337/378/337 357/412/357 338/383/338
f 353/384/353 371/410/371 372/413/372
f 346/385/346 364/411/364 365/414/365
f 338/383/338 358/415/358 339/386/339
f 354/387/354 372/413/372 373/416/373
f 346/385/346 366/417/366 347/388/347
f 339/386/339 359/418/359 340/389/340
f 355/390/355 373/416/373 374/401/374
f 362/405/362 382/419/382 363/407/363
f 356/409/356 1/420/1 375/421/375
f 371/410/371 389/422/389 390/423/390
f 363/407/363 383/424/383 364/411/364
f 357/412/357 375/421/375 376/425/376
f 372/413/372 390/423/390 391/426/391
f 365/414/365 383/424/383 384/427/384
f 357/412/357 377/428/377 358/415/358
f 372/413/372 392/429/392 373/416/373
f 365/414/365 385/430/385 366/417/366
f 358/415/358 378/431/378 359/418/359
f 373/416/373 393/432/393 374/401/374
f 367/398/367 385/430/385 386/433/386
f 359/418/359 379/434/379 360/399/360
f 13/435/13 374/401/374 393/432/393
f 368/402/368 386/433/386 387/436/387
f 361/403/361 379/434/379 380/437/380
f 368/402/368 388/438/388 369/404/369
f 362/405/362 380/437/380 381/439/381
f 369/404/369 389/422/389 370/406/370
f 377/428/377 397/440/397 378/431/378
f 393/432/393 411/441/411 412/442/412
f 386/433/386 404/443/404 405/444/405
f 378/431/378 398/445/398 379/434/379
f 13/446/13 393/432/393 412/442/412
f 387/436/387 405/444/405 406/447/406
f 380/437/380 398/445/398 399/448/399
f 387/436/387 407/449/407 388/438/388
f 381/439/381 399/448/399 400/450/400
f 388/438/388 408/451/408 389/422/389
f 381/439/381 401/452/401 382/419/382
f 375/421/375 1/453/1 394/454/394
f 390/423/390 408/451/408 409/455/409
f 382/419/382 402/456/402 383/424/383
f 375/421/375 395/457/395 376/425/376
f 390/423/390 410/458/410 391/426/391
f 384/427/384 402/456/402 403/459/403
f 376/425/376 396/460/396 377/428/377
f 392/429/392 410/458/410 411/441/411
f 384/427/384 404/443/404 385/430/385
f 407/449/407 427/461/427 408/451/408
f 400/450/400 420/462/420 401/452/401
f 394/454/394 1/463/1 413/464/413
f 409/455/409 427/461/427 428/465/428
f 402/456/402 420/462/420 421/466/421
f 395/457/395 413/464/413 414/467/414
f 410/458/410 428/465/428 429/468/429
f 403/459/403 421/466/421 422/469/422
f 395/457/395 415/470/415 396/460/396
f 411/441/411 429/468/429 430/471/430
f 403/459/403 423/472/423 404/443/404
f 396/460/396 416/473/416 397/440/397
f 411/441/411 431/474/431 412/442/412
f 404/443/404 424/475/424 405/444/405
f 397/440/397 417/476/417 398/445/398
f 13/477/13 412/442/412 431/474/431
f 406/447/406 424/475/424 425/478/425
f 399/448/399 417/476/417 418/479/418
f 406/447/406 426/480/426 407/449/407
f 400/450/400 418/479/418 419/481/419
f 430/471/430 448/482/448 449/483/449
f 422/469/422 442/484/442 423/472/423
f 415/470/415 435/485/435 416/473/416
f 431/474/431 449/483/449 450/486/450
f 423/472/423 443/487/443 424/475/424
f 416/473/416 436/488/436 417/476/417
f 13/489/13 431/474/431 450/486/450
f 425/478/425 443/487/443 444/490/444
f 418/479/418 436/488/436 437/491/437
f 425/478/425 445/492/445 426/480/426
f 419/481/419 437/491/437 438/493/438
f 426/480/426 446/494/446 427/461/427
f 419/481/419 439/495/439 420/462/420
f 413/464/413 1/496/1 432/497/432
f 428/465/428 446/494/446 447/498/447
f 421/466/421 439/495/439 440/499/440
f 413/464/413 433/500/433 414/467/414
f 429/468/429 447/498/447 448/482/448
f 422/469/422 440/499/440 441/501/441
f 414/467/414 434/502/434 415/470/415
f 444/490/444 464/503/464 445/492/445
f 438/493/438 456/504/456 457/505/457
f 445/492/445 465/506/465 446/494/446
f 438/493/438 458/507/458 439/495/439
f 432/497/432 1/508/1 451/509/451
f 447/498/447 465/506/465 466/510/466
f 440/499/440 458/507/458 459/511/459
f 433/500/433 451/509/451 452/512/452
f 448/482/448 466/510/466 467/513/467
f 441/501/441 459/511/459 460/514/460
f 434/502/434 452/512/452 453/515/453
f 448/482/448 468/516/468 449/483/449
f 441/501/441 461/517/461 442/484/442
f 434/502/434 454/518/454 435/485/435
f 449/483/449 469/519/469 450/486/450
f 442/484/442 462/520/462 443/487/443
f 435/485/435 455/521/455 436/488/436
f 13/522/13 450/486/450 469/519/469
f 444/490/444 462/520/462 463/523/463
f 437/491/437 455/521/455 456/504/456
f 460/524/460 478/525/478 479/526/479
f 452/527/452 472/528/472 453/529/453
f 468/530/468 486/531/486 487/532/487
f 460/524/460 480/533/480 461/534/461
f 453/529/453 473/535/473 454/536/454
f 468/530/468 488/537/488 469/538/469
f 461/534/461 481/539/481 462/540/462
f 455/541/455 473/535/473 474/542/474
f 13/543/13 469/538/469 488/537/488
f 463/544/463 481/539/481 482/545/482
f 456/546/456 474/542/474 475/547/475
f 463/544/463 483/548/483 464/549/464
f 457/550/457 475/547/475 476/551/476
f 464/549/464 484/552/484 465/553/465
f 457/550/457 477/554/477 458/555/458
f 451/556/451 1/557/1 470/558/470
f 465/553/465 485/559/485 466/560/466
f 459/561/459 477/554/477 478/525/478
f 452/527/452 470/558/470 471/562/471
f 467/563/467 485/559/485 486/531/486
f 475/547/475 493/564/493 494/565/494
f 482/545/482 502/566/502 483/548/483
f 476/551/476 494/565/494 495/567/495
f 483/548/483 503/568/503 484/552/484
f 476/551/476 496/569/496 477/554/477
f 470/558/470 1/570/1 489/571/489
f 485/559/485 503/568/503 504/572/504
f 478/525/478 496/569/496 497/573/497
f 471/562/471 489/571/489 490/574/490
f 485/559/485 505/575/505 486/531/486
f 479/526/479 497/573/497 498/576/498
f 472/528/472 490/574/490 491/577/491
f 486/531/486 506/578/506 487/532/487
f 479/526/479 499/579/499 480/533/480
f 472/528/472 492/580/492 473/535/473
f 487/532/487 507/581/507 488/537/488
f 480/533/480 500/582/500 481/539/481
f 473/535/473 493/564/493 474/542/474
f 13/583/13 488/537/488 507/581/507
f 482/545/482 500/582/500 501/584/501
f 490/574/490 508/585/508 509/586/509
f 505/575/505 523/587/523 524/588/524
f 498/576/498 516/589/516 517/590/517
f 490/574/490 510/591/510 491/577/491
f 505/575/505 525/592/525 506/578/506
f 498/576/498 518/593/518 499/579/499
f 491/577/491 511/594/511 492/580/492
f 507/581/507 525/592/525 526/595/526
f 499/579/499 519/596/519 500/582/500
f 492/580/492 512/597/512 493/564/493
f 13/598/13 507/581/507 526/595/526
f 501/584/501 519/596/519 520/599/520
f 494/565/494 512/597/512 513/600/513
f 501/584/501 521/601/521 502/566/502
f 495/567/495 513/600/513 514/602/514
f 502/566/502 522/603/522 503/568/503
f 495/567/495 515/604/515 496/569/496
f 489/571/489 1/605/1 508/585/508
f 504/572/504 522/603/522 523/587/523
f 497/573/497 515/604/515 516/589/516
f 520/599/520 538/606/538 539/607/539
f 513/600/513 531/608/531 532/609/532
f 520/599/520 540/610/540 521/601/521
f 514/602/514 532/609/532 533/611/533
f 521/601/521 541/612/541 522/603/522
f 514/602/514 534/613/534 515/604/515
f 508/585/508 1/614/1 527/615/527
f 523/587/523 541/612/541 542/616/542
f 516/589/516 534/613/534 535/617/535
f 509/586/509 527/615/527 528/618/528
f 523/587/523 543/619/543 524/588/524
f 517/590/517 535/617/535 536/620/536
f 510/591/510 528/618/528 529/621/529
f 524/588/524 544/622/544 525/592/525
f 517/590/517 537/623/537 518/593/518
f 510/591/510 530/624/530 511/594/511
f 525/592/525 545/625/545 526/595/526
f 518/593/518 538/606/538 519/596/519
f 511/594/511 531/608/531 512/597/512
f 13/626/13 526/595/526 545/625/545
f 535/617/535 553/627/553 554/628/554
f 528/618/528 546/629/546 547/630/547
f 543/619/543 561/631/561 562/632/562
f 536/620/536 554/628/554 555/633/555
f 528/618/528 548/634/548 529/621/529
f 543/619/543 563/635/563 544/622/544
f 536/620/536 556/636/556 537/623/537
f 529/621/529 549/637/549 530/624/530
f 544/622/544 564/638/564 545/625/545
f 537/623/537 557/639/557 538/606/538
f 530/624/530 550/640/550 531/608/531
f 13/641/13 545/625/545 564/638/564
f 539/607/539 557/639/557 558/642/558
f 532/609/532 550/640/550 551/643/551
f 539/607/539 559/644/559 540/610/540
f 533/611/533 551/643/551 552/645/552
f 540/610/540 560/646/560 541/612/541
f 533/611/533 553/627/553 534/613/534
f 527/615/527 1/647/1 546/629/546
f 541/612/541 561/631/561 542/616/542
f 549/637/549 569/648/569 550/640/550
f 13/649/13 564/638/564 583/650/583
f 558/642/558 576/651/576 577/652/577
f 551/643/551 569/648/569 570/653/570
f 558/642/558 578/654/578 559/644/559
f 552/645/552 570/653/570 571/655/571
f 559/644/559 579/656/579 560/646/560
f 552/645/552 572/657/572 553/627/553
f 546/629/546 1/658/1 565/659/565
f 560/646/560 580/660/580 561/631/561
f 554/628/554 572/657/572 573/661/573
f 547/630/547 565/659/565 566/662/566
f 562/632/562 580/660/580 581/663/581
f 555/633/555 573/661/573 574/664/574
f 548/634/548 566/662/566 567/665/567
f 562/632/562 582/666/582 563/635/563
f 555/633/555 575/667/575 556/636/556
f 548/634/548 568/668/568 549/637/549
f 563/635/563 583/650/583 564/638/564
f 556/636/556 576/651/576 557/639/557
f 565/659/565 1/669/1 584/670/584
f 579/656/579 599/671/599 580/660/580
f 573/661/573 591/672/591 592/673/592
f 565/659/565 585/674/585 566/662/566
f 581/663/581 599/671/599 600/675/600
f 574/664/574 592/673/592 593/676/593
f 567/665/567 585/674/585 586/677/586
f 581/663/581 601/678/601 582/666/582
f 574/664/574 594/679/594 575/667/575
f 567/665/567 587/680/587 568/668/568
f 583/650/583 601/678/601 602/681/602
f 575/667/575 595/682/595 576/651/576
f 568/668/568 588/683/588 569/648/569
f 13/684/13 583/650/583 602/681/602
f 577/652/577 595/682/595 596/685/596
f 570/653/570 588/683/588 589/686/589
f 577/652/577 597/687/597 578/654/578
f 571/655/571 589/686/589 590/688/590
f 578/654/578 598/689/598 579/656/579
f 571/655/571 591/672/591 572/657/572
f 601/678/601 12/7/12 602/681/602
f 594/679/594 7/11/7 595/682/595
f 588/683/588 3/4/3 605/12/605
f 13/690/13 602/681/602 12/7/12
f 595/682/595 8/16/8 596/685/596
f 589/686/589 605/12/605 4/18/4
f 596/685/596 9/19/9 597/687/597
f 590/688/590 4/18/4 5/22/5
f 597/687/597 10/23/10 598/689/598
f 590/688/590 606/25/606 591/672/591
f 584/670/584 1/691/1 2/27/2
f 599/671/599 10/23/10 609/31/609
f 592/673/592 606/25/606 6/33/6
f 585/674/585 2/27/2 603/34/603
f 600/675/600 609/31/609 610/37/610
f 593/676/593 6/33/6 607/1/607
f 585/674/585 604/39/604 586/677/586
f 600/675/600 11/40/11 601/678/601
f 593/676/593 608/3/608 594/679/594
f 587/680/587 604/39/604 3/4/3
f 607/1/607 23/38/23 24/2/24
f 3/4/3 604/39/604 16/5/16
f 12/7/12 11/40/11 31/8/31
f 608/3/608 24/2/24 25/10/25
f 605/12/605 3/4/3 17/6/17
f 7/11/7 25/10/25 26/15/26
f 605/12/605 18/13/18 19/17/19
f 9/19/9 8/16/8 26/15/26
f 4/18/4 19/17/19 20/21/20
f 10/23/10 9/19/9 27/20/27
f 606/25/606 5/22/5 20/21/20
f 10/23/10 28/24/28 29/30/29
f 606/25/606 21/26/21 22/32/22
f 603/34/603 2/27/2 14/29/14
f 609/31/609 29/30/29 30/36/30
f 607/1/607 6/33/6 22/32/22
f 604/39/604 603/34/603 15/35/15
f 610/37/610 30/36/30 31/8/31
f 18/13/18 37/60/37 38/41/38
f 27/20/27 26/15/26 45/42/45
f 19/17/19 38/41/38 39/44/39
f 27/20/27 46/43/46 47/45/47
f 20/21/20 39/44/39 40/46/40
f 28/24/28 47/45/47 48/49/48
f 22/32/22 21/26/21 40/46/40
f 14/29/14 33/48/33 34/51/34
f 30/36/30 29/30/29 48/49/48
f 22/32/22 41/50/41 42/53/42
f 15/35/15 34/51/34 35/54/35
f 31/8/31 30/36/30 49/52/49
f 23/38/23 42/53/42 43/56/43
f 16/5/16 35/54/35 36/57/36
f 31/8/31 50/55/50 51/58/51
f 24/2/24 43/56/43 44/59/44
f 17/6/17 36/57/36 37/60/37
f 26/15/26 25/10/25 44/59/44
f 33/48/33 52/80/52 53/62/53
f 48/49/48 67/81/67 68/63/68
f 41/50/41 60/82/60 61/64/61
f 34/51/34 53/62/53 54/65/54
f 49/52/49 68/63/68 69/66/69
f 42/53/42 61/64/61 62/67/62
f 35/54/35 54/65/54 55/68/55
f 51/58/51 50/55/50 69/66/69
f 43/56/43 62/67/62 63/70/63
f 37/60/37 36/57/36 55/68/55
f 45/42/45 44/59/44 63/70/63
f 37/60/37 56/71/56 57/74/57
f 46/43/46 45/42/45 64/73/64
f 38/41/38 57/74/57 58/76/58
f 46/43/46 65/75/65 66/77/66
f 39/44/39 58/76/58 59/78/59
f 47/45/47 66/77/66 67/81/67
f 40/46/40 59/78/59 60/82/60
f 64/73/64 63/70/63 82/85/82
f 57/74/57 56/71/56 75/87/75
f 64/73/64 83/86/83 84/89/84
f 57/74/57 76/88/76 77/90/77
f 65/75/65 84/89/84 85/91/85
f 58/76/58 77/90/77 78/92/78
f 67/81/67 66/77/66 85/91/85
f 59/78/59 78/92/78 79/96/79
f 52/80/52 71/94/71 72/97/72
f 68/63/68 67/81/67 86/95/86
f 61/64/61 60/82/60 79/96/79
f 53/62/53 72/97/72 73/100/73
f 68/63/68 87/98/87 88/101/88
f 61/64/61 80/99/80 81/102/81
f 54/65/54 73/100/73 74/103/74
f 70/69/70 69/66/69 88/101/88
f 62/67/62 81/102/81 82/85/82
f 55/68/55 74/103/74 75/87/75
f 86/95/86 85/91/85 104/104/104
f 78/92/78 97/122/97 98/106/98
f 71/94/71 90/124/90 91/107/91
f 87/98/87 86/95/86 105/105/105
f 80/99/80 79/96/79 98/106/98
f 72/97/72 91/107/91 92/110/92
f 87/98/87 106/108/106 107/111/107
f 80/99/80 99/109/99 100/112/100
f 73/100/73 92/110/92 93/113/93
f 89/84/89 88/101/88 107/111/107
f 81/102/81 100/112/100 101/115/101
f 74/103/74 93/113/93 94/116/94
f 83/86/83 82/85/82 101/115/101
f 76/88/76 75/87/75 94/116/94
f 84/89/84 83/86/83 102/118/102
f 76/88/76 95/119/95 96/121/96
f 84/89/84 103/120/103 104/104/104
f 77/90/77 96/121/96 97/122/97
f 100/112/100 119/144/119 120/125/120
f 93/113/93 112/145/112 113/126/113
f 102/118/102 101/115/101 120/125/120
f 95/119/95 94/116/94 113/126/113
f 102/118/102 121/129/121 122/131/122
f 96/121/96 95/119/95 114/130/114
f 103/120/103 122/131/122 123/133/123
f 96/121/96 115/132/115 116/134/116
f 105/105/105 104/104/104 123/133/123
f 98/106/98 97/122/97 116/134/116
f 90/124/90 109/136/109 110/139/110
f 106/108/106 105/105/105 124/137/124
f 99/109/99 98/106/98 117/138/117
f 92/110/92 91/107/91 110/139/110
f 107/111/107 106/108/106 125/140/125
f 99/109/99 118/141/118 119/144/119
f 92/110/92 111/142/111 112/145/112
f 107/111/107 126/143/126 127/128/127
f 115/132/115 134/166/134 135/146/135
f 124/137/124 123/133/123 142/149/142
f 117/138/117 116/134/116 135/146/135
f 110/139/110 109/136/109 128/148/128
f 125/140/125 124/137/124 143/150/143
f 117/138/117 136/151/136 137/154/137
f 110/139/110 129/152/129 130/155/130
f 126/143/126 125/140/125 144/153/144
f 118/141/118 137/154/137 138/157/138
f 111/142/111 130/155/130 131/158/131
f 127/128/127 126/143/126 145/156/145
f 119/144/119 138/157/138 139/160/139
f 112/145/112 131/158/131 132/161/132
f 121/129/121 120/125/120 139/160/139
f 114/130/114 113/126/113 132/161/132
f 122/131/122 121/129/121 140/163/140
f 114/130/114 133/164/133 134/166/134
f 122/131/122 141/165/141 142/149/142
f 130/155/130 149/185/149 150/167/150
f 145/156/145 164/186/164 165/168/165
f 138/157/138 157/187/157 158/169/158
f 131/158/131 150/167/150 151/170/151
f 140/163/140 139/160/139 158/169/158
f 133/164/133 132/161/132 151/170/151
f 141/165/141 140/163/140 159/172/159
f 133/164/133 152/173/152 153/175/153
f 141/165/141 160/174/160 161/176/161
f 134/166/134 153/175/153 154/177/154
f 143/150/143 142/149/142 161/176/161
f 136/151/136 135/146/135 154/177/154
f 128/148/128 147/179/147 148/182/148
f 143/150/143 162/180/162 163/183/163
f 136/151/136 155/181/155 156/184/156
f 129/152/129 148/182/148 149/185/149
f 145/156/145 144/153/144 163/183/163
f 137/154/137 156/184/156 157/187/157
f 160/174/160 179/207/179 180/188/180
f 153/175/153 172/208/172 173/189/173
f 162/180/162 161/176/161 180/188/180
f 155/181/155 154/177/154 173/189/173
f 147/179/147 166/191/166 167/194/167
f 162/180/162 181/192/181 182/195/182
f 155/181/155 174/193/174 175/196/175
f 148/182/148 167/194/167 168/197/168
f 164/186/164 163/183/163 182/195/182
f 156/184/156 175/196/175 176/199/176
f 150/167/150 149/185/149 168/197/168
f 164/186/164 183/198/183 184/201/184
f 157/187/157 176/199/176 177/202/177
f 150/167/150 169/200/169 170/203/170
f 159/172/159 158/169/158 177/202/177
f 152/173/152 151/170/151 170/203/170
f 160/174/160 159/172/159 178/205/178
f 152/173/152 171/206/171 172/208/172
f 175/196/175 194/228/194 195/209/195
f 169/200/169 168/197/168 187/210/187
f 183/198/183 202/229/202 203/212/203
f 176/199/176 195/209/195 196/213/196
f 170/203/170 169/200/169 188/211/188
f 178/205/178 177/202/177 196/213/196
f 171/206/171 170/203/170 189/214/189
f 178/205/178 197/216/197 198/218/198
f 172/208/172 171/206/171 190/217/190
f 179/207/179 198/218/198 199/220/199
f 172/208/172 191/219/191 192/221/192
f 180/188/180 199/220/199 200/224/200
f 174/193/174 173/189/173 192/221/192
f 167/194/167 166/191/166 185/223/185
f 181/192/181 200/224/200 201/227/201
f 175/196/175 174/193/174 193/225/193
f 168/197/168 167/194/167 186/226/186
f 182/195/182 201/227/201 202/229/202
f 191/219/191 190/217/190 209/230/209
f 198/218/198 217/250/217 218/232/218
f 191/219/191 210/231/210 211/233/211
f 200/224/200 199/220/199 218/232/218
f 193/225/193 192/221/192 211/233/211
f 185/223/185 204/235/204 205/238/205
f 201/227/201 200/224/200 219/236/219
f 194/228/194 193/225/193 212/237/212
f 186/226/186 205/238/205 206/241/206
f 201/227/201 220/239/220 221/242/221
f 194/228/194 213/240/213 214/243/214
f 187/210/187 206/241/206 207/244/207
f 202/229/202 221/242/221 222/245/222
f 195/209/195 214/243/214 215/246/215
f 188/211/188 207/244/207 208/247/208
f 197/216/197 196/213/196 215/246/215
f 190/217/190 189/214/189 208/247/208
f 197/216/197 216/249/216 217/250/217
f 206/241/206 205/238/205 224/251/224
f 220/239/220 239/270/239 240/253/240
f 213/240/213 232/271/232 233/254/233
f 206/241/206 225/252/225 226/255/226
f 221/242/221 240/253/240 241/256/241
f 214/243/214 233/254/233 234/257/234
f 208/247/208 207/244/207 226/255/226
f 216/249/216 215/246/215 234/257/234
f 209/230/209 208/247/208 227/258/227
f 216/249/216 235/260/235 236/262/236
f 210/231/210 209/230/209 228/261/228
f 217/250/217 236/262/236 237/264/237
f 210/231/210 229/263/229 230/265/230
f 218/232/218 237/264/237 238/268/238
f 212/237/212 211/233/211 230/265/230
f 205/238/205 204/235/204 223/267/223
f 219/236/219 238/268/238 239/270/239
f 212/237/212 231/269/231 232/271/232
f 235/260/235 254/292/254 255/272/255
f 229/263/229 228/261/228 247/273/247
f 236/262/236 255/272/255 256/275/256
f 229/263/229 248/274/248 249/276/249
f 237/264/237 256/275/256 257/279/257
f 231/269/231 230/265/230 249/276/249
f 223/267/223 242/278/242 243/281/243
f 239/270/239 238/268/238 257/279/257
f 232/271/232 231/269/231 250/280/250
f 225/252/225 224/251/224 243/281/243
f 239/270/239 258/282/258 259/285/259
f 232/271/232 251/283/251 252/286/252
f 225/252/225 244/284/244 245/287/245
f 240/253/240 259/285/259 260/288/260
f 233/254/233 252/286/252 253/289/253
f 226/255/226 245/287/245 246/290/246
f 235/260/235 234/257/234 253/289/253
f 228/261/228 227/258/227 246/290/246
f 257/279/257 276/312/276 277/293/277
f 251/283/251 250/280/250 269/294/269
f 243/281/243 262/313/262 263/296/263
f 259/285/259 258/282/258 277/293/277
f 251/283/251 270/295/270 271/298/271
f 245/287/245 244/284/244 263/296/263
f 259/285/259 278/297/278 279/300/279
f 252/286/252 271/298/271 272/301/272
f 245/287/245 264/299/264 265/302/265
f 254/292/254 253/289/253 272/301/272
f 247/273/247 246/290/246 265/302/265
f 254/292/254 273/304/273 274/306/274
f 248/274/248 247/273/247 266/305/266
f 255/272/255 274/306/274 275/308/275
f 248/274/248 267/307/267 268/309/268
f 257/279/257 256/275/256 275/308/275
f 250/280/250 249/276/249 268/309/268
f 243/281/243 242/278/242 261/311/261
f 273/304/273 272/301/272 291/314/291
f 266/305/266 265/302/265 284/316/284
f 273/304/273 292/315/292 293/318/293
f 267/307/267 266/305/266 285/317/285
f 274/306/274 293/318/293 294/320/294
f 267/307/267 286/319/286 287/321/287
f 276/312/276 275/308/275 294/320/294
f 269/294/269 268/309/268 287/321/287
f 261/311/261 280/323/280 281/326/281
f 277/293/277 276/312/276 295/324/295
f 270/295/270 269/294/269 288/325/288
f 262/313/262 281/326/281 282/329/282
f 277/293/277 296/327/296 297/330/297
f 270/295/270 289/328/289 290/331/290
f 263/296/263 282/329/282 283/332/283
f 278/297/278 297/330/297 298/333/298
f 271/298/271 290/331/290 291/314/291
f 264/299/264 283/332/283 284/316/284
f 288/325/288 287/321/287 306/335/306
f 281/326/281 280/323/280 299/337/299
f 295/324/295 314/355/314 315/339/315
f 289/328/289 288/325/288 307/336/307
f 282/329/282 281/326/281 300/338/300
f 296/327/296 315/339/315 316/342/316
f 289/328/289 308/340/308 309/343/309
f 282/329/282 301/341/301 302/344/302
f 297/330/297 316/342/316 317/345/317
f 290/331/290 309/343/309 310/346/310
f 283/332/283 302/344/302 303/347/303
f 292/315/292 291/314/291 310/346/310
f 285/317/285 284/316/284 303/347/303
f 292/315/292 311/349/311 312/351/312
f 286/319/286 285/317/285 304/350/304
f 293/318/293 312/351/312 313/353/313
f 286/319/286 305/352/305 306/335/306
f 295/324/295 294/320/294 313/353/313
f 302/344/302 321/376/321 322/356/322
f 311/349/311 310/346/310 329/359/329
f 304/350/304 303/347/303 322/356/322
f 311/349/311 330/360/330 331/362/331
f 305/352/305 304/350/304 323/361/323
f 312/351/312 331/362/331 332/364/332
f 305/352/305 324/363/324 325/365/325
f 314/355/314 313/353/313 332/364/332
f 307/336/307 306/335/306 325/365/325
f 299/337/299 318/367/318 319/370/319
f 314/355/314 333/368/333 334/371/334
f 308/340/308 307/336/307 326/369/326
f 300/338/300 319/370/319 320/373/320
f 316/342/316 315/339/315 334/371/334
f 308/340/308 327/372/327 328/375/328
f 301/341/301 320/373/320 321/376/321
f 317/345/317 316/342/316 335/374/335
f 309/343/309 328/375/328 329/359/329
f 333/368/333 332/364/332 351/379/351
f 326/369/326 325/365/325 344/381/344
f 318/367/318 337/378/337 338/383/338
f 334/371/334 333/368/333 352/380/352
f 327/372/327 326/369/326 345/382/345
f 319/370/319 338/383/338 339/386/339
f 335/374/335 334/371/334 353/384/353
f 327/372/327 346/385/346 347/388/347
f 320/373/320 339/386/339 340/389/340
f 335/374/335 354/387/354 355/390/355
f 328/375/328 347/388/347 348/391/348
f 321/376/321 340/389/340 341/392/341
f 330/360/330 329/359/329 348/391/348
f 323/361/323 322/356/322 341/392/341
f 330/360/330 349/394/349 350/396/350
f 324/363/324 323/361/323 342/395/342
f 331/362/331 350/396/350 351/379/351
f 324/363/324 343/397/343 344/381/344
f 347/388/347 366/417/366 367/398/367
f 340/389/340 359/418/359 360/399/360
f 349/394/349 348/391/348 367/398/367
f 341/392/341 360/399/360 361/403/361
f 349/394/349 368/402/368 369/404/369
f 342/395/342 361/403/361 362/405/362
f 350/396/350 369/404/369 370/406/370
f 343/397/343 362/405/362 363/407/363
f 352/380/352 351/379/351 370/406/370
f 345/382/345 344/381/344 363/407/363
f 337/378/337 356/409/356 357/412/357
f 353/384/353 352/380/352 371/410/371
f 346/385/346 345/382/345 364/411/364
f 338/383/338 357/412/357 358/415/358
f 354/387/354 353/384/353 372/413/372
f 346/385/346 365/414/365 366/417/366
f 339/386/339 358/415/358 359/418/359
f 355/390/355 354/387/354 373/416/373
f 362/405/362 381/439/381 382/419/382
f 371/410/371 370/406/370 389/422/389
f 363/407/363 382/419/382 383/424/383
f 357/412/357 356/409/356 375/421/375
f 372/413/372 371/410/371 390/423/390
f 365/414/365 364/411/364 383/424/383
f 357/412/357 376/425/376 377/428/377
f 372/413/372 391/426/391 392/429/392
f 365/414/365 384/427/384 385/430/385
f 358/415/358 377/428/377 378/431/378
f 373/416/373 392/429/392 393/432/393
f 367/398/367 366/417/366 385/430/385
f 359/418/359 378/431/378 379/434/379
f 368/402/368 367/398/367 386/433/386
f 361/403/361 360/399/360 379/434/379
f 368/402/368 387/436/387 388/438/388
f 362/405/362 361/403/361 380/437/380
f 369/404/369 388/438/388 389/422/389
f 377/428/377 396/460/396 397/440/397
f 393/432/393 392/429/392 411/441/411
f 386/433/386 385/430/385 404/443/404
f 378/431/378 397/440/397 398/445/398
f 387/436/387 386/433/386 405/444/405
f 380/437/380 379/434/379 398/445/398
f 387/436/387 406/447/406 407/449/407
f 381/439/381 380/437/380 399/448/399
f 388/438/388 407/449/407 408/451/408
f 381/439/381 400/450/400 401/452/401
f 390/423/390 389/422/389 408/451/408
f 382/419/382 401/452/401 402/456/402
f 375/421/375 394/454/394 395/457/395
f 390/423/390 409/455/409 410/458/410
f 384/427/384 383/424/383 402/456/402
f 376/425/376 395/457/395 396/460/396
f 392/429/392 391/426/391 410/458/410
f 384/427/384 403/459/403 404/443/404
f 407/449/407 426/480/426 427/461/427
f 400/450/400 419/481/419 420/462/420
f 409/455/409 408/451/408 427/461/427
f 402/456/402 401/452/401 420/462/420
f 395/457/395 394/454/394 413/464/413
f 410/458/410 409/455/409 428/465/428
f 403/459/403 402/456/402 421/466/421
f 395/457/395 414/467/414 415/470/415
f 411/441/411 410/458/410 429/468/429
f 403/459/403 422/469/422 423/472/423
f 396/460/396 415/470/415 416/473/416
f 411/441/411 430/471/430 431/474/431
f 404/443/404 423/472/423 424/475/424
f 397/440/397 416/473/416 417/476/417
f 406/447/406 405/444/405 424/475/424
f 399/448/399 398/445/398 417/476/417
f 406/447/406 425/478/425 426/480/426
f 400/450/400 399/448/399 418/479/418
f 430/471/430 429/468/429 448/482/448
f 422/469/422 441/501/441 442/484/442
f 415/470/415 434/502/434 435/485/435
f 431/474/431 430/471/430 449/483/449
f 423/472/423 442/484/442 443/487/443
f 416/473/416 435/485/435 436/488/436
f 425/478/425 424/475/424 443/487/443
f 418/479/418 417/476/417 436/488/436
f 425/478/425 444/490/444 445/492/445
f 419/481/419 418/479/418 437/491/437
f 426/480/426 445/492/445 446/494/446
f 419/481/419 438/493/438 439/495/439
f 428/465/428 427/461/427 446/494/446
f 421/466/421 420/462/420 439/495/439
f 413/464/413 432/497/432 433/500/433
f 429/468/429 428/465/428 447/498/447
f 422/469/422 421/466/421 440/499/440
f 414/467/414 433/500/433 434/502/434
f 444/490/444 463/523/463 464/503/464
f 438/493/438 437/491/437 456/504/456
f 445/492/445 464/503/464 465/506/465
f 438/493/438 457/505/457 458/507/458
f 447/498/447 446/494/446 465/506/465
f 440/499/440 439/495/439 458/507/458
f 433/500/433 432/497/432 451/509/451
f 448/482/448 447/498/447 466/510/466
f 441/501/441 440/499/440 459/511/459
f 434/502/434 433/500/433 452/512/452
f 448/482/448 467/513/467 468/516/468
f 441/501/441 460/514/460 461/517/461
f 434/502/434 453/515/453 454/518/454
f 449/483/449 468/516/468 469/519/469
f 442/484/442 461/517/461 462/520/462
f 435/485/435 454/518/454 455/521/455
f 444/490/444 443/487/443 462/520/462
f 437/491/437 436/488/436 455/521/455
f 460/524/460 459/561/459 478/525/478
f 452/527/452 471/562/471 472/528/472
f 468/530/468 467/563/467 486/531/486
f 460/524/460 479/526/479 480/533/480
f 453/529/453 472/528/472 473/535/473
f 468/530/468 487/532/487 488/537/488
f 461/534/461 480/533/480 481/539/481
f 455/541/455 454/536/454 473/535/473
f 463/544/463 462/540/462 481/539/481
f 456/546/456 455/541/455 474/542/474
f 463/544/463 482/545/482 483/548/483
f 457/550/457 456/546/456 475/547/475
f 464/549/464 483/548/483 484/552/484
f 457/550/457 476/551/476 477/554/477
f 465/553/465 484/552/484 485/559/485
f 459/561/459 458/555/458 477/554/477
f 452/527/452 451/556/451 470/558/470
f 467/563/467 466/560/466 485/559/485
f 475/547/475 474/542/474 493/564/493
f 482/545/482 501/584/501 502/566/502
f 476/551/476 475/547/475 494/565/494
f 483/548/483 502/566/502 503/568/503
f 476/551/476 495/567/495 496/569/496
f 485/559/485 484/552/484 503/568/503
f 478/525/478 477/554/477 496/569/496
f 471/562/471 470/558/470 489/571/489
f 485/559/485 504/572/504 505/575/505
f 479/526/479 478/525/478 497/573/497
f 472/528/472 471/562/471 490/574/490
f 486/531/486 505/575/505 506/578/506
f 479/526/479 498/576/498 499/579/499
f 472/528/472 491/577/491 492/580/492
f 487/532/487 506/578/506 507/581/507
f 480/533/480 499/579/499 500/582/500
f 473/535/473 492/580/492 493/564/493
f 482/545/482 481/539/481 500/582/500
f 490/574/490 489/571/489 508/585/508
f 505/575/505 504/572/504 523/587/523
f 498/576/498 497/573/497 516/589/516
f 490/574/490 509/586/509 510/591/510
f 505/575/505 524/588/524 525/592/525
f 498/576/498 517/590/517 518/593/518
f 491/577/491 510/591/510 511/594/511
f 507/581/507 506/578/506 525/592/525
f 499/579/499 518/593/518 519/596/519
f 492/580/492 511/594/511 512/597/512
f 501/584/501 500/582/500 519/596/519
f 494/565/494 493/564/493 512/597/512
f 501/584/501 520/599/520 521/601/521
f 495/567/495 494/565/494 513/600/513
f 502/566/502 521/601/521 522/603/522
f 495/567/495 514/602/514 515/604/515
f 504/572/504 503/568/503 522/603/522
f 497/573/497 496/569/496 515/604/515
f 520/599/520 519/596/519 538/606/538
f 513/600/513 512/597/512 531/608/531
f 520/599/520 539/607/539 540/610/540
f 514/602/514 513/600/513 532/609/532
f 521/601/521 540/610/540 541/612/541
f 514/602/514 533/611/533 534/613/534
f 523/587/523 522/603/522 541/612/541
f 516/589/516 515/604/515 534/613/534
f 509/586/509 508/585/508 527/615/527
f 523/587/523 542/616/542 543/619/543
f 517/590/517 516/589/516 535/617/535
f 510/591/510 509/586/509 528/618/528
f 524/588/524 543/619/543 544/622/544
f 517/590/517 536/620/536 537/623/537
f 510/591/510 529/621/529 530/624/530
f 525/592/525 544/622/544 545/625/545
f 518/593/518 537/623/537 538/606/538
f 511/594/511 530/624/530 531/608/531
f 535/617/535 534/613/534 553/627/553
f 528/618/528 527/615/527 546/629/546
f 543/619/543 542/616/542 561/631/561
f 536/620/536 535/617/535 554/628/554
f 528/618/528 547/630/547 548/634/548
f 543/619/543 562/632/562 563/635/563
f 536/620/536 555/633/555 556/636/556
f 529/621/529 548/634/548 549/637/549
f 544/622/544 563/635/563 564/638/564
f 537/623/537 556/636/556 557/639/557
f 530/624/530 549/637/549 550/640/550
f 539/607/539 538/606/538 557/639/557
f 532/609/532 531/608/531 550/640/550
f 539/607/539 558/642/558 559/644/559
f 533/611/533 532/609/532 551/643/551
f 540/610/540 559/644/559 560/646/560
f 533/611/533 552/645/552 553/627/553
f 541/612/541 560/646/560 561/631/561
f 549/637/549 568/668/568 569/648/569
f 558/642/558 557/639/557 576/651/576
f 551/643/551 550/640/550 569/648/569
f 558/642/558 577/652/577 578/654/578
f 552/645/552 551/643/551 570/653/570
f 559/644/559 578/654/578 579/656/579
f 552/645/552 571/655/571 572/657/572
f 560/646/560 579/656/579 580/660/580
f 554/628/554 553/627/553 572/657/572
f 547/630/547 546/629/546 565/659/565
f 562/632/562 561/631/561 580/660/580
f 555/633/555 554/628/554 573/661/573
f 548/634/548 547/630/547 566/662/566
f 562/632/562 581/663/581 582/666/582
f 555/633/555 574/664/574 575/667/575
f 548/634/548 567/665/567 568/668/568
f 563/635/563 582/666/582 583/650/583
f 556/636/556 575/667/575 576/651/576
f 579/656/579 598/689/598 599/671/599
f 573/661/573 572/657/572 591/672/591
f 565/659/565 584/670/584 585/674/585
f 581/663/581 580/660/580 599/671/599
f 574/664/574 573/661/573 592/673/592
f 567/665/567 566/662/566 585/674/585
f 581/663/581 600/675/600 601/678/601
f 574/664/574 593/676/593 594/679/594
f 567/665/567 586/677/586 587/680/587
f 583/650/583 582/666/582 601/678/601
f 575/667/575 594/679/594 595/682/595
f 568/668/568 587/680/587 588/683/588
f 577/652/577 576/651/576 595/682/595
f 570/653/570 569/648/569 588/683/588
f 577/652/577 596/685/596 597/687/597
f 571/655/571 570/653/570 589/686/589
f 578/654/578 597/687/597 598/689/598
f 571/655/571 590/688/590 591/672/591
f 601/678/601 11/40/11 12/7/12
f 594/679/594 608/3/608 7/11/7
f 588/683/588 587/680/587 3/4/3
f 595/682/595 7/11/7 8/16/8
f 589/686/589 588/683/588 605/12/605
f 596/685/596 8/16/8 9/19/9
f 590/688/590 589/686/589 4/18/4
f 597/687/597 9/19/9 10/23/10
f 590/688/590 5/22/5 606/25/606
f 599/671/599 598/689/598 10/23/10
f 592/673/592 591/672/591 606/25/606
f 585/674/585 584/670/584 2/27/2
f 600/675/600 599/671/599 609/31/609
f 593/676/593 592/673/592 6/33/6
f 585/674/585 603/34/603 604/39/604
f 600/675/600 610/37/610 11/40/11
f 593/676/593 607/1/607 608/3/608
f 587/680/587 586/677/586 604/39/604
