# Blender 5.2.2 LTS
# www.blender.org
o GizmoTorus
v 0.500000 0.000000 0.000000
v 0.470711 0.070711 0.000000
v 0.400000 0.100000 0.000000
v 0.329289 0.070711 0.000000
v 0.300000 0.000000 0.000000
v 0.329289 -0.070711 0.000000
v 0.400000 -0.100000 0.000000
v 0.470711 -0.070711 0.000000
v 0.497592 0.000000 -0.049009
v 0.468444 0.070711 -0.046138
v 0.398074 0.100000 -0.039207
v 0.327704 0.070711 -0.032276
v 0.298555 0.000000 -0.029405
v 0.327704 -0.070711 -0.032276
v 0.398074 -0.100000 -0.039207
v 0.468444 -0.070711 -0.046138
v 0.490393 0.000000 -0.097545
v 0.461666 0.070711 -0.091831
v 0.392314 0.100000 -0.078036
v 0.322962 0.070711 -0.064241
v 0.294236 0.000000 -0.058527
v 0.322962 -0.070711 -0.064241
v 0.392314 -0.100000 -0.078036
v 0.461666 -0.070711 -0.091831
v 0.478470 0.000000 -0.145142
v 0.450442 0.070711 -0.136640
v 0.382776 0.100000 -0.116114
v 0.315110 0.070711 -0.095588
v 0.287082 0.000000 -0.087085
v 0.315110 -0.070711 -0.095588
v 0.382776 -0.100000 -0.116114
v 0.450442 -0.070711 -0.136640
v 0.461940 0.000000 -0.191342
v 0.434880 0.070711 -0.180133
v 0.369552 0.100000 -0.153073
v 0.304224 0.070711 -0.126014
v 0.277164 0.000000 -0.114805
v 0.304224 -0.070711 -0.126014
v 0.369552 -0.100000 -0.153073
v 0.434880 -0.070711 -0.180133
v 0.440961 0.000000 -0.235698
v 0.415130 0.070711 -0.221891
v 0.352769 0.100000 -0.188559
v 0.290407 0.070711 -0.155226
v 0.264576 0.000000 -0.141419
v 0.290407 -0.070711 -0.155226
v 0.352769 -0.100000 -0.188559
v 0.415130 -0.070711 -0.221891
v 0.415735 0.000000 -0.277785
v 0.391382 0.070711 -0.261513
v 0.332588 0.100000 -0.222228
v 0.273794 0.070711 -0.182943
v 0.249441 0.000000 -0.166671
v 0.273794 -0.070711 -0.182943
v 0.332588 -0.100000 -0.222228
v 0.391382 -0.070711 -0.261513
v 0.386505 0.000000 -0.317197
v 0.363864 0.070711 -0.298616
v 0.309204 0.100000 -0.253757
v 0.254544 0.070711 -0.208899
v 0.231903 0.000000 -0.190318
v 0.254544 -0.070711 -0.208899
v 0.309204 -0.100000 -0.253757
v 0.363864 -0.070711 -0.298616
v 0.353553 0.000000 -0.353553
v 0.332843 0.070711 -0.332843
v 0.282843 0.100000 -0.282843
v 0.232843 0.070711 -0.232843
v 0.212132 0.000000 -0.212132
v 0.232843 -0.070711 -0.232843
v 0.282843 -0.100000 -0.282843
v 0.332843 -0.070711 -0.332843
v 0.317197 0.000000 -0.386505
v 0.298616 0.070711 -0.363864
v 0.253757 0.100000 -0.309204
v 0.208899 0.070711 -0.254544
v 0.190318 0.000000 -0.231903
v 0.208899 -0.070711 -0.254544
v 0.253757 -0.100000 -0.309204
v 0.298616 -0.070711 -0.363864
v 0.277785 0.000000 -0.415735
v 0.261513 0.070711 -0.391382
v 0.222228 0.100000 -0.332588
v 0.182943 0.070711 -0.273794
v 0.166671 0.000000 -0.249441
v 0.182943 -0.070711 -0.273794
v 0.222228 -0.100000 -0.332588
v 0.261513 -0.070711 -0.391382
v 0.235698 0.000000 -0.440961
v 0.221892 0.070711 -0.415130
v 0.188559 0.100000 -0.352769
v 0.155226 0.070711 -0.290407
v 0.141419 0.000000 -0.264576
v 0.155226 -0.070711 -0.290407
v 0.188559 -0.100000 -0.352769
v 0.221892 -0.070711 -0.415130
v 0.191342 0.000000 -0.461940
v 0.180133 0.070711 -0.434880
v 0.153073 0.100000 -0.369552
v 0.126014 0.070711 -0.304224
v 0.114805 0.000000 -0.277164
v 0.126014 -0.070711 -0.304224
v 0.153073 -0.100000 -0.369552
v 0.180133 -0.070711 -0.434880
v 0.145142 0.000000 -0.478470
v 0.136640 0.070711 -0.450442
v 0.116114 0.100000 -0.382776
v 0.095588 0.070711 -0.315110
v 0.087085 0.000000 -0.287082
v 0.095588 -0.070711 -0.315110
v 0.116114 -0.100000 -0.382776
v 0.136640 -0.070711 -0.450442
v 0.097545 0.000000 -0.490393
v 0.091831 0.070711 -0.461666
v 0.078036 0.100000 -0.392314
v 0.064241 0.070711 -0.322962
v 0.058527 0.000000 -0.294236
v 0.064241 -0.070711 -0.322962
v 0.078036 -0.100000 -0.392314
v 0.091831 -0.070711 -0.461666
v 0.049009 0.000000 -0.497592
v 0.046138 0.070711 -0.468444
v 0.039207 0.100000 -0.398074
v 0.032276 0.070711 -0.327704
v 0.029405 0.000000 -0.298555
v 0.032276 -0.070711 -0.327704
v 0.039207 -0.100000 -0.398074
v 0.046138 -0.070711 -0.468444
v 0.000000 0.000000 -0.500000
v 0.000000 0.070711 -0.470711
v 0.000000 0.100000 -0.400000
v 0.000000 0.070711 -0.329289
v 0.000000 0.000000 -0.300000
v 0.000000 -0.070711 -0.329289
v 0.000000 -0.100000 -0.400000
v 0.000000 -0.070711 -0.470711
v -0.049009 0.000000 -0.497592
v -0.046138 0.070711 -0.468444
v -0.039207 0.100000 -0.398074
v -0.032276 0.070711 -0.327704
v -0.029405 0.000000 -0.298555
v -0.032276 -0.070711 -0.327704
v -0.039207 -0.100000 -0.398074
v -0.046138 -0.070711 -0.468444
v -0.097545 0.000000 -0.490393
v -0.091831 0.070711 -0.461666
v -0.078036 0.100000 -0.392314
v -0.064241 0.070711 -0.322962
v -0.058527 0.000000 -0.294236
v -0.064241 -0.070711 -0.322962
v -0.078036 -0.100000 -0.392314
v -0.091831 -0.070711 -0.461666
v -0.145142 0.000000 -0.478470
v -0.136640 0.070711 -0.450442
v -0.116114 0.100000 -0.382776
v -0.095588 0.070711 -0.315110
v -0.087085 0.000000 -0.287082
v -0.095588 -0.070711 -0.315110
v -0.116114 -0.100000 -0.382776
v -0.136640 -0.070711 -0.450442
v -0.191342 0.000000 -0.461940
v -0.180133 0.070711 -0.434880
v -0.153073 0.100000 -0.369552
v -0.126014 0.070711 -0.304224
v -0.114805 0.000000 -0.277164
v -0.126014 -0.070711 -0.304224
v -0.153073 -0.100000 -0.369552
v -0.180133 -0.070711 -0.434880
v -0.235698 0.000000 -0.440961
v -0.221891 0.070711 -0.415130
v -0.188559 0.100000 -0.352769
v -0.155226 0.070711 -0.290407
v -0.141419 0.000000 -0.264576
v -0.155226 -0.070711 -0.290407
v -0.188559 -0.100000 -0.352769
v -0.221891 -0.070711 -0.415130
v -0.277785 0.000000 -0.415735
v -0.261513 0.070711 -0.391382
v -0.222228 0.100000 -0.332588
v -0.182943 0.070711 -0.273794
v -0.166671 0.000000 -0.249441
v -0.182943 -0.070711 -0.273794
v -0.222228 -0.100000 -0.332588
v -0.261513 -0.070711 -0.391382
v -0.317197 0.000000 -0.386505
v -0.298616 0.070711 -0.363864
v -0.253757 0.100000 -0.309204
v -0.208899 0.070711 -0.254544
v -0.190318 0.000000 -0.231903
v -0.208899 -0.070711 -0.254544
v -0.253757 -0.100000 -0.309204
v -0.298616 -0.070711 -0.363864
v -0.353553 0.000000 -0.353553
v -0.332843 0.070711 -0.332843
v -0.282843 0.100000 -0.282843
v -0.232843 0.070711 -0.232843
v -0.212132 0.000000 -0.212132
v -0.232843 -0.070711 -0.232843
v -0.282843 -0.100000 -0.282843
v -0.332843 -0.070711 -0.332843
v -0.386505 0.000000 -0.317197
v -0.363864 0.070711 -0.298616
v -0.309204 0.100000 -0.253757
v -0.254544 0.070711 -0.208899
v -0.231903 0.000000 -0.190318
v -0.254544 -0.070711 -0.208899
v -0.309204 -0.100000 -0.253757
v -0.363864 -0.070711 -0.298616
v -0.415735 0.000000 -0.277785
v -0.391382 0.070711 -0.261513
v -0.332588 0.100000 -0.222228
v -0.273794 0.070711 -0.182943
v -0.249441 0.000000 -0.166671
v -0.273794 -0.070711 -0.182943
v -0.332588 -0.100000 -0.222228
v -0.391382 -0.070711 -0.261513
v -0.440961 0.000000 -0.235698
v -0.415130 0.070711 -0.221891
v -0.352769 0.100000 -0.188559
v -0.290407 0.070711 -0.155226
v -0.264576 0.000000 -0.141419
v -0.290407 -0.070711 -0.155226
v -0.352769 -0.100000 -0.188559
v -0.415130 -0.070711 -0.221891
v -0.461940 0.000000 -0.191342
v -0.434880 0.070711 -0.180133
v -0.369552 0.100000 -0.153073
v -0.304224 0.070711 -0.126014
v -0.277164 0.000000 -0.114805
v -0.304224 -0.070711 -0.126014
v -0.369552 -0.100000 -0.153073
v -0.434880 -0.070711 -0.180133
v -0.478470 0.000000 -0.145142
v -0.450442 0.070711 -0.136640
v -0.382776 0.100000 -0.116114
v -0.315110 0.070711 -0.095588
v -0.287082 0.000000 -0.087085
v -0.315110 -0.070711 -0.095588
v -0.382776 -0.100000 -0.116114
v -0.450442 -0.070711 -0.136640
v -0.490393 0.000000 -0.097545
v -0.461666 0.070711 -0.091831
v -0.392314 0.100000 -0.078036
v -0.322962 0.070711 -0.064241
v -0.294236 0.000000 -0.058527
v -0.322962 -0.070711 -0.064241
v -0.392314 -0.100000 -0.078036
v -0.461666 -0.070711 -0.091831
v -0.497592 0.000000 -0.049008
v -0.468444 0.070711 -0.046138
v -0.398074 0.100000 -0.039207
v -0.327704 0.070711 -0.032276
v -0.298555 0.000000 -0.029405
v -0.327704 -0.070711 -0.032276
v -0.398074 -0.100000 -0.039207
v -0.468444 -0.070711 -0.046138
v -0.500000 0.000000 -0.000000
v -0.470711 0.070711 -0.000000
v -0.400000 0.100000 -0.000000
v -0.329289 0.070711 -0.000000
v -0.300000 0.000000 -0.000000
v -0.329289 -0.070711 -0.000000
v -0.400000 -0.100000 -0.000000
v -0.470711 -0.070711 -0.000000
v -0.497592 0.000000 0.049008
v -0.468444 0.070711 0.046138
v -0.398074 0.100000 0.039207
v -0.327704 0.070711 0.032276
v -0.298555 0.000000 0.029405
v -0.327704 -0.070711 0.032276
v -0.398074 -0.100000 0.039207
v -0.468444 -0.070711 0.046138
v -0.490393 0.000000 0.097545
v -0.461666 0.070711 0.091831
v -0.392314 0.100000 0.078036
v -0.322962 0.070711 0.064241
v -0.294236 0.000000 0.058527
v -0.322962 -0.070711 0.064241
v -0.392314 -0.100000 0.078036
v -0.461666 -0.070711 0.091831
v -0.478470 0.000000 0.145142
v -0.450442 0.070711 0.136640
v -0.382776 0.100000 0.116114
v -0.315110 0.070711 0.095588
v -0.287082 0.000000 0.087085
v -0.315110 -0.070711 0.095588
v -0.382776 -0.100000 0.116114
v -0.450442 -0.070711 0.136640
v -0.461940 0.000000 0.191342
v -0.434880 0.070711 0.180133
v -0.369552 0.100000 0.153073
v -0.304224 0.070711 0.126013
v -0.277164 0.000000 0.114805
v -0.304224 -0.070711 0.126013
v -0.369552 -0.100000 0.153073
v -0.434880 -0.070711 0.180133
v -0.440961 0.000000 0.235698
v -0.415130 0.070711 0.221891
v -0.352769 0.100000 0.188559
v -0.290407 0.070711 0.155226
v -0.264576 0.000000 0.141419
v -0.290407 -0.070711 0.155226
v -0.352769 -0.100000 0.188559
v -0.415130 -0.070711 0.221891
v -0.415735 0.000000 0.277785
v -0.391382 0.070711 0.261513
v -0.332588 0.100000 0.222228
v -0.273794 0.070711 0.182943
v -0.249441 0.000000 0.166671
v -0.273794 -0.070711 0.182943
v -0.332588 -0.100000 0.222228
v -0.391382 -0.070711 0.261513
v -0.386505 0.000000 0.317196
v -0.363864 0.070711 0.298616
v -0.309204 0.100000 0.253757
v -0.254544 0.070711 0.208899
v -0.231903 0.000000 0.190318
v -0.254544 -0.070711 0.208899
v -0.309204 -0.100000 0.253757
v -0.363864 -0.070711 0.298616
v -0.353553 0.000000 0.353553
v -0.332843 0.070711 0.332843
v -0.282843 0.100000 0.282843
v -0.232843 0.070711 0.232843
v -0.212132 0.000000 0.212132
v -0.232843 -0.070711 0.232843
v -0.282843 -0.100000 0.282843
v -0.332843 -0.070711 0.332843
v -0.317197 0.000000 0.386505
v -0.298616 0.070711 0.363864
v -0.253757 0.100000 0.309204
v -0.208899 0.070711 0.254544
v -0.190318 0.000000 0.231903
v -0.208899 -0.070711 0.254544
v -0.253757 -0.100000 0.309204
v -0.298616 -0.070711 0.363864
v -0.277785 0.000000 0.415735
v -0.261513 0.070711 0.391381
v -0.222228 0.100000 0.332588
v -0.182944 0.070711 0.273794
v -0.166671 0.000000 0.249441
v -0.182944 -0.070711 0.273794
v -0.222228 -0.100000 0.332588
v -0.261513 -0.070711 0.391381
v -0.235699 0.000000 0.440961
v -0.221892 0.070711 0.415130
v -0.188559 0.100000 0.352768
v -0.155226 0.070711 0.290407
v -0.141419 0.000000 0.264576
v -0.155226 -0.070711 0.290407
v -0.188559 -0.100000 0.352768
v -0.221892 -0.070711 0.415130
v -0.191342 0.000000 0.461940
v -0.180133 0.070711 0.434880
v -0.153073 0.100000 0.369552
v -0.126014 0.070711 0.304224
v -0.114805 0.000000 0.277164
v -0.126014 -0.070711 0.304224
v -0.153073 -0.100000 0.369552
v -0.180133 -0.070711 0.434880
v -0.145142 0.000000 0.478470
v -0.136640 0.070711 0.450442
v -0.116114 0.100000 0.382776
v -0.095588 0.070711 0.315110
v -0.087085 0.000000 0.287082
v -0.095588 -0.070711 0.315110
v -0.116114 -0.100000 0.382776
v -0.136640 -0.070711 0.450442
v -0.097545 0.000000 0.490393
v -0.091831 0.070711 0.461666
v -0.078036 0.100000 0.392314
v -0.064241 0.070711 0.322962
v -0.058527 0.000000 0.294236
v -0.064241 -0.070711 0.322962
v -0.078036 -0.100000 0.392314
v -0.091831 -0.070711 0.461666
v -0.049009 0.000000 0.497592
v -0.046138 0.070711 0.468444
v -0.039207 0.100000 0.398074
v -0.032276 0.070711 0.327704
v -0.029405 0.000000 0.298555
v -0.032276 -0.070711 0.327704
v -0.039207 -0.100000 0.398074
v -0.046138 -0.070711 0.468444
v 0.000000 0.000000 0.500000
v 0.000000 0.070711 0.470711
v 0.000000 0.100000 0.400000
v 0.000000 0.070711 0.329289
v 0.000000 0.000000 0.300000
v 0.000000 -0.070711 0.329289
v 0.000000 -0.100000 0.400000
v 0.000000 -0.070711 0.470711
v 0.049008 0.000000 0.497592
v 0.046137 0.070711 0.468444
v 0.039207 0.100000 0.398074
v 0.032276 0.070711 0.327704
v 0.029405 0.000000 0.298555
v 0.032276 -0.070711 0.327704
v 0.039207 -0.100000 0.398074
v 0.046137 -0.070711 0.468444
v 0.097545 0.000000 0.490393
v 0.091831 0.070711 0.461666
v 0.078036 0.100000 0.392314
v 0.064241 0.070711 0.322962
v 0.058527 0.000000 0.294236
v 0.064241 -0.070711 0.322962
v 0.078036 -0.100000 0.392314
v 0.091831 -0.070711 0.461666
v 0.145142 0.000000 0.478470
v 0.136640 0.070711 0.450442
v 0.116114 0.100000 0.382776
v 0.095588 0.070711 0.315110
v 0.087085 0.000000 0.287082
v 0.095588 -0.070711 0.315110
v 0.116114 -0.100000 0.382776
v 0.136640 -0.070711 0.450442
v 0.191342 0.000000 0.461940
v 0.180133 0.070711 0.434880
v 0.153073 0.100000 0.369552
v 0.126014 0.070711 0.304224
v 0.114805 0.000000 0.277164
v 0.126014 -0.070711 0.304224
v 0.153073 -0.100000 0.369552
v 0.180133 -0.070711 0.434880
v 0.235698 0.000000 0.440961
v 0.221891 0.070711 0.415130
v 0.188559 0.100000 0.352769
v 0.155226 0.070711 0.290407
v 0.141419 0.000000 0.264576
v 0.155226 -0.070711 0.290407
v 0.188559 -0.100000 0.352769
v 0.221891 -0.070711 0.415130
v 0.277785 0.000000 0.415735
v 0.261513 0.070711 0.391382
v 0.222228 0.100000 0.332588
v 0.182943 0.070711 0.273794
v 0.166671 0.000000 0.249441
v 0.182943 -0.070711 0.273794
v 0.222228 -0.100000 0.332588
v 0.261513 -0.070711 0.391382
v 0.317197 0.000000 0.386505
v 0.298616 0.070711 0.363864
v 0.253757 0.100000 0.309204
v 0.208899 0.070711 0.254544
v 0.190318 0.000000 0.231903
v 0.208899 -0.070711 0.254544
v 0.253757 -0.100000 0.309204
v 0.298616 -0.070711 0.363864
v 0.353553 0.000000 0.353554
v 0.332843 0.070711 0.332843
v 0.282843 0.100000 0.282843
v 0.232843 0.070711 0.232843
v 0.212132 0.000000 0.212132
v 0.232843 -0.070711 0.232843
v 0.282843 -0.100000 0.282843
v 0.332843 -0.070711 0.332843
v 0.386505 0.000000 0.317197
v 0.363864 0.070711 0.298616
v 0.309204 0.100000 0.253757
v 0.254544 0.070711 0.208899
v 0.231903 0.000000 0.190318
v 0.254544 -0.070711 0.208899
v 0.309204 -0.100000 0.253757
v 0.363864 -0.070711 0.298616
v 0.415735 0.000000 0.277785
v 0.391382 0.070711 0.261513
v 0.332588 0.100000 0.222228
v 0.273794 0.070711 0.182943
v 0.249441 0.000000 0.166671
v 0.273794 -0.070711 0.182943
v 0.332588 -0.100000 0.222228
v 0.391382 -0.070711 0.261513
v 0.440961 0.000000 0.235698
v 0.415130 0.070711 0.221891
v 0.352769 0.100000 0.188559
v 0.290407 0.070711 0.155226
v 0.264576 0.000000 0.141419
v 0.290407 -0.070711 0.155226
v 0.352769 -0.100000 0.188559
v 0.415130 -0.070711 0.221891
v 0.461940 0.000000 0.191342
v 0.434880 0.070711 0.180133
v 0.369552 0.100000 0.153074
v 0.304224 0.070711 0.126014
v 0.277164 0.000000 0.114805
v 0.304224 -0.070711 0.126014
v 0.369552 -0.100000 0.153074
v 0.434880 -0.070711 0.180133
v 0.478470 0.000000 0.145142
v 0.450442 0.070711 0.136640
v 0.382776 0.100000 0.116114
v 0.315110 0.070711 0.095588
v 0.287082 0.000000 0.087085
v 0.315110 -0.070711 0.095588
v 0.382776 -0.100000 0.116114
v 0.450442 -0.070711 0.136640
v 0.490393 0.000000 0.097545
v 0.461666 0.070711 0.091831
v 0.392314 0.100000 0.078036
v 0.322962 0.070711 0.064241
v 0.294236 0.000000 0.058527
v 0.322962 -0.070711 0.064241
v 0.392314 -0.100000 0.078036
v 0.461666 -0.070711 0.091831
v 0.497592 0.000000 0.049009
v 0.468444 0.070711 0.046138
v 0.398074 0.100000 0.039207
v 0.327704 0.070711 0.032276
v 0.298555 0.000000 0.029405
v 0.327704 -0.070711 0.032276
v 0.398074 -0.100000 0.039207
v 0.468444 -0.070711 0.046138
vn 1.0000 -0.0000 -0.0000
vn 0.7130 0.7012 -0.0000
vn 0.0120 0.9999 -0.0000
vn -0.7010 0.7131 -0.0000
vn -1.0000 -0.0000 -0.0000
vn -0.7010 -0.7131 -0.0000
vn 0.0120 -0.9999 -0.0000
vn 0.7130 -0.7012 -0.0000
vn 0.9952 -0.0000 -0.0980
vn 0.7096 0.7012 -0.0699
vn 0.0119 0.9999 -0.0012
vn -0.6977 0.7131 0.0687
vn -0.9952 -0.0000 0.0980
vn -0.6977 -0.7131 0.0687
vn 0.0119 -0.9999 -0.0012
vn 0.7096 -0.7012 -0.0699
vn 0.9808 -0.0000 -0.1951
vn 0.6993 0.7012 -0.1391
vn 0.0117 0.9999 -0.0023
vn -0.6876 0.7131 0.1368
vn -0.9808 -0.0000 0.1951
vn -0.6876 -0.7131 0.1368
vn 0.0117 -0.9999 -0.0023
vn 0.6993 -0.7012 -0.1391
vn 0.9569 -0.0000 -0.2903
vn 0.6823 0.7012 -0.2070
vn 0.0114 0.9999 -0.0035
vn -0.6708 0.7131 0.2035
vn -0.9569 -0.0000 0.2903
vn -0.6708 -0.7131 0.2035
vn 0.0114 -0.9999 -0.0035
vn 0.6823 -0.7012 -0.2070
vn 0.9239 -0.0000 -0.3827
vn 0.6587 0.7012 -0.2728
vn 0.0110 0.9999 -0.0046
vn -0.6477 0.7131 0.2683
vn -0.9239 -0.0000 0.3827
vn -0.6477 -0.7131 0.2683
vn 0.0110 -0.9999 -0.0046
vn 0.6587 -0.7012 -0.2728
vn 0.8819 -0.0000 -0.4714
vn 0.6288 0.7012 -0.3361
vn 0.0105 0.9999 -0.0056
vn -0.6183 0.7131 0.3305
vn -0.8819 -0.0000 0.4714
vn -0.6183 -0.7131 0.3305
vn 0.0105 -0.9999 -0.0056
vn 0.6288 -0.7012 -0.3361
vn 0.8315 -0.0000 -0.5556
vn 0.5928 0.7012 -0.3961
vn 0.0099 0.9999 -0.0066
vn -0.5829 0.7131 0.3895
vn -0.8315 -0.0000 0.5556
vn -0.5829 -0.7131 0.3895
vn 0.0099 -0.9999 -0.0066
vn 0.5928 -0.7012 -0.3961
vn 0.7730 -0.0000 -0.6344
vn 0.5511 0.7012 -0.4523
vn 0.0092 0.9999 -0.0076
vn -0.5419 0.7131 0.4447
vn -0.7730 -0.0000 0.6344
vn -0.5419 -0.7131 0.4447
vn 0.0092 -0.9999 -0.0076
vn 0.5511 -0.7012 -0.4523
vn 0.7071 -0.0000 -0.7071
vn 0.5042 0.7012 -0.5042
vn 0.0085 0.9999 -0.0085
vn -0.4957 0.7131 0.4957
vn -0.7071 -0.0000 0.7071
vn -0.4957 -0.7131 0.4957
vn 0.0085 -0.9999 -0.0085
vn 0.5042 -0.7012 -0.5042
vn 0.6344 -0.0000 -0.7730
vn 0.4523 0.7012 -0.5511
vn 0.0076 0.9999 -0.0092
vn -0.4447 0.7131 0.5419
vn -0.6344 -0.0000 0.7730
vn -0.4447 -0.7131 0.5419
vn 0.0076 -0.9999 -0.0092
vn 0.4523 -0.7012 -0.5511
vn 0.5556 -0.0000 -0.8315
vn 0.3961 0.7012 -0.5928
vn 0.0066 0.9999 -0.0099
vn -0.3895 0.7131 0.5829
vn -0.5556 -0.0000 0.8315
vn -0.3895 -0.7131 0.5829
vn 0.0066 -0.9999 -0.0099
vn 0.3961 -0.7012 -0.5928
vn 0.4714 -0.0000 -0.8819
vn 0.3361 0.7012 -0.6288
vn 0.0056 0.9999 -0.0105
vn -0.3305 0.7131 0.6183
vn -0.4714 -0.0000 0.8819
vn -0.3305 -0.7131 0.6182
vn 0.0056 -0.9999 -0.0105
vn 0.3361 -0.7012 -0.6288
vn 0.3827 -0.0000 -0.9239
vn 0.2728 0.7012 -0.6587
vn 0.0046 0.9999 -0.0110
vn -0.2683 0.7131 0.6477
vn -0.3827 -0.0000 0.9239
vn -0.2683 -0.7131 0.6477
vn 0.0046 -0.9999 -0.0110
vn 0.2728 -0.7012 -0.6587
vn 0.2903 -0.0000 -0.9569
vn 0.2070 0.7012 -0.6823
vn 0.0035 0.9999 -0.0114
vn -0.2035 0.7131 0.6708
vn -0.2903 -0.0000 0.9569
vn -0.2035 -0.7131 0.6708
vn 0.0035 -0.9999 -0.0114
vn 0.2070 -0.7012 -0.6823
vn 0.1951 -0.0000 -0.9808
vn 0.1391 0.7012 -0.6993
vn 0.0023 0.9999 -0.0117
vn -0.1368 0.7131 0.6876
vn -0.1951 -0.0000 0.9808
vn -0.1368 -0.7131 0.6876
vn 0.0023 -0.9999 -0.0117
vn 0.1391 -0.7012 -0.6993
vn 0.0980 -0.0000 -0.9952
vn 0.0699 0.7012 -0.7096
vn 0.0012 0.9999 -0.0119
vn -0.0687 0.7131 0.6977
vn -0.0980 -0.0000 0.9952
vn -0.0687 -0.7131 0.6977
vn 0.0012 -0.9999 -0.0119
vn 0.0699 -0.7012 -0.7096
vn -0.0000 -0.0000 -1.0000
vn -0.0000 0.7012 -0.7130
vn -0.0000 0.9999 -0.0119
vn -0.0000 0.7131 0.7010
vn -0.0000 -0.0000 1.0000
vn -0.0000 -0.7131 0.7010
vn -0.0000 -0.9999 -0.0119
vn -0.0000 -0.7012 -0.7130
vn -0.0980 -0.0000 -0.9952
vn -0.0699 0.7012 -0.7095
vn -0.0012 0.9999 -0.0119
vn 0.0687 0.7131 0.6977
vn 0.0980 -0.0000 0.9952
vn 0.0687 -0.7131 0.6977
vn -0.0012 -0.9999 -0.0119
vn -0.0699 -0.7012 -0.7096
vn -0.1951 -0.0000 -0.9808
vn -0.1391 0.7012 -0.6993
vn -0.0023 0.9999 -0.0117
vn 0.1368 0.7131 0.6876
vn 0.1951 -0.0000 0.9808
vn 0.1368 -0.7131 0.6876
vn -0.0023 -0.9999 -0.0117
vn -0.1391 -0.7012 -0.6993
vn -0.2903 -0.0000 -0.9569
vn -0.2070 0.7012 -0.6823
vn -0.0035 0.9999 -0.0114
vn 0.2035 0.7131 0.6708
vn 0.2903 -0.0000 0.9569
vn 0.2035 -0.7131 0.6708
vn -0.0035 -0.9999 -0.0114
vn -0.2070 -0.7012 -0.6823
vn -0.3827 -0.0000 -0.9239
vn -0.2728 0.7012 -0.6587
vn -0.0046 0.9999 -0.0111
vn 0.2683 0.7131 0.6477
vn 0.3827 -0.0000 0.9239
vn 0.2683 -0.7131 0.6477
vn -0.0046 -0.9999 -0.0111
vn -0.2729 -0.7012 -0.6587
vn -0.4714 -0.0000 -0.8819
vn -0.3361 0.7012 -0.6288
vn -0.0056 0.9999 -0.0105
vn 0.3305 0.7131 0.6183
vn 0.4714 -0.0000 0.8819
vn 0.3305 -0.7131 0.6182
vn -0.0056 -0.9999 -0.0105
vn -0.3361 -0.7012 -0.6288
vn -0.5556 -0.0000 -0.8315
vn -0.3961 0.7012 -0.5928
vn -0.0066 0.9999 -0.0099
vn 0.3895 0.7131 0.5829
vn 0.5556 -0.0000 0.8315
vn 0.3895 -0.7131 0.5829
vn -0.0066 -0.9999 -0.0099
vn -0.3961 -0.7012 -0.5928
vn -0.6344 -0.0000 -0.7730
vn -0.4523 0.7012 -0.5511
vn -0.0076 0.9999 -0.0092
vn 0.4447 0.7131 0.5419
vn 0.6344 -0.0000 0.7730
vn 0.4447 -0.7131 0.5419
vn -0.0076 -0.9999 -0.0092
vn -0.4523 -0.7012 -0.5511
vn -0.7071 -0.0000 -0.7071
vn -0.5042 0.7012 -0.5042
vn -0.0085 0.9999 -0.0085
vn 0.4957 0.7131 0.4957
vn 0.7071 -0.0000 0.7071
vn 0.4957 -0.7131 0.4957
vn -0.0085 -0.9999 -0.0085
vn -0.5042 -0.7012 -0.5042
vn -0.7730 -0.0000 -0.6344
vn -0.5511 0.7012 -0.4523
vn -0.0092 0.9999 -0.0076
vn 0.5419 0.7131 0.4447
vn 0.7730 -0.0000 0.6344
vn 0.5419 -0.7131 0.4447
vn -0.0092 -0.9999 -0.0076
vn -0.5511 -0.7012 -0.4523
vn -0.8315 -0.0000 -0.5556
vn -0.5928 0.7012 -0.3961
vn -0.0099 0.9999 -0.0066
vn 0.5829 0.7131 0.3895
vn 0.8315 -0.0000 0.5556
vn 0.5829 -0.7131 0.3895
vn -0.0099 -0.9999 -0.0066
vn -0.5928 -0.7012 -0.3961
vn -0.8819 -0.0000 -0.4714
vn -0.6288 0.7012 -0.3361
vn -0.0105 0.9999 -0.0056
vn 0.6183 0.7131 0.3305
vn 0.8819 -0.0000 0.4714
vn 0.6183 -0.7131 0.3305
vn -0.0105 -0.9999 -0.0056
vn -0.6288 -0.7012 -0.3361
vn -0.9239 -0.0000 -0.3827
vn -0.6587 0.7012 -0.2728
vn -0.0110 0.9999 -0.0046
vn 0.6477 0.7131 0.2683
vn 0.9239 -0.0000 0.3827
vn 0.6477 -0.7131 0.2683
vn -0.0111 -0.9999 -0.0046
vn -0.6587 -0.7012 -0.2728
vn -0.9569 -0.0000 -0.2903
vn -0.6823 0.7012 -0.2070
vn -0.0114 0.9999 -0.0035
vn 0.6708 0.7131 0.2035
vn 0.9569 -0.0000 0.2903
vn 0.6708 -0.7131 0.2035
vn -0.0114 -0.9999 -0.0035
vn -0.6823 -0.7012 -0.2070
vn -0.9808 -0.0000 -0.1951
vn -0.6993 0.7012 -0.1391
vn -0.0117 0.9999 -0.0023
vn 0.6876 0.7131 0.1368
vn 0.9808 -0.0000 0.1951
vn 0.6876 -0.7131 0.1368
vn -0.0117 -0.9999 -0.0023
vn -0.6993 -0.7012 -0.1391
vn -0.9952 -0.0000 -0.0980
vn -0.7096 0.7012 -0.0699
vn -0.0119 0.9999 -0.0012
vn 0.6977 0.7131 0.0687
vn 0.9952 -0.0000 0.0980
vn 0.6976 -0.7131 0.0687
vn -0.0119 -0.9999 -0.0012
vn -0.7096 -0.7012 -0.0699
vn -0.7130 0.7012 -0.0000
vn -0.0119 0.9999 -0.0000
vn 0.7010 0.7131 -0.0000
vn 0.7010 -0.7131 -0.0000
vn -0.0119 -0.9999 -0.0000
vn -0.7130 -0.7012 -0.0000
vn -0.7096 0.7012 0.0699
vn -0.0119 0.9999 0.0012
vn 0.6976 0.7131 -0.0687
vn 0.6977 -0.7131 -0.0687
vn -0.0119 -0.9999 0.0012
vn -0.7096 -0.7012 0.0699
vn -0.6993 0.7012 0.1391
vn -0.0117 0.9999 0.0023
vn 0.6876 0.7131 -0.1368
vn 0.6876 -0.7131 -0.1368
vn -0.0117 -0.9999 0.0023
vn -0.6993 -0.7012 0.1391
vn -0.6823 0.7012 0.2070
vn -0.0114 0.9999 0.0035
vn 0.6708 0.7131 -0.2035
vn 0.6708 -0.7131 -0.2035
vn -0.0114 -0.9999 0.0035
vn -0.6823 -0.7012 0.2070
vn -0.6587 0.7012 0.2728
vn -0.0111 0.9999 0.0046
vn 0.6477 0.7131 -0.2683
vn 0.6477 -0.7131 -0.2683
vn -0.0110 -0.9999 0.0046
vn -0.6587 -0.7012 0.2728
vn -0.6288 0.7012 0.3361
vn -0.0105 0.9999 0.0056
vn 0.6183 0.7131 -0.3305
vn 0.6182 -0.7131 -0.3305
vn -0.0105 -0.9999 0.0056
vn -0.6288 -0.7012 0.3361
vn -0.5928 0.7012 0.3961
vn -0.0099 0.9999 0.0066
vn 0.5829 0.7131 -0.3895
vn 0.5829 -0.7131 -0.3895
vn -0.0099 -0.9999 0.0066
vn -0.5928 -0.7012 0.3961
vn -0.5511 0.7012 0.4523
vn -0.0092 0.9999 0.0076
vn 0.5419 0.7131 -0.4447
vn 0.5419 -0.7131 -0.4447
vn -0.0092 -0.9999 0.0076
vn -0.5511 -0.7012 0.4523
vn -0.5042 0.7012 0.5042
vn -0.0085 0.9999 0.0085
vn 0.4957 0.7131 -0.4957
vn 0.4957 -0.7131 -0.4957
vn -0.0085 -0.9999 0.0085
vn -0.5042 -0.7012 0.5042
vn -0.4523 0.7012 0.5511
vn -0.0076 0.9999 0.0092
vn 0.4447 0.7131 -0.5419
vn 0.4447 -0.7131 -0.5419
vn -0.0076 -0.9999 0.0092
vn -0.4523 -0.7012 0.5511
vn -0.3961 0.7012 0.5928
vn -0.0066 0.9999 0.0099
vn 0.3895 0.7131 -0.5829
vn 0.3895 -0.7131 -0.5829
vn -0.0066 -0.9999 0.0099
vn -0.3961 -0.7012 0.5928
vn -0.3361 0.7012 0.6288
vn -0.0056 0.9999 0.0105
vn 0.3305 0.7131 -0.6183
vn 0.3305 -0.7131 -0.6183
vn -0.0056 -0.9999 0.0105
vn -0.3361 -0.7012 0.6288
vn -0.2728 0.7012 0.6587
vn -0.0046 0.9999 0.0111
vn 0.2683 0.7131 -0.6477
vn 0.2683 -0.7131 -0.6477
vn -0.0046 -0.9999 0.0110
vn -0.2728 -0.7012 0.6587
vn -0.2070 0.7012 0.6823
vn -0.0035 0.9999 0.0114
vn 0.2035 0.7131 -0.6708
vn 0.2035 -0.7131 -0.6708
vn -0.0035 -0.9999 0.0114
vn -0.2070 -0.7012 0.6823
vn -0.1391 0.7012 0.6993
vn -0.0023 0.9999 0.0117
vn 0.1368 0.7131 -0.6876
vn 0.1368 -0.7131 -0.6876
vn -0.0023 -0.9999 0.0117
vn -0.1391 -0.7012 0.6993
vn -0.0699 0.7012 0.7096
vn -0.0012 0.9999 0.0119
vn 0.0687 0.7131 -0.6977
vn 0.0687 -0.7131 -0.6977
vn -0.0012 -0.9999 0.0119
vn -0.0699 -0.7012 0.7096
vn -0.0000 0.7012 0.7130
vn -0.0000 0.9999 0.0119
vn -0.0000 0.7131 -0.7010
vn -0.0000 -0.7131 -0.7010
vn -0.0000 -0.9999 0.0119
vn -0.0000 -0.7012 0.7130
vn 0.0699 0.7012 0.7096
vn 0.0012 0.9999 0.0119
vn -0.0687 0.7131 -0.6977
vn -0.0687 -0.7131 -0.6976
vn 0.0012 -0.9999 0.0119
vn 0.0699 -0.7012 0.7096
vn 0.1391 0.7012 0.6993
vn 0.0023 0.9999 0.0117
vn -0.1368 0.7131 -0.6876
vn -0.1368 -0.7131 -0.6876
vn 0.0023 -0.9999 0.0117
vn 0.1391 -0.7012 0.6993
vn 0.2070 0.7012 0.6823
vn 0.0035 0.9999 0.0114
vn -0.2035 0.7131 -0.6708
vn -0.2035 -0.7131 -0.6708
vn 0.0035 -0.9999 0.0114
vn 0.2070 -0.7012 0.6823
vn 0.2728 0.7012 0.6587
vn 0.0046 0.9999 0.0110
vn -0.2683 0.7131 -0.6477
vn -0.2683 -0.7131 -0.6477
vn 0.0046 -0.9999 0.0110
vn 0.2728 -0.7012 0.6587
vn 0.3361 0.7012 0.6288
vn 0.0056 0.9999 0.0105
vn -0.3305 0.7131 -0.6183
vn -0.3305 -0.7131 -0.6183
vn 0.0056 -0.9999 0.0105
vn 0.3361 -0.7012 0.6288
vn 0.3961 0.7012 0.5928
vn 0.0066 0.9999 0.0099
vn -0.3895 0.7131 -0.5829
vn -0.3895 -0.7131 -0.5829
vn 0.0066 -0.9999 0.0099
vn 0.3961 -0.7012 0.5928
vn 0.4523 0.7012 0.5511
vn 0.0076 0.9999 0.0092
vn -0.4447 0.7131 -0.5419
vn -0.4447 -0.7131 -0.5419
vn 0.0076 -0.9999 0.0092
vn 0.4523 -0.7012 0.5511
vn 0.5042 0.7012 0.5042
vn 0.0085 0.9999 0.0085
vn -0.4957 0.7131 -0.4957
vn -0.4957 -0.7131 -0.4957
vn 0.0085 -0.9999 0.0085
vn 0.5042 -0.7012 0.5042
vn 0.5511 0.7012 0.4523
vn 0.0092 0.9999 0.0076
vn -0.5419 0.7131 -0.4447
vn -0.5419 -0.7131 -0.4447
vn 0.0092 -0.9999 0.0076
vn 0.5511 -0.7012 0.4523
vn 0.5928 0.7012 0.3961
vn 0.0099 0.9999 0.0066
vn -0.5829 0.7131 -0.3895
vn -0.5829 -0.7131 -0.3895
vn 0.0099 -0.9999 0.0066
vn 0.5928 -0.7012 0.3961
vn 0.6288 0.7012 0.3361
vn 0.0105 0.9999 0.0056
vn -0.6183 0.7131 -0.3305
vn -0.6183 -0.7131 -0.3305
vn 0.0105 -0.9999 0.0056
vn 0.6288 -0.7012 0.3361
vn 0.6587 0.7012 0.2728
vn 0.0110 0.9999 0.0046
vn -0.6477 0.7131 -0.2683
vn -0.6477 -0.7131 -0.2683
vn 0.0111 -0.9999 0.0046
vn 0.6587 -0.7012 0.2728
vn 0.6823 0.7012 0.2070
vn 0.0114 0.9999 0.0035
vn -0.6708 0.7131 -0.2035
vn -0.6708 -0.7131 -0.2035
vn 0.0114 -0.9999 0.0035
vn 0.6823 -0.7012 0.2070
vn 0.6993 0.7012 0.1391
vn 0.0117 0.9999 0.0023
vn -0.6876 0.7131 -0.1368
vn -0.6876 -0.7131 -0.1368
vn 0.0117 -0.9999 0.0023
vn 0.6993 -0.7012 0.1391
vn 0.7096 0.7012 0.0699
vn 0.0119 0.9999 0.0012
vn -0.6976 0.7131 -0.0687
vn -0.6977 -0.7131 -0.0687
vn 0.0119 -0.9999 0.0012
vn 0.7096 -0.7012 0.0699
vt 0.515625 0.500000
vt 0.500000 0.625000
vt 0.500000 0.500000
vt 0.515625 0.625000
vt 0.500000 0.750000
vt 0.515625 0.750000
vt 0.500000 0.875000
vt 0.515625 1.000000
vt 0.500000 1.000000
vt 0.515625 0.000000
vt 0.500000 0.125000
vt 0.500000 0.000000
vt 0.515625 0.250000
vt 0.500000 0.250000
vt 0.515625 0.375000
vt 0.500000 0.375000
vt 0.531250 0.500000
vt 0.531250 0.625000
vt 0.531250 0.875000
vt 0.515625 0.875000
vt 0.531250 0.000000
vt 0.515625 0.125000
vt 0.531250 0.125000
vt 0.531250 0.250000
vt 0.531250 0.375000
vt 0.546875 0.500000
vt 0.546875 0.750000
vt 0.531250 0.750000
vt 0.546875 0.875000
vt 0.531250 1.000000
vt 0.546875 0.000000
vt 0.546875 0.250000
vt 0.562500 0.500000
vt 0.546875 0.625000
vt 0.562500 0.750000
vt 0.562500 0.875000
vt 0.562500 1.000000
vt 0.546875 1.000000
vt 0.562500 0.000000
vt 0.546875 0.125000
vt 0.562500 0.125000
vt 0.562500 0.250000
vt 0.546875 0.375000
vt 0.562500 0.375000
vt 0.578125 0.500000
vt 0.562500 0.625000
vt 0.578125 0.625000
vt 0.578125 0.875000
vt 0.578125 1.000000
vt 0.578125 0.000000
vt 0.578125 0.125000
vt 0.578125 0.375000
vt 0.593750 0.500000
vt 0.593750 0.625000
vt 0.578125 0.750000
vt 0.593750 0.750000
vt 0.593750 0.875000
vt 0.593750 0.125000
vt 0.578125 0.250000
vt 0.593750 0.375000
vt 0.609375 0.500000
vt 0.609375 0.750000
vt 0.609375 0.875000
vt 0.593750 1.000000
vt 0.609375 0.000000
vt 0.593750 0.000000
vt 0.609375 0.125000
vt 0.593750 0.250000
vt 0.609375 0.250000
vt 0.609375 0.375000
vt 0.625000 0.500000
vt 0.609375 0.625000
vt 0.625000 0.625000
vt 0.625000 0.750000
vt 0.625000 0.875000
vt 0.609375 1.000000
vt 0.625000 0.125000
vt 0.625000 0.250000
vt 0.640625 0.625000
vt 0.640625 0.750000
vt 0.640625 0.875000
vt 0.625000 1.000000
vt 0.640625 0.000000
vt 0.625000 0.000000
vt 0.640625 0.250000
vt 0.625000 0.375000
vt 0.640625 0.375000
vt 0.656250 0.500000
vt 0.640625 0.500000
vt 0.656250 0.750000
vt 0.656250 0.875000
vt 0.640625 1.000000
vt 0.656250 0.125000
vt 0.640625 0.125000
vt 0.656250 0.250000
vt 0.656250 0.375000
vt 0.671875 0.500000
vt 0.656250 0.625000
vt 0.671875 0.625000
vt 0.671875 0.750000
vt 0.671875 0.875000
vt 0.656250 1.000000
vt 0.656250 0.000000
vt 0.671875 0.125000
vt 0.671875 0.250000
vt 0.671875 0.375000
vt 0.687500 0.500000
vt 0.687500 0.625000
vt 0.687500 0.750000
vt 0.687500 0.875000
vt 0.671875 1.000000
vt 0.687500 0.000000
vt 0.671875 0.000000
vt 0.687500 0.250000
vt 0.687500 0.375000
vt 0.703125 0.500000
vt 0.703125 0.750000
vt 0.703125 0.875000
vt 0.687500 1.000000
vt 0.703125 0.000000
vt 0.687500 0.125000
vt 0.703125 0.250000
vt 0.703125 0.375000
vt 0.718750 0.625000
vt 0.703125 0.625000
vt 0.718750 0.750000
vt 0.718750 0.875000
vt 0.703125 1.000000
vt 0.718750 0.000000
vt 0.703125 0.125000
vt 0.718750 0.125000
vt 0.718750 0.250000
vt 0.718750 0.500000
vt 0.734375 0.500000
vt 0.734375 0.625000
vt 0.734375 0.750000
vt 0.734375 1.000000
vt 0.718750 1.000000
vt 0.734375 0.000000
vt 0.734375 0.250000
vt 0.734375 0.375000
vt 0.718750 0.375000
vt 0.750000 0.500000
vt 0.750000 0.625000
vt 0.750000 0.875000
vt 0.734375 0.875000
vt 0.750000 0.000000
vt 0.734375 0.125000
vt 0.750000 0.125000
vt 0.750000 0.250000
vt 0.750000 0.375000
vt 0.765625 0.500000
vt 0.765625 0.750000
vt 0.750000 0.750000
vt 0.765625 0.875000
vt 0.750000 1.000000
vt 0.765625 0.000000
vt 0.765625 0.250000
vt 0.765625 0.375000
vt 0.781250 0.500000
vt 0.765625 0.625000
vt 0.781250 0.625000
vt 0.781250 0.750000
vt 0.781250 0.875000
vt 0.765625 1.000000
vt 0.781250 0.125000
vt 0.765625 0.125000
vt 0.781250 0.250000
vt 0.781250 0.375000
vt 0.796875 0.500000
vt 0.796875 0.750000
vt 0.796875 0.875000
vt 0.796875 1.000000
vt 0.781250 1.000000
vt 0.796875 0.000000
vt 0.781250 0.000000
vt 0.796875 0.125000
vt 0.796875 0.250000
vt 0.796875 0.375000
vt 0.812500 0.500000
vt 0.796875 0.625000
vt 0.812500 0.625000
vt 0.812500 0.750000
vt 0.812500 0.875000
vt 0.812500 0.125000
vt 0.812500 0.250000
vt 0.812500 0.375000
vt 0.828125 0.500000
vt 0.828125 0.625000
vt 0.828125 0.875000
vt 0.812500 1.000000
vt 0.812500 0.000000
vt 0.828125 0.125000
vt 0.828125 0.250000
vt 0.843750 0.625000
vt 0.843750 0.750000
vt 0.828125 0.750000
vt 0.843750 0.875000
vt 0.828125 1.000000
vt 0.843750 0.000000
vt 0.828125 0.000000
vt 0.843750 0.250000
vt 0.828125 0.375000
vt 0.843750 0.375000
vt 0.843750 0.500000
vt 0.859375 0.625000
vt 0.859375 0.875000
vt 0.843750 1.000000
vt 0.859375 0.000000
vt 0.843750 0.125000
vt 0.859375 0.125000
vt 0.859375 0.250000
vt 0.859375 0.375000
vt 0.875000 0.500000
vt 0.859375 0.500000
vt 0.875000 0.625000
vt 0.859375 0.750000
vt 0.875000 0.750000
vt 0.875000 0.875000
vt 0.859375 1.000000
vt 0.875000 0.125000
vt 0.875000 0.375000
vt 0.890625 0.625000
vt 0.890625 0.750000
vt 0.890625 0.875000
vt 0.875000 1.000000
vt 0.890625 0.000000
vt 0.875000 0.000000
vt 0.890625 0.125000
vt 0.875000 0.250000
vt 0.890625 0.250000
vt 0.890625 0.375000
vt 0.906250 0.500000
vt 0.890625 0.500000
vt 0.906250 0.625000
vt 0.906250 0.750000
vt 0.906250 0.875000
vt 0.890625 1.000000
vt 0.906250 0.125000
vt 0.906250 0.250000
vt 0.906250 0.375000
vt 0.921875 0.500000
vt 0.921875 0.750000
vt 0.921875 0.875000
vt 0.906250 1.000000
vt 0.921875 0.000000
vt 0.906250 0.000000
vt 0.921875 0.125000
vt 0.921875 0.250000
vt 0.921875 0.375000
vt 0.937500 0.500000
vt 0.921875 0.625000
vt 0.937500 0.625000
vt 0.937500 0.750000
vt 0.937500 0.875000
vt 0.921875 1.000000
vt 0.937500 0.125000
vt 0.937500 0.250000
vt 0.953125 0.500000
vt 0.953125 0.750000
vt 0.953125 1.000000
vt 0.937500 1.000000
vt 0.953125 0.000000
vt 0.937500 0.000000
vt 0.953125 0.125000
vt 0.953125 0.250000
vt 0.937500 0.375000
vt 0.968750 0.500000
vt 0.953125 0.625000
vt 0.968750 0.750000
vt 0.968750 0.875000
vt 0.953125 0.875000
vt 0.968750 0.000000
vt 0.968750 0.125000
vt 0.968750 0.250000
vt 0.953125 0.375000
vt 0.968750 0.375000
vt 0.984375 0.500000
vt 0.968750 0.625000
vt 0.984375 0.625000
vt 0.984375 0.750000
vt 0.984375 0.875000
vt 0.968750 1.000000
vt 0.984375 0.125000
vt 0.984375 0.250000
vt 0.984375 0.375000
vt 1.000000 0.500000
vt 1.000000 0.625000
vt 1.000000 0.875000
vt 0.984375 1.000000
vt 1.000000 0.000000
vt 0.984375 0.000000
vt 1.000000 0.125000
vt 1.000000 0.250000
vt 1.000000 0.375000
vt 0.015625 0.500000
vt 0.000000 0.625000
vt 0.000000 0.500000
vt 0.015625 0.625000
vt 0.000000 0.750000
vt 0.015625 0.750000
vt 0.000000 0.875000
vt 0.015625 0.875000
vt 0.000000 1.000000
vt 0.015625 0.000000
vt 0.000000 0.125000
vt 0.000000 0.000000
vt 0.015625 0.250000
vt 0.000000 0.250000
vt 0.000000 0.375000
vt 0.015625 0.375000
vt 0.031250 0.500000
vt 0.031250 0.750000
vt 0.031250 0.875000
vt 0.031250 1.000000
vt 0.015625 1.000000
vt 0.031250 0.000000
vt 0.015625 0.125000
vt 0.031250 0.125000
vt 0.031250 0.250000
vt 0.031250 0.375000
vt 0.046875 0.500000
vt 0.031250 0.625000
vt 0.046875 0.625000
vt 0.046875 0.750000
vt 0.046875 0.875000
vt 0.046875 0.125000
vt 0.046875 0.250000
vt 0.046875 0.375000
vt 0.062500 0.500000
vt 0.062500 0.625000
vt 0.062500 0.750000
vt 0.062500 0.875000
vt 0.046875 1.000000
vt 0.062500 0.000000
vt 0.046875 0.000000
vt 0.062500 0.125000
vt 0.062500 0.250000
vt 0.062500 0.375000
vt 0.078125 0.500000
vt 0.078125 0.625000
vt 0.078125 0.875000
vt 0.062500 1.000000
vt 0.078125 0.125000
vt 0.078125 0.250000
vt 0.078125 0.375000
vt 0.093750 0.500000
vt 0.093750 0.625000
vt 0.078125 0.750000
vt 0.093750 0.750000
vt 0.093750 0.875000
vt 0.078125 1.000000
vt 0.093750 0.000000
vt 0.078125 0.000000
vt 0.093750 0.250000
vt 0.093750 0.375000
vt 0.109375 0.500000
vt 0.109375 0.750000
vt 0.109375 0.875000
vt 0.093750 1.000000
vt 0.109375 0.000000
vt 0.093750 0.125000
vt 0.109375 0.125000
vt 0.109375 0.250000
vt 0.109375 0.375000
vt 0.125000 0.500000
vt 0.109375 0.625000
vt 0.125000 0.625000
vt 0.125000 0.750000
vt 0.125000 0.875000
vt 0.109375 1.000000
vt 0.125000 0.125000
vt 0.125000 0.250000
vt 0.140625 0.500000
vt 0.140625 0.750000
vt 0.140625 0.875000
vt 0.140625 1.000000
vt 0.125000 1.000000
vt 0.140625 0.000000
vt 0.125000 0.000000
vt 0.140625 0.125000
vt 0.140625 0.250000
vt 0.125000 0.375000
vt 0.156250 0.500000
vt 0.140625 0.625000
vt 0.156250 0.625000
vt 0.156250 0.750000
vt 0.156250 0.875000
vt 0.156250 0.000000
vt 0.156250 0.125000
vt 0.156250 0.250000
vt 0.140625 0.375000
vt 0.156250 0.375000
vt 0.171875 0.500000
vt 0.171875 0.750000
vt 0.171875 0.875000
vt 0.156250 1.000000
vt 0.171875 0.000000
vt 0.171875 0.250000
vt 0.187500 0.500000
vt 0.171875 0.625000
vt 0.187500 0.750000
vt 0.187500 0.875000
vt 0.171875 1.000000
vt 0.187500 0.000000
vt 0.171875 0.125000
vt 0.187500 0.250000
vt 0.171875 0.375000
vt 0.203125 0.500000
vt 0.187500 0.625000
vt 0.203125 0.625000
vt 0.203125 0.875000
vt 0.187500 1.000000
vt 0.203125 0.000000
vt 0.187500 0.125000
vt 0.203125 0.250000
vt 0.187500 0.375000
vt 0.203125 0.375000
vt 0.218750 0.500000
vt 0.218750 0.750000
vt 0.203125 0.750000
vt 0.218750 0.875000
vt 0.203125 1.000000
vt 0.218750 0.000000
vt 0.203125 0.125000
vt 0.218750 0.250000
vt 0.218750 0.375000
vt 0.234375 0.500000
vt 0.218750 0.625000
vt 0.234375 0.625000
vt 0.234375 0.875000
vt 0.234375 1.000000
vt 0.218750 1.000000
vt 0.234375 0.000000
vt 0.218750 0.125000
vt 0.234375 0.125000
vt 0.234375 0.375000
vt 0.250000 0.500000
vt 0.250000 0.625000
vt 0.234375 0.750000
vt 0.250000 0.875000
vt 0.250000 0.000000
vt 0.250000 0.125000
vt 0.234375 0.250000
vt 0.250000 0.375000
vt 0.265625 0.500000
vt 0.265625 0.625000
vt 0.250000 0.750000
vt 0.265625 0.750000
vt 0.265625 0.875000
vt 0.250000 1.000000
vt 0.265625 0.125000
vt 0.265625 0.250000
vt 0.250000 0.250000
vt 0.265625 0.375000
vt 0.281250 0.625000
vt 0.281250 0.750000
vt 0.281250 0.875000
vt 0.265625 1.000000
vt 0.281250 0.000000
vt 0.265625 0.000000
vt 0.281250 0.125000
vt 0.281250 0.250000
vt 0.281250 0.375000
vt 0.296875 0.500000
vt 0.281250 0.500000
vt 0.296875 0.625000
vt 0.296875 0.750000
vt 0.296875 0.875000
vt 0.281250 1.000000
vt 0.296875 0.125000
vt 0.296875 0.250000
vt 0.296875 0.375000
vt 0.312500 0.500000
vt 0.312500 0.625000
vt 0.312500 0.875000
vt 0.296875 1.000000
vt 0.296875 0.000000
vt 0.312500 0.125000
vt 0.312500 0.375000
vt 0.328125 0.500000
vt 0.328125 0.625000
vt 0.312500 0.750000
vt 0.328125 0.875000
vt 0.328125 1.000000
vt 0.312500 1.000000
vt 0.328125 0.000000
vt 0.312500 0.000000
vt 0.328125 0.125000
vt 0.312500 0.250000
vt 0.328125 0.375000
vt 0.343750 0.500000
vt 0.343750 0.625000
vt 0.328125 0.750000
vt 0.343750 0.750000
vt 0.343750 0.875000
vt 0.343750 0.125000
vt 0.343750 0.250000
vt 0.328125 0.250000
vt 0.343750 0.375000
vt 0.359375 0.500000
vt 0.359375 0.625000
vt 0.359375 0.750000
vt 0.359375 1.000000
vt 0.343750 1.000000
vt 0.343750 0.000000
vt 0.359375 0.125000
vt 0.359375 0.250000
vt 0.359375 0.375000
vt 0.375000 0.500000
vt 0.375000 0.750000
vt 0.375000 0.875000
vt 0.359375 0.875000
vt 0.375000 1.000000
vt 0.375000 0.000000
vt 0.359375 0.000000
vt 0.375000 0.125000
vt 0.375000 0.250000
vt 0.375000 0.375000
vt 0.390625 0.500000
vt 0.375000 0.625000
vt 0.390625 0.625000
vt 0.390625 0.750000
vt 0.390625 0.875000
vt 0.390625 0.125000
vt 0.390625 0.250000
vt 0.390625 0.375000
vt 0.406250 0.625000
vt 0.406250 0.750000
vt 0.406250 0.875000
vt 0.390625 1.000000
vt 0.406250 0.000000
vt 0.390625 0.000000
vt 0.406250 0.250000
vt 0.406250 0.375000
vt 0.421875 0.500000
vt 0.406250 0.500000
vt 0.421875 0.625000
vt 0.421875 0.750000
vt 0.421875 1.000000
vt 0.406250 1.000000
vt 0.421875 0.000000
vt 0.406250 0.125000
vt 0.421875 0.250000
vt 0.437500 0.500000
vt 0.437500 0.750000
vt 0.421875 0.875000
vt 0.437500 0.875000
vt 0.437500 0.125000
vt 0.421875 0.125000
vt 0.437500 0.250000
vt 0.421875 0.375000
vt 0.437500 0.375000
vt 0.453125 0.500000
vt 0.437500 0.625000
vt 0.453125 0.625000
vt 0.453125 0.750000
vt 0.453125 0.875000
vt 0.437500 1.000000
vt 0.437500 0.000000
vt 0.453125 0.125000
vt 0.453125 0.250000
vt 0.453125 0.375000
vt 0.468750 0.625000
vt 0.468750 0.875000
vt 0.453125 1.000000
vt 0.468750 0.000000
vt 0.453125 0.000000
vt 0.468750 0.125000
vt 0.468750 0.250000
vt 0.468750 0.375000
vt 0.484375 0.500000
vt 0.468750 0.500000
vt 0.484375 0.750000
vt 0.468750 0.750000
vt 0.484375 0.875000
vt 0.468750 1.000000
vt 0.484375 0.000000
vt 0.484375 0.125000
vt 0.484375 0.250000
vt 0.484375 0.625000
vt 0.484375 1.000000
vt 0.484375 0.375000
vt 1.000000 0.750000
vt 1.000000 1.000000
s 1
f 9/1/9 2/2/2 1/3/1
f 10/4/10 3/5/3 2/2/2
f 11/6/11 4/7/4 3/5/3
f 4/7/4 13/8/13 5/9/5
f 13/10/13 6/11/6 5/12/5
f 6/11/6 15/13/15 7/14/7
f 7/14/7 16/15/16 8/16/8
f 16/15/16 1/3/1 8/16/8
f 17/17/17 10/4/10 9/1/9
f 18/18/18 11/6/11 10/4/10
f 11/6/11 20/19/20 12/20/12
f 20/19/20 13/8/13 12/20/12
f 21/21/21 14/22/14 13/10/13
f 22/23/22 15/13/15 14/22/14
f 23/24/23 16/15/16 15/13/15
f 24/25/24 9/1/9 16/15/16
f 25/26/25 18/18/18 17/17/17
f 18/18/18 27/27/27 19/28/19
f 27/27/27 20/19/20 19/28/19
f 28/29/28 21/30/21 20/19/20
f 29/31/29 22/23/22 21/21/21
f 22/23/22 31/32/31 23/24/23
f 31/32/31 24/25/24 23/24/23
f 24/25/24 25/26/25 17/17/17
f 33/33/33 26/34/26 25/26/25
f 26/34/26 35/35/35 27/27/27
f 27/27/27 36/36/36 28/29/28
f 28/29/28 37/37/37 29/38/29
f 37/39/37 30/40/30 29/31/29
f 38/41/38 31/32/31 30/40/30
f 39/42/39 32/43/32 31/32/31
f 40/44/40 25/26/25 32/43/32
f 41/45/41 34/46/34 33/33/33
f 42/47/42 35/35/35 34/46/34
f 35/35/35 44/48/44 36/36/36
f 36/36/36 45/49/45 37/37/37
f 45/50/45 38/41/38 37/39/37
f 46/51/46 39/42/39 38/41/38
f 39/42/39 48/52/48 40/44/40
f 40/44/40 41/45/41 33/33/33
f 49/53/49 42/47/42 41/45/41
f 50/54/50 43/55/43 42/47/42
f 51/56/51 44/48/44 43/55/43
f 52/57/52 45/49/45 44/48/44
f 45/50/45 54/58/54 46/51/46
f 54/58/54 47/59/47 46/51/46
f 47/59/47 56/60/56 48/52/48
f 56/60/56 41/45/41 48/52/48
f 57/61/57 50/54/50 49/53/49
f 50/54/50 59/62/59 51/56/51
f 51/56/51 60/63/60 52/57/52
f 60/63/60 53/64/53 52/57/52
f 61/65/61 54/58/54 53/66/53
f 62/67/62 55/68/55 54/58/54
f 63/69/63 56/60/56 55/68/55
f 64/70/64 49/53/49 56/60/56
f 65/71/65 58/72/58 57/61/57
f 66/73/66 59/62/59 58/72/58
f 67/74/67 60/63/60 59/62/59
f 68/75/68 61/76/61 60/63/60
f 61/65/61 70/77/70 62/67/62
f 62/67/62 71/78/71 63/69/63
f 71/78/71 64/70/64 63/69/63
f 64/70/64 65/71/65 57/61/57
f 65/71/65 74/79/74 66/73/66
f 66/73/66 75/80/75 67/74/67
f 75/80/75 68/75/68 67/74/67
f 76/81/76 69/82/69 68/75/68
f 77/83/77 70/77/70 69/84/69
f 70/77/70 79/85/79 71/78/71
f 79/85/79 72/86/72 71/78/71
f 80/87/80 65/71/65 72/86/72
f 81/88/81 74/79/74 73/89/73
f 74/79/74 83/90/83 75/80/75
f 75/80/75 84/91/84 76/81/76
f 84/91/84 77/92/77 76/81/76
f 77/83/77 86/93/86 78/94/78
f 86/93/86 79/85/79 78/94/78
f 87/95/87 80/87/80 79/85/79
f 88/96/88 73/89/73 80/87/80
f 89/97/89 82/98/82 81/88/81
f 90/99/90 83/90/83 82/98/82
f 91/100/91 84/91/84 83/90/83
f 92/101/92 85/102/85 84/91/84
f 85/103/85 94/104/94 86/93/86
f 86/93/86 95/105/95 87/95/87
f 87/95/87 96/106/96 88/96/88
f 88/96/88 89/97/89 81/88/81
f 97/107/97 90/99/90 89/97/89
f 98/108/98 91/100/91 90/99/90
f 99/109/99 92/101/92 91/100/91
f 100/110/100 93/111/93 92/101/92
f 101/112/101 94/104/94 93/113/93
f 94/104/94 103/114/103 95/105/95
f 103/114/103 96/106/96 95/105/95
f 104/115/104 89/97/89 96/106/96
f 105/116/105 98/108/98 97/107/97
f 98/108/98 107/117/107 99/109/99
f 107/117/107 100/110/100 99/109/99
f 108/118/108 101/119/101 100/110/100
f 109/120/109 102/121/102 101/112/101
f 102/121/102 111/122/111 103/114/103
f 111/122/111 104/115/104 103/114/103
f 112/123/112 97/107/97 104/115/104
f 105/116/105 114/124/114 106/125/106
f 106/125/106 115/126/115 107/117/107
f 115/126/115 108/118/108 107/117/107
f 116/127/116 109/128/109 108/118/108
f 117/129/117 110/130/110 109/120/109
f 118/131/118 111/122/111 110/130/110
f 119/132/119 112/123/112 111/122/111
f 112/123/112 113/133/113 105/116/105
f 121/134/121 114/124/114 113/133/113
f 122/135/122 115/126/115 114/124/114
f 123/136/123 116/127/116 115/126/115
f 116/127/116 125/137/125 117/138/117
f 125/139/125 118/131/118 117/129/117
f 118/131/118 127/140/127 119/132/119
f 119/132/119 128/141/128 120/142/120
f 128/141/128 113/133/113 120/142/120
f 129/143/129 122/135/122 121/134/121
f 130/144/130 123/136/123 122/135/122
f 123/136/123 132/145/132 124/146/124
f 132/145/132 125/137/125 124/146/124
f 133/147/133 126/148/126 125/139/125
f 134/149/134 127/140/127 126/148/126
f 135/150/135 128/141/128 127/140/127
f 136/151/136 121/134/121 128/141/128
f 137/152/137 130/144/130 129/143/129
f 130/144/130 139/153/139 131/154/131
f 139/153/139 132/145/132 131/154/131
f 140/155/140 133/156/133 132/145/132
f 141/157/141 134/149/134 133/147/133
f 134/149/134 143/158/143 135/150/135
f 143/158/143 136/151/136 135/150/135
f 144/159/144 129/143/129 136/151/136
f 145/160/145 138/161/138 137/152/137
f 146/162/146 139/153/139 138/161/138
f 147/163/147 140/155/140 139/153/139
f 148/164/148 141/165/141 140/155/140
f 141/157/141 150/166/150 142/167/142
f 142/167/142 151/168/151 143/158/143
f 151/168/151 144/159/144 143/158/143
f 152/169/152 137/152/137 144/159/144
f 153/170/153 146/162/146 145/160/145
f 146/162/146 155/171/155 147/163/147
f 147/163/147 156/172/156 148/164/148
f 148/164/148 157/173/157 149/174/149
f 157/175/157 150/166/150 149/176/149
f 158/177/158 151/168/151 150/166/150
f 159/178/159 152/169/152 151/168/151
f 160/179/160 145/160/145 152/169/152
f 161/180/161 154/181/154 153/170/153
f 162/182/162 155/171/155 154/181/154
f 163/183/163 156/172/156 155/171/155
f 164/184/164 157/173/157 156/172/156
f 157/175/157 166/185/166 158/177/158
f 158/177/158 167/186/167 159/178/159
f 159/178/159 168/187/168 160/179/160
f 168/187/168 153/170/153 160/179/160
f 169/188/169 162/182/162 161/180/161
f 170/189/170 163/183/163 162/182/162
f 163/183/163 172/190/172 164/184/164
f 172/190/172 165/191/165 164/184/164
f 165/192/165 174/193/174 166/185/166
f 174/193/174 167/186/167 166/185/166
f 175/194/175 168/187/168 167/186/167
f 168/187/168 169/188/169 161/180/161
f 169/188/169 178/195/178 170/189/170
f 170/189/170 179/196/179 171/197/171
f 179/196/179 172/190/172 171/197/171
f 180/198/180 173/199/173 172/190/172
f 181/200/181 174/193/174 173/201/173
f 174/193/174 183/202/183 175/194/175
f 183/202/183 176/203/176 175/194/175
f 184/204/184 169/188/169 176/203/176
f 177/205/177 186/206/186 178/195/178
f 186/206/186 179/196/179 178/195/178
f 179/196/179 188/207/188 180/198/180
f 188/207/188 181/208/181 180/198/180
f 189/209/189 182/210/182 181/200/181
f 190/211/190 183/202/183 182/210/182
f 191/212/191 184/204/184 183/202/183
f 192/213/192 177/205/177 184/204/184
f 193/214/193 186/206/186 185/215/185
f 194/216/194 187/217/187 186/206/186
f 195/218/195 188/207/188 187/217/187
f 196/219/196 189/220/189 188/207/188
f 189/209/189 198/221/198 190/211/190
f 198/221/198 191/212/191 190/211/190
f 191/212/191 200/222/200 192/213/192
f 200/222/200 185/215/185 192/213/192
f 193/214/193 202/223/202 194/216/194
f 194/216/194 203/224/203 195/218/195
f 195/218/195 204/225/204 196/219/196
f 204/225/204 197/226/197 196/219/196
f 205/227/205 198/221/198 197/228/197
f 206/229/206 199/230/199 198/221/198
f 207/231/207 200/222/200 199/230/199
f 208/232/208 193/214/193 200/222/200
f 209/233/209 202/223/202 201/234/201
f 210/235/210 203/224/203 202/223/202
f 211/236/211 204/225/204 203/224/203
f 212/237/212 205/238/205 204/225/204
f 205/227/205 214/239/214 206/229/206
f 206/229/206 215/240/215 207/231/207
f 215/240/215 208/232/208 207/231/207
f 216/241/216 201/234/201 208/232/208
f 217/242/217 210/235/210 209/233/209
f 210/235/210 219/243/219 211/236/211
f 211/236/211 220/244/220 212/237/212
f 220/244/220 213/245/213 212/237/212
f 221/246/221 214/239/214 213/247/213
f 222/248/222 215/240/215 214/239/214
f 223/249/223 216/241/216 215/240/215
f 224/250/224 209/233/209 216/241/216
f 225/251/225 218/252/218 217/242/217
f 226/253/226 219/243/219 218/252/218
f 227/254/227 220/244/220 219/243/219
f 228/255/228 221/256/221 220/244/220
f 221/246/221 230/257/230 222/248/222
f 222/248/222 231/258/231 223/249/223
f 231/258/231 224/250/224 223/249/223
f 224/250/224 225/251/225 217/242/217
f 233/259/233 226/253/226 225/251/225
f 226/253/226 235/260/235 227/254/227
f 235/260/235 228/255/228 227/254/227
f 228/255/228 237/261/237 229/262/229
f 237/263/237 230/257/230 229/264/229
f 238/265/238 231/258/231 230/257/230
f 239/266/239 232/267/232 231/258/231
f 232/267/232 233/259/233 225/251/225
f 241/268/241 234/269/234 233/259/233
f 234/269/234 243/270/243 235/260/235
f 235/260/235 244/271/244 236/272/236
f 244/271/244 237/261/237 236/272/236
f 245/273/245 238/265/238 237/263/237
f 246/274/246 239/266/239 238/265/238
f 247/275/247 240/276/240 239/266/239
f 248/277/248 233/259/233 240/276/240
f 249/278/249 242/279/242 241/268/241
f 250/280/250 243/270/243 242/279/242
f 251/281/251 244/271/244 243/270/243
f 252/282/252 245/283/245 244/271/244
f 245/273/245 254/284/254 246/274/246
f 246/274/246 255/285/255 247/275/247
f 247/275/247 256/286/256 248/277/248
f 256/286/256 241/268/241 248/277/248
f 257/287/5 250/280/250 249/278/249
f 258/288/257 251/281/251 250/280/250
f 251/281/251 260/289/259 252/282/252
f 260/289/259 253/290/253 252/282/252
f 261/291/1 254/284/254 253/292/253
f 262/293/260 255/285/255 254/284/254
f 263/294/261 256/286/256 255/285/255
f 264/295/262 249/278/249 256/286/256
f 265/296/13 258/297/257 257/298/5
f 266/299/263 259/300/258 258/297/257
f 267/301/264 260/302/259 259/300/258
f 268/303/265 261/304/1 260/302/259
f 269/305/9 262/306/260 261/307/1
f 262/306/260 271/308/267 263/309/261
f 271/308/267 264/310/262 263/309/261
f 272/311/268 257/298/5 264/310/262
f 273/312/21 266/299/263 265/296/13
f 266/299/263 275/313/270 267/301/264
f 267/301/264 276/314/271 268/303/265
f 268/303/265 277/315/17 269/316/9
f 277/317/17 270/318/266 269/305/9
f 278/319/272 271/308/267 270/318/266
f 279/320/273 272/311/268 271/308/267
f 280/321/274 265/296/13 272/311/268
f 281/322/29 274/323/269 273/312/21
f 282/324/275 275/313/270 274/323/269
f 283/325/276 276/314/271 275/313/270
f 284/326/277 277/315/17 276/314/271
f 277/317/17 286/327/278 278/319/272
f 278/319/272 287/328/279 279/320/273
f 279/320/273 288/329/280 280/321/274
f 280/321/274 281/322/29 273/312/21
f 289/330/37 282/324/275 281/322/29
f 290/331/281 283/325/276 282/324/275
f 291/332/282 284/326/277 283/325/276
f 292/333/283 285/334/25 284/326/277
f 293/335/33 286/327/278 285/336/25
f 294/337/284 287/328/279 286/327/278
f 295/338/285 288/329/280 287/328/279
f 296/339/286 281/322/29 288/329/280
f 297/340/45 290/331/281 289/330/37
f 298/341/287 291/332/282 290/331/281
f 291/332/282 300/342/289 292/333/283
f 300/342/289 293/343/33 292/333/283
f 293/335/33 302/344/290 294/337/284
f 302/344/290 295/338/285 294/337/284
f 303/345/291 296/339/286 295/338/285
f 304/346/292 289/330/37 296/339/286
f 305/347/53 298/341/287 297/340/45
f 306/348/293 299/349/288 298/341/287
f 307/350/294 300/342/289 299/349/288
f 308/351/295 301/352/41 300/342/289
f 309/353/49 302/344/290 301/354/41
f 302/344/290 311/355/297 303/345/291
f 303/345/291 312/356/298 304/346/292
f 312/356/298 297/340/45 304/346/292
f 313/357/61 306/348/293 305/347/53
f 306/348/293 315/358/300 307/350/294
f 315/358/300 308/351/295 307/350/294
f 316/359/301 309/360/49 308/351/295
f 317/361/57 310/362/296 309/353/49
f 318/363/302 311/355/297 310/362/296
f 319/364/303 312/356/298 311/355/297
f 320/365/304 305/347/53 312/356/298
f 321/366/69 314/367/299 313/357/61
f 322/368/305 315/358/300 314/367/299
f 323/369/306 316/359/301 315/358/300
f 324/370/307 317/371/57 316/359/301
f 317/361/57 326/372/308 318/363/302
f 318/363/302 327/373/309 319/364/303
f 327/373/309 320/365/304 319/364/303
f 320/365/304 321/366/69 313/357/61
f 329/374/77 322/368/305 321/366/69
f 322/368/305 331/375/312 323/369/306
f 323/369/306 332/376/313 324/370/307
f 324/370/307 333/377/73 325/378/65
f 333/379/73 326/372/308 325/380/65
f 334/381/314 327/373/309 326/372/308
f 335/382/315 328/383/310 327/373/309
f 328/383/310 329/374/77 321/366/69
f 337/384/85 330/385/311 329/374/77
f 338/386/317 331/375/312 330/385/311
f 339/387/318 332/376/313 331/375/312
f 340/388/319 333/377/73 332/376/313
f 341/389/81 334/381/314 333/379/73
f 342/390/320 335/382/315 334/381/314
f 343/391/321 336/392/316 335/382/315
f 344/393/322 329/374/77 336/392/316
f 345/394/93 338/386/317 337/384/85
f 338/386/317 347/395/324 339/387/318
f 339/387/318 348/396/325 340/388/319
f 348/396/325 341/397/81 340/388/319
f 349/398/89 342/390/320 341/389/81
f 342/390/320 351/399/327 343/391/321
f 351/399/327 344/393/322 343/391/321
f 344/393/322 345/394/93 337/384/85
f 353/400/101 346/401/323 345/394/93
f 346/401/323 355/402/330 347/395/324
f 355/402/330 348/396/325 347/395/324
f 356/403/331 349/404/89 348/396/325
f 357/405/97 350/406/326 349/398/89
f 350/406/326 359/407/333 351/399/327
f 359/407/333 352/408/328 351/399/327
f 352/408/328 353/400/101 345/394/93
f 361/409/109 354/410/329 353/400/101
f 362/411/335 355/402/330 354/410/329
f 355/402/330 364/412/337 356/403/331
f 364/412/337 357/413/97 356/403/331
f 365/414/105 358/415/332 357/405/97
f 358/415/332 367/416/339 359/407/333
f 367/416/339 360/417/334 359/407/333
f 368/418/340 353/400/101 360/417/334
f 369/419/117 362/411/335 361/409/109
f 362/411/335 371/420/342 363/421/336
f 371/420/342 364/412/337 363/421/336
f 372/422/343 365/423/105 364/412/337
f 373/424/113 366/425/338 365/414/105
f 366/425/338 375/426/345 367/416/339
f 375/426/345 368/418/340 367/416/339
f 376/427/346 361/409/109 368/418/340
f 377/428/125 370/429/341 369/419/117
f 378/430/347 371/420/342 370/429/341
f 371/420/342 380/431/349 372/422/343
f 372/422/343 381/432/121 373/433/113
f 381/434/121 374/435/344 373/424/113
f 382/436/350 375/426/345 374/435/344
f 375/426/345 384/437/352 376/427/346
f 384/437/352 369/419/117 376/427/346
f 385/438/133 378/430/347 377/428/125
f 386/439/353 379/440/348 378/430/347
f 379/440/348 388/441/355 380/431/349
f 388/441/355 381/432/121 380/431/349
f 389/442/129 382/436/350 381/434/121
f 390/443/356 383/444/351 382/436/350
f 383/444/351 392/445/358 384/437/352
f 392/445/358 377/428/125 384/437/352
f 393/446/141 386/439/353 385/438/133
f 394/447/359 387/448/354 386/439/353
f 395/449/360 388/441/355 387/448/354
f 396/450/361 389/451/129 388/441/355
f 389/442/129 398/452/362 390/443/356
f 390/443/356 399/453/363 391/454/357
f 391/454/357 400/455/364 392/445/358
f 400/455/364 385/438/133 392/445/358
f 393/446/141 402/456/365 394/447/359
f 394/447/359 403/457/366 395/449/360
f 395/449/360 404/458/367 396/450/361
f 404/458/367 397/459/137 396/450/361
f 405/460/145 398/452/362 397/461/137
f 406/462/368 399/453/363 398/452/362
f 407/463/369 400/455/364 399/453/363
f 408/464/370 393/446/141 400/455/364
f 409/465/157 402/456/365 401/466/149
f 410/467/371 403/457/366 402/456/365
f 411/468/372 404/458/367 403/457/366
f 412/469/373 405/470/145 404/458/367
f 405/460/145 414/471/374 406/462/368
f 406/462/368 415/472/375 407/463/369
f 407/463/369 416/473/376 408/464/370
f 408/464/370 409/465/157 401/466/149
f 417/474/165 410/467/371 409/465/157
f 418/475/377 411/468/372 410/467/371
f 411/468/372 420/476/379 412/469/373
f 420/476/379 413/477/153 412/469/373
f 413/478/153 422/479/380 414/471/374
f 422/479/380 415/472/375 414/471/374
f 415/472/375 424/480/382 416/473/376
f 416/473/376 417/474/165 409/465/157
f 425/481/173 418/475/377 417/474/165
f 426/482/383 419/483/378 418/475/377
f 419/483/378 428/484/385 420/476/379
f 420/476/379 429/485/169 421/486/161
f 429/487/169 422/479/380 421/488/161
f 430/489/386 423/490/381 422/479/380
f 423/490/381 432/491/388 424/480/382
f 424/480/382 425/481/173 417/474/165
f 433/492/181 426/482/383 425/481/173
f 434/493/389 427/494/384 426/482/383
f 435/495/390 428/484/385 427/494/384
f 436/496/391 429/485/169 428/484/385
f 429/487/169 438/497/392 430/489/386
f 430/489/386 439/498/393 431/499/387
f 439/498/393 432/491/388 431/499/387
f 440/500/394 425/481/173 432/491/388
f 441/501/189 434/493/389 433/492/181
f 442/502/395 435/495/390 434/493/389
f 443/503/396 436/496/391 435/495/390
f 436/496/391 445/504/185 437/505/177
f 437/506/177 446/507/398 438/497/392
f 438/497/392 447/508/399 439/498/393
f 447/508/399 440/500/394 439/498/393
f 448/509/400 433/492/181 440/500/394
f 449/510/197 442/502/395 441/501/189
f 442/502/395 451/511/402 443/503/396
f 443/503/396 452/512/403 444/513/397
f 444/513/397 453/514/193 445/504/185
f 453/515/193 446/507/398 445/516/185
f 454/517/404 447/508/399 446/507/398
f 455/518/405 448/509/400 447/508/399
f 456/519/406 441/501/189 448/509/400
f 457/520/205 450/521/401 449/510/197
f 458/522/407 451/511/402 450/521/401
f 459/523/408 452/512/403 451/511/402
f 460/524/409 453/514/193 452/512/403
f 453/515/193 462/525/410 454/517/404
f 454/517/404 463/526/411 455/518/405
f 455/518/405 464/527/412 456/519/406
f 456/519/406 457/520/205 449/510/197
f 457/520/205 466/528/413 458/522/407
f 466/528/413 459/523/408 458/522/407
f 467/529/414 460/524/409 459/523/408
f 468/530/415 461/531/201 460/524/409
f 469/532/209 462/525/410 461/533/201
f 462/525/410 471/534/417 463/526/411
f 471/534/417 464/527/412 463/526/411
f 472/535/418 457/520/205 464/527/412
f 473/536/221 466/528/413 465/537/213
f 474/538/419 467/529/414 466/528/413
f 475/539/420 468/530/415 467/529/414
f 468/530/415 477/540/217 469/541/209
f 477/542/217 470/543/416 469/532/209
f 470/543/416 479/544/423 471/534/417
f 479/544/423 472/535/418 471/534/417
f 472/535/418 473/536/221 465/537/213
f 481/545/229 474/538/419 473/536/221
f 474/538/419 483/546/426 475/539/420
f 483/546/426 476/547/421 475/539/420
f 484/548/427 477/540/217 476/547/421
f 477/542/217 486/549/428 478/550/422
f 478/550/422 487/551/429 479/544/423
f 487/551/429 480/552/424 479/544/423
f 488/553/430 473/536/221 480/552/424
f 489/554/237 482/555/425 481/545/229
f 490/556/431 483/546/426 482/555/425
f 491/557/432 484/548/427 483/546/426
f 492/558/433 485/559/225 484/548/427
f 485/560/225 494/561/434 486/549/428
f 494/561/434 487/551/429 486/549/428
f 495/562/435 488/553/430 487/551/429
f 496/563/436 481/545/229 488/553/430
f 489/554/237 498/564/437 490/556/431
f 498/564/437 491/557/432 490/556/431
f 491/557/432 500/565/439 492/558/433
f 500/565/439 493/566/233 492/558/433
f 501/567/241 494/561/434 493/568/233
f 502/569/440 495/562/435 494/561/434
f 503/570/441 496/563/436 495/562/435
f 504/571/442 489/554/237 496/563/436
f 505/572/253 498/564/437 497/573/245
f 498/564/437 507/574/444 499/575/438
f 507/574/444 500/565/439 499/575/438
f 508/576/445 501/577/241 500/565/439
f 509/578/249 502/569/440 501/567/241
f 510/579/446 503/570/441 502/569/440
f 511/580/447 504/571/442 503/570/441
f 504/571/442 505/572/253 497/573/245
f 505/572/253 2/2/2 506/581/443
f 506/581/443 3/5/3 507/574/444
f 3/5/3 508/576/445 507/574/444
f 508/576/445 5/9/5 509/582/249
f 5/12/5 510/579/446 509/578/249
f 6/11/6 511/580/447 510/579/446
f 7/14/7 512/583/448 511/580/447
f 8/16/8 505/572/253 512/583/448
f 9/1/9 10/4/10 2/2/2
f 10/4/10 11/6/11 3/5/3
f 11/6/11 12/20/12 4/7/4
f 4/7/4 12/20/12 13/8/13
f 13/10/13 14/22/14 6/11/6
f 6/11/6 14/22/14 15/13/15
f 7/14/7 15/13/15 16/15/16
f 16/15/16 9/1/9 1/3/1
f 17/17/17 18/18/18 10/4/10
f 18/18/18 19/28/19 11/6/11
f 11/6/11 19/28/19 20/19/20
f 20/19/20 21/30/21 13/8/13
f 21/21/21 22/23/22 14/22/14
f 22/23/22 23/24/23 15/13/15
f 23/24/23 24/25/24 16/15/16
f 24/25/24 17/17/17 9/1/9
f 25/26/25 26/34/26 18/18/18
f 18/18/18 26/34/26 27/27/27
f 27/27/27 28/29/28 20/19/20
f 28/29/28 29/38/29 21/30/21
f 29/31/29 30/40/30 22/23/22
f 22/23/22 30/40/30 31/32/31
f 31/32/31 32/43/32 24/25/24
f 24/25/24 32/43/32 25/26/25
f 33/33/33 34/46/34 26/34/26
f 26/34/26 34/46/34 35/35/35
f 27/27/27 35/35/35 36/36/36
f 28/29/28 36/36/36 37/37/37
f 37/39/37 38/41/38 30/40/30
f 38/41/38 39/42/39 31/32/31
f 39/42/39 40/44/40 32/43/32
f 40/44/40 33/33/33 25/26/25
f 41/45/41 42/47/42 34/46/34
f 42/47/42 43/55/43 35/35/35
f 35/35/35 43/55/43 44/48/44
f 36/36/36 44/48/44 45/49/45
f 45/50/45 46/51/46 38/41/38
f 46/51/46 47/59/47 39/42/39
f 39/42/39 47/59/47 48/52/48
f 40/44/40 48/52/48 41/45/41
f 49/53/49 50/54/50 42/47/42
f 50/54/50 51/56/51 43/55/43
f 51/56/51 52/57/52 44/48/44
f 52/57/52 53/64/53 45/49/45
f 45/50/45 53/66/53 54/58/54
f 54/58/54 55/68/55 47/59/47
f 47/59/47 55/68/55 56/60/56
f 56/60/56 49/53/49 41/45/41
f 57/61/57 58/72/58 50/54/50
f 50/54/50 58/72/58 59/62/59
f 51/56/51 59/62/59 60/63/60
f 60/63/60 61/76/61 53/64/53
f 61/65/61 62/67/62 54/58/54
f 62/67/62 63/69/63 55/68/55
f 63/69/63 64/70/64 56/60/56
f 64/70/64 57/61/57 49/53/49
f 65/71/65 66/73/66 58/72/58
f 66/73/66 67/74/67 59/62/59
f 67/74/67 68/75/68 60/63/60
f 68/75/68 69/82/69 61/76/61
f 61/65/61 69/84/69 70/77/70
f 62/67/62 70/77/70 71/78/71
f 71/78/71 72/86/72 64/70/64
f 64/70/64 72/86/72 65/71/65
f 65/71/65 73/89/73 74/79/74
f 66/73/66 74/79/74 75/80/75
f 75/80/75 76/81/76 68/75/68
f 76/81/76 77/92/77 69/82/69
f 77/83/77 78/94/78 70/77/70
f 70/77/70 78/94/78 79/85/79
f 79/85/79 80/87/80 72/86/72
f 80/87/80 73/89/73 65/71/65
f 81/88/81 82/98/82 74/79/74
f 74/79/74 82/98/82 83/90/83
f 75/80/75 83/90/83 84/91/84
f 84/91/84 85/102/85 77/92/77
f 77/83/77 85/103/85 86/93/86
f 86/93/86 87/95/87 79/85/79
f 87/95/87 88/96/88 80/87/80
f 88/96/88 81/88/81 73/89/73
f 89/97/89 90/99/90 82/98/82
f 90/99/90 91/100/91 83/90/83
f 91/100/91 92/101/92 84/91/84
f 92/101/92 93/111/93 85/102/85
f 85/103/85 93/113/93 94/104/94
f 86/93/86 94/104/94 95/105/95
f 87/95/87 95/105/95 96/106/96
f 88/96/88 96/106/96 89/97/89
f 97/107/97 98/108/98 90/99/90
f 98/108/98 99/109/99 91/100/91
f 99/109/99 100/110/100 92/101/92
f 100/110/100 101/119/101 93/111/93
f 101/112/101 102/121/102 94/104/94
f 94/104/94 102/121/102 103/114/103
f 103/114/103 104/115/104 96/106/96
f 104/115/104 97/107/97 89/97/89
f 105/116/105 106/125/106 98/108/98
f 98/108/98 106/125/106 107/117/107
f 107/117/107 108/118/108 100/110/100
f 108/118/108 109/128/109 101/119/101
f 109/120/109 110/130/110 102/121/102
f 102/121/102 110/130/110 111/122/111
f 111/122/111 112/123/112 104/115/104
f 112/123/112 105/116/105 97/107/97
f 105/116/105 113/133/113 114/124/114
f 106/125/106 114/124/114 115/126/115
f 115/126/115 116/127/116 108/118/108
f 116/127/116 117/138/117 109/128/109
f 117/129/117 118/131/118 110/130/110
f 118/131/118 119/132/119 111/122/111
f 119/132/119 120/142/120 112/123/112
f 112/123/112 120/142/120 113/133/113
f 121/134/121 122/135/122 114/124/114
f 122/135/122 123/136/123 115/126/115
f 123/136/123 124/146/124 116/127/116
f 116/127/116 124/146/124 125/137/125
f 125/139/125 126/148/126 118/131/118
f 118/131/118 126/148/126 127/140/127
f 119/132/119 127/140/127 128/141/128
f 128/141/128 121/134/121 113/133/113
f 129/143/129 130/144/130 122/135/122
f 130/144/130 131/154/131 123/136/123
f 123/136/123 131/154/131 132/145/132
f 132/145/132 133/156/133 125/137/125
f 133/147/133 134/149/134 126/148/126
f 134/149/134 135/150/135 127/140/127
f 135/150/135 136/151/136 128/141/128
f 136/151/136 129/143/129 121/134/121
f 137/152/137 138/161/138 130/144/130
f 130/144/130 138/161/138 139/153/139
f 139/153/139 140/155/140 132/145/132
f 140/155/140 141/165/141 133/156/133
f 141/157/141 142/167/142 134/149/134
f 134/149/134 142/167/142 143/158/143
f 143/158/143 144/159/144 136/151/136
f 144/159/144 137/152/137 129/143/129
f 145/160/145 146/162/146 138/161/138
f 146/162/146 147/163/147 139/153/139
f 147/163/147 148/164/148 140/155/140
f 148/164/148 149/174/149 141/165/141
f 141/157/141 149/176/149 150/166/150
f 142/167/142 150/166/150 151/168/151
f 151/168/151 152/169/152 144/159/144
f 152/169/152 145/160/145 137/152/137
f 153/170/153 154/181/154 146/162/146
f 146/162/146 154/181/154 155/171/155
f 147/163/147 155/171/155 156/172/156
f 148/164/148 156/172/156 157/173/157
f 157/175/157 158/177/158 150/166/150
f 158/177/158 159/178/159 151/168/151
f 159/178/159 160/179/160 152/169/152
f 160/179/160 153/170/153 145/160/145
f 161/180/161 162/182/162 154/181/154
f 162/182/162 163/183/163 155/171/155
f 163/183/163 164/184/164 156/172/156
f 164/184/164 165/191/165 157/173/157
f 157/175/157 165/192/165 166/185/166
f 158/177/158 166/185/166 167/186/167
f 159/178/159 167/186/167 168/187/168
f 168/187/168 161/180/161 153/170/153
f 169/188/169 170/189/170 162/182/162
f 170/189/170 171/197/171 163/183/163
f 163/183/163 171/197/171 172/190/172
f 172/190/172 173/199/173 165/191/165
f 165/192/165 173/201/173 174/193/174
f 174/193/174 175/194/175 167/186/167
f 175/194/175 176/203/176 168/187/168
f 168/187/168 176/203/176 169/188/169
f 169/188/169 177/205/177 178/195/178
f 170/189/170 178/195/178 179/196/179
f 179/196/179 180/198/180 172/190/172
f 180/198/180 181/208/181 173/199/173
f 181/200/181 182/210/182 174/193/174
f 174/193/174 182/210/182 183/202/183
f 183/202/183 184/204/184 176/203/176
f 184/204/184 177/205/177 169/188/169
f 177/205/177 185/215/185 186/206/186
f 186/206/186 187/217/187 179/196/179
f 179/196/179 187/217/187 188/207/188
f 188/207/188 189/220/189 181/208/181
f 189/209/189 190/211/190 182/210/182
f 190/211/190 191/212/191 183/202/183
f 191/212/191 192/213/192 184/204/184
f 192/213/192 185/215/185 177/205/177
f 193/214/193 194/216/194 186/206/186
f 194/216/194 195/218/195 187/217/187
f 195/218/195 196/219/196 188/207/188
f 196/219/196 197/226/197 189/220/189
f 189/209/189 197/228/197 198/221/198
f 198/221/198 199/230/199 191/212/191
f 191/212/191 199/230/199 200/222/200
f 200/222/200 193/214/193 185/215/185
f 193/214/193 201/234/201 202/223/202
f 194/216/194 202/223/202 203/224/203
f 195/218/195 203/224/203 204/225/204
f 204/225/204 205/238/205 197/226/197
f 205/227/205 206/229/206 198/221/198
f 206/229/206 207/231/207 199/230/199
f 207/231/207 208/232/208 200/222/200
f 208/232/208 201/234/201 193/214/193
f 209/233/209 210/235/210 202/223/202
f 210/235/210 211/236/211 203/224/203
f 211/236/211 212/237/212 204/225/204
f 212/237/212 213/245/213 205/238/205
f 205/227/205 213/247/213 214/239/214
f 206/229/206 214/239/214 215/240/215
f 215/240/215 216/241/216 208/232/208
f 216/241/216 209/233/209 201/234/201
f 217/242/217 218/252/218 210/235/210
f 210/235/210 218/252/218 219/243/219
f 211/236/211 219/243/219 220/244/220
f 220/244/220 221/256/221 213/245/213
f 221/246/221 222/248/222 214/239/214
f 222/248/222 223/249/223 215/240/215
f 223/249/223 224/250/224 216/241/216
f 224/250/224 217/242/217 209/233/209
f 225/251/225 226/253/226 218/252/218
f 226/253/226 227/254/227 219/243/219
f 227/254/227 228/255/228 220/244/220
f 228/255/228 229/262/229 221/256/221
f 221/246/221 229/264/229 230/257/230
f 222/248/222 230/257/230 231/258/231
f 231/258/231 232/267/232 224/250/224
f 224/250/224 232/267/232 225/251/225
f 233/259/233 234/269/234 226/253/226
f 226/253/226 234/269/234 235/260/235
f 235/260/235 236/272/236 228/255/228
f 228/255/228 236/272/236 237/261/237
f 237/263/237 238/265/238 230/257/230
f 238/265/238 239/266/239 231/258/231
f 239/266/239 240/276/240 232/267/232
f 232/267/232 240/276/240 233/259/233
f 241/268/241 242/279/242 234/269/234
f 234/269/234 242/279/242 243/270/243
f 235/260/235 243/270/243 244/271/244
f 244/271/244 245/283/245 237/261/237
f 245/273/245 246/274/246 238/265/238
f 246/274/246 247/275/247 239/266/239
f 247/275/247 248/277/248 240/276/240
f 248/277/248 241/268/241 233/259/233
f 249/278/249 250/280/250 242/279/242
f 250/280/250 251/281/251 243/270/243
f 251/281/251 252/282/252 244/271/244
f 252/282/252 253/290/253 245/283/245
f 245/273/245 253/292/253 254/284/254
f 246/274/246 254/284/254 255/285/255
f 247/275/247 255/285/255 256/286/256
f 256/286/256 249/278/249 241/268/241
f 257/287/5 258/288/257 250/280/250
f 258/288/257 259/584/258 251/281/251
f 251/281/251 259/584/258 260/289/259
f 260/289/259 261/585/1 253/290/253
f 261/291/1 262/293/260 254/284/254
f 262/293/260 263/294/261 255/285/255
f 263/294/261 264/295/262 256/286/256
f 264/295/262 257/287/5 249/278/249
f 265/296/13 266/299/263 258/297/257
f 266/299/263 267/301/264 259/300/258
f 267/301/264 268/303/265 260/302/259
f 268/303/265 269/316/9 261/304/1
f 269/305/9 270/318/266 262/306/260
f 262/306/260 270/318/266 271/308/267
f 271/308/267 272/311/268 264/310/262
f 272/311/268 265/296/13 257/298/5
f 273/312/21 274/323/269 266/299/263
f 266/299/263 274/323/269 275/313/270
f 267/301/264 275/313/270 276/314/271
f 268/303/265 276/314/271 277/315/17
f 277/317/17 278/319/272 270/318/266
f 278/319/272 279/320/273 271/308/267
f 279/320/273 280/321/274 272/311/268
f 280/321/274 273/312/21 265/296/13
f 281/322/29 282/324/275 274/323/269
f 282/324/275 283/325/276 275/313/270
f 283/325/276 284/326/277 276/314/271
f 284/326/277 285/334/25 277/315/17
f 277/317/17 285/336/25 286/327/278
f 278/319/272 286/327/278 287/328/279
f 279/320/273 287/328/279 288/329/280
f 280/321/274 288/329/280 281/322/29
f 289/330/37 290/331/281 282/324/275
f 290/331/281 291/332/282 283/325/276
f 291/332/282 292/333/283 284/326/277
f 292/333/283 293/343/33 285/334/25
f 293/335/33 294/337/284 286/327/278
f 294/337/284 295/338/285 287/328/279
f 295/338/285 296/339/286 288/329/280
f 296/339/286 289/330/37 281/322/29
f 297/340/45 298/341/287 290/331/281
f 298/341/287 299/349/288 291/332/282
f 291/332/282 299/349/288 300/342/289
f 300/342/289 301/352/41 293/343/33
f 293/335/33 301/354/41 302/344/290
f 302/344/290 303/345/291 295/338/285
f 303/345/291 304/346/292 296/339/286
f 304/346/292 297/340/45 289/330/37
f 305/347/53 306/348/293 298/341/287
f 306/348/293 307/350/294 299/349/288
f 307/350/294 308/351/295 300/342/289
f 308/351/295 309/360/49 301/352/41
f 309/353/49 310/362/296 302/344/290
f 302/344/290 310/362/296 311/355/297
f 303/345/291 311/355/297 312/356/298
f 312/356/298 305/347/53 297/340/45
f 313/357/61 314/367/299 306/348/293
f 306/348/293 314/367/299 315/358/300
f 315/358/300 316/359/301 308/351/295
f 316/359/301 317/371/57 309/360/49
f 317/361/57 318/363/302 310/362/296
f 318/363/302 319/364/303 311/355/297
f 319/364/303 320/365/304 312/356/298
f 320/365/304 313/357/61 305/347/53
f 321/366/69 322/368/305 314/367/299
f 322/368/305 323/369/306 315/358/300
f 323/369/306 324/370/307 316/359/301
f 324/370/307 325/378/65 317/371/57
f 317/361/57 325/380/65 326/372/308
f 318/363/302 326/372/308 327/373/309
f 327/373/309 328/383/310 320/365/304
f 320/365/304 328/383/310 321/366/69
f 329/374/77 330/385/311 322/368/305
f 322/368/305 330/385/311 331/375/312
f 323/369/306 331/375/312 332/376/313
f 324/370/307 332/376/313 333/377/73
f 333/379/73 334/381/314 326/372/308
f 334/381/314 335/382/315 327/373/309
f 335/382/315 336/392/316 328/383/310
f 328/383/310 336/392/316 329/374/77
f 337/384/85 338/386/317 330/385/311
f 338/386/317 339/387/318 331/375/312
f 339/387/318 340/388/319 332/376/313
f 340/388/319 341/397/81 333/377/73
f 341/389/81 342/390/320 334/381/314
f 342/390/320 343/391/321 335/382/315
f 343/391/321 344/393/322 336/392/316
f 344/393/322 337/384/85 329/374/77
f 345/394/93 346/401/323 338/386/317
f 338/386/317 346/401/323 347/395/324
f 339/387/318 347/395/324 348/396/325
f 348/396/325 349/404/89 341/397/81
f 349/398/89 350/406/326 342/390/320
f 342/390/320 350/406/326 351/399/327
f 351/399/327 352/408/328 344/393/322
f 344/393/322 352/408/328 345/394/93
f 353/400/101 354/410/329 346/401/323
f 346/401/323 354/410/329 355/402/330
f 355/402/330 356/403/331 348/396/325
f 356/403/331 357/413/97 349/404/89
f 357/405/97 358/415/332 350/406/326
f 350/406/326 358/415/332 359/407/333
f 359/407/333 360/417/334 352/408/328
f 352/408/328 360/417/334 353/400/101
f 361/409/109 362/411/335 354/410/329
f 362/411/335 363/421/336 355/402/330
f 355/402/330 363/421/336 364/412/337
f 364/412/337 365/423/105 357/413/97
f 365/414/105 366/425/338 358/415/332
f 358/415/332 366/425/338 367/416/339
f 367/416/339 368/418/340 360/417/334
f 368/418/340 361/409/109 353/400/101
f 369/419/117 370/429/341 362/411/335
f 362/411/335 370/429/341 371/420/342
f 371/420/342 372/422/343 364/412/337
f 372/422/343 373/433/113 365/423/105
f 373/424/113 374/435/344 366/425/338
f 366/425/338 374/435/344 375/426/345
f 375/426/345 376/427/346 368/418/340
f 376/427/346 369/419/117 361/409/109
f 377/428/125 378/430/347 370/429/341
f 378/430/347 379/440/348 371/420/342
f 371/420/342 379/440/348 380/431/349
f 372/422/343 380/431/349 381/432/121
f 381/434/121 382/436/350 374/435/344
f 382/436/350 383/444/351 375/426/345
f 375/426/345 383/444/351 384/437/352
f 384/437/352 377/428/125 369/419/117
f 385/438/133 386/439/353 378/430/347
f 386/439/353 387/448/354 379/440/348
f 379/440/348 387/448/354 388/441/355
f 388/441/355 389/451/129 381/432/121
f 389/442/129 390/443/356 382/436/350
f 390/443/356 391/454/357 383/444/351
f 383/444/351 391/454/357 392/445/358
f 392/445/358 385/438/133 377/428/125
f 393/446/141 394/447/359 386/439/353
f 394/447/359 395/449/360 387/448/354
f 395/449/360 396/450/361 388/441/355
f 396/450/361 397/459/137 389/451/129
f 389/442/129 397/461/137 398/452/362
f 390/443/356 398/452/362 399/453/363
f 391/454/357 399/453/363 400/455/364
f 400/455/364 393/446/141 385/438/133
f 393/446/141 401/466/149 402/456/365
f 394/447/359 402/456/365 403/457/366
f 395/449/360 403/457/366 404/458/367
f 404/458/367 405/470/145 397/459/137
f 405/460/145 406/462/368 398/452/362
f 406/462/368 407/463/369 399/453/363
f 407/463/369 408/464/370 400/455/364
f 408/464/370 401/466/149 393/446/141
f 409/465/157 410/467/371 402/456/365
f 410/467/371 411/468/372 403/457/366
f 411/468/372 412/469/373 404/458/367
f 412/469/373 413/477/153 405/470/145
f 405/460/145 413/478/153 414/471/374
f 406/462/368 414/471/374 415/472/375
f 407/463/369 415/472/375 416/473/376
f 408/464/370 416/473/376 409/465/157
f 417/474/165 418/475/377 410/467/371
f 418/475/377 419/483/378 411/468/372
f 411/468/372 419/483/378 420/476/379
f 420/476/379 421/486/161 413/477/153
f 413/478/153 421/488/161 422/479/380
f 422/479/380 423/490/381 415/472/375
f 415/472/375 423/490/381 424/480/382
f 416/473/376 424/480/382 417/474/165
f 425/481/173 426/482/383 418/475/377
f 426/482/383 427/494/384 419/483/378
f 419/483/378 427/494/384 428/484/385
f 420/476/379 428/484/385 429/485/169
f 429/487/169 430/489/386 422/479/380
f 430/489/386 431/499/387 423/490/381
f 423/490/381 431/499/387 432/491/388
f 424/480/382 432/491/388 425/481/173
f 433/492/181 434/493/389 426/482/383
f 434/493/389 435/495/390 427/494/384
f 435/495/390 436/496/391 428/484/385
f 436/496/391 437/505/177 429/485/169
f 429/487/169 437/506/177 438/497/392
f 430/489/386 438/497/392 439/498/393
f 439/498/393 440/500/394 432/491/388
f 440/500/394 433/492/181 425/481/173
f 441/501/189 442/502/395 434/493/389
f 442/502/395 443/503/396 435/495/390
f 443/503/396 444/513/397 436/496/391
f 436/496/391 444/513/397 445/504/185
f 437/506/177 445/516/185 446/507/398
f 438/497/392 446/507/398 447/508/399
f 447/508/399 448/509/400 440/500/394
f 448/509/400 441/501/189 433/492/181
f 449/510/197 450/521/401 442/502/395
f 442/502/395 450/521/401 451/511/402
f 443/503/396 451/511/402 452/512/403
f 444/513/397 452/512/403 453/514/193
f 453/515/193 454/517/404 446/507/398
f 454/517/404 455/518/405 447/508/399
f 455/518/405 456/519/406 448/509/400
f 456/519/406 449/510/197 441/501/189
f 457/520/205 458/522/407 450/521/401
f 458/522/407 459/523/408 451/511/402
f 459/523/408 460/524/409 452/512/403
f 460/524/409 461/531/201 453/514/193
f 453/515/193 461/533/201 462/525/410
f 454/517/404 462/525/410 463/526/411
f 455/518/405 463/526/411 464/527/412
f 456/519/406 464/527/412 457/520/205
f 457/520/205 465/537/213 466/528/413
f 466/528/413 467/529/414 459/523/408
f 467/529/414 468/530/415 460/524/409
f 468/530/415 469/541/209 461/531/201
f 469/532/209 470/543/416 462/525/410
f 462/525/410 470/543/416 471/534/417
f 471/534/417 472/535/418 464/527/412
f 472/535/418 465/537/213 457/520/205
f 473/536/221 474/538/419 466/528/413
f 474/538/419 475/539/420 467/529/414
f 475/539/420 476/547/421 468/530/415
f 468/530/415 476/547/421 477/540/217
f 477/542/217 478/550/422 470/543/416
f 470/543/416 478/550/422 479/544/423
f 479/544/423 480/552/424 472/535/418
f 472/535/418 480/552/424 473/536/221
f 481/545/229 482/555/425 474/538/419
f 474/538/419 482/555/425 483/546/426
f 483/546/426 484/548/427 476/547/421
f 484/548/427 485/559/225 477/540/217
f 477/542/217 485/560/225 486/549/428
f 478/550/422 486/549/428 487/551/429
f 487/551/429 488/553/430 480/552/424
f 488/553/430 481/545/229 473/536/221
f 489/554/237 490/556/431 482/555/425
f 490/556/431 491/557/432 483/546/426
f 491/557/432 492/558/433 484/548/427
f 492/558/433 493/566/233 485/559/225
f 485/560/225 493/568/233 494/561/434
f 494/561/434 495/562/435 487/551/429
f 495/562/435 496/563/436 488/553/430
f 496/563/436 489/554/237 481/545/229
f 489/554/237 497/573/245 498/564/437
f 498/564/437 499/575/438 491/557/432
f 491/557/432 499/575/438 500/565/439
f 500/565/439 501/577/241 493/566/233
f 501/567/241 502/569/440 494/561/434
f 502/569/440 503/570/441 495/562/435
f 503/570/441 504/571/442 496/563/436
f 504/571/442 497/573/245 489/554/237
f 505/572/253 506/581/443 498/564/437
f 498/564/437 506/581/443 507/574/444
f 507/574/444 508/576/445 500/565/439
f 508/576/445 509/582/249 501/577/241
f 509/578/249 510/579/446 502/569/440
f 510/579/446 511/580/447 503/570/441
f 511/580/447 512/583/448 504/571/442
f 504/571/442 512/583/448 505/572/253
f 505/572/253 1/3/1 2/2/2
f 506/581/443 2/2/2 3/5/3
f 3/5/3 4/7/4 508/576/445
f 508/576/445 4/7/4 5/9/5
f 5/12/5 6/11/6 510/579/446
f 6/11/6 7/14/7 511/580/447
f 7/14/7 8/16/8 512/583/448
f 8/16/8 1/3/1 505/572/253
